<svg width="83" height="354" viewBox="0 0 83 354" fill="none" xmlns="http://www.w3.org/2000/svg">
<path d="M56 353.92L56 312.48L38.88 309.76L38.88 311.76L54 322.96L54 333.76L2.8 326L2 322.64L-5.19947e-06 322.32L-4.17838e-06 345.68L2 346L2.8 342.8L53.2 350.4L54 353.6L56 353.92ZM56 309.311L56 265.471L39.28 262.831L39.28 264.831L54 273.551L54 289.151L27.6 285.151L27.6 279.551L38.16 276.031L38.16 274.431L27.12 272.671L14.96 270.751L14.96 272.351L25.6 279.231L25.6 284.831L2 281.311L2 267.791L16 263.071L16 261.071L-7.98867e-06 258.511L-6.12831e-06 301.071L2 301.391L2.8 298.191L53.2 305.791L54 308.991L56 309.311ZM53.68 226.955L2.79999 205.355L1.99999 201.755L-1.04835e-05 201.435L-9.9415e-06 213.835L1.99999 214.155L2.79999 208.555L46.48 226.795L2.79999 234.715L1.99999 229.115L-9.28758e-06 228.795L-8.14059e-06 255.035L1.99999 255.355L2.79999 252.155L57.04 242.155L53.68 226.955ZM56 207.123L56 163.283L39.28 160.643L39.28 162.643L54 171.363L54 186.963L27.6 182.963L27.6 177.363L38.16 173.843L38.16 172.243L27.12 170.483L14.96 168.563L14.96 170.163L25.6 177.043L25.6 182.643L1.99999 179.123L1.99999 165.603L16 160.883L16 158.883L-1.24554e-05 156.323L-1.05951e-05 198.883L1.99999 199.203L2.79999 196.003L53.2 203.603L54 206.803L56 207.123ZM56 158.607L56 117.167L38.88 114.447L38.88 116.447L54 127.647L54 138.447L2.79999 130.687L1.99999 127.327L-1.37369e-05 127.007L-1.27158e-05 150.367L1.99999 150.687L2.79999 147.487L53.2 155.087L54 158.287L56 158.607ZM56 56.3794L46.4 50.8594L44.4 50.8594L44.4 80.2994L41.6 71.7394C38.72 63.0194 34.4 50.2994 24.96 50.2994C19.92 50.2994 16 54.6194 16 65.3394L23.04 88.0594L33.76 88.6194L33.76 78.9394L19.6 72.0594L19.44 71.1794C19.44 68.7794 21.52 66.5394 24.96 66.5394C31.04 66.5394 37.68 73.3394 42.24 79.5794L54.24 96.0594L56 95.3394L56 56.3794ZM36.24 1.6475L31.04 0.527496L31.04 24.9275L36.24 26.0475L36.24 1.6475ZM79 353.514L66.436 350.994L66.436 346.332C66.436 345.12 66.73 344.202 67.318 343.578C67.894 342.942 68.686 342.624 69.694 342.624C70.354 342.624 70.96 342.738 71.512 342.966C72.064 343.194 72.538 343.518 72.934 343.938C73.33 344.346 73.642 344.838 73.87 345.414C74.086 345.978 74.194 346.608 74.194 347.304L74.194 350.274L79 351.246L79 353.514ZM72.178 349.878L72.178 346.998C72.178 346.542 72.058 346.152 71.818 345.828C71.578 345.492 71.212 345.276 70.72 345.18C70.408 345.12 70.162 345.072 69.982 345.036C69.802 344.988 69.658 344.964 69.55 344.964C69.238 344.964 68.98 345.072 68.776 345.288C68.56 345.492 68.452 345.828 68.452 346.296L68.452 349.122L72.178 349.878ZM79 342.583L69.604 340.693L69.604 338.515L71.764 338.947L71.764 338.839C71.512 338.731 71.26 338.593 71.008 338.425C70.756 338.257 70.528 338.059 70.324 337.831C70.108 337.591 69.934 337.327 69.802 337.039C69.67 336.739 69.604 336.403 69.604 336.031L69.604 335.545L71.746 335.995L71.746 336.625C71.746 337.441 71.92 338.071 72.268 338.515C72.604 338.947 73.138 339.235 73.87 339.379L79 340.405L79 342.583ZM79.216 331.821C79.216 332.925 78.88 333.807 78.208 334.467C77.536 335.127 76.57 335.457 75.31 335.457C74.482 335.457 73.708 335.337 72.988 335.097C72.268 334.857 71.644 334.521 71.116 334.089C70.576 333.657 70.156 333.147 69.856 332.559C69.544 331.971 69.388 331.323 69.388 330.615C69.388 329.511 69.724 328.629 70.396 327.969C71.068 327.309 72.034 326.979 73.294 326.979C74.122 326.979 74.896 327.099 75.616 327.339C76.336 327.579 76.966 327.915 77.506 328.347C78.034 328.779 78.454 329.295 78.766 329.895C79.066 330.483 79.216 331.125 79.216 331.821ZM77.416 331.695C77.416 331.155 77.218 330.699 76.822 330.327C76.426 329.943 75.85 329.679 75.094 329.535L73.528 329.211C73.408 329.187 73.306 329.169 73.222 329.157C73.126 329.145 73.012 329.139 72.88 329.139C72.376 329.139 71.968 329.277 71.656 329.553C71.344 329.817 71.188 330.213 71.188 330.741C71.188 331.281 71.386 331.743 71.782 332.127C72.178 332.499 72.754 332.757 73.51 332.901L75.094 333.225C75.19 333.249 75.286 333.267 75.382 333.279C75.478 333.291 75.592 333.297 75.724 333.297C76.228 333.297 76.636 333.165 76.948 332.901C77.26 332.625 77.416 332.223 77.416 331.695ZM69.604 323.992L69.604 321.814L80.296 323.956C81.064 324.112 81.64 324.4 82.024 324.82C82.408 325.228 82.6 325.84 82.6 326.656L82.6 328.006L80.818 327.646L80.818 326.242L69.604 323.992ZM68.236 322.588C68.236 322.984 68.158 323.272 68.002 323.452C67.846 323.632 67.642 323.722 67.39 323.722C67.21 323.722 66.982 323.692 66.706 323.632C66.406 323.56 66.148 323.422 65.932 323.218C65.704 323.002 65.59 322.636 65.59 322.12C65.59 321.724 65.668 321.436 65.824 321.256C65.98 321.076 66.184 320.986 66.436 320.986C66.616 320.986 66.844 321.016 67.12 321.076C67.42 321.148 67.684 321.292 67.912 321.508C68.128 321.712 68.236 322.072 68.236 322.588ZM79.216 316.963C79.216 318.235 78.862 319.195 78.154 319.843C77.446 320.479 76.462 320.797 75.202 320.797C74.446 320.797 73.72 320.677 73.024 320.437C72.316 320.197 71.692 319.861 71.152 319.429C70.612 318.985 70.186 318.457 69.874 317.845C69.55 317.221 69.388 316.525 69.388 315.757C69.388 315.385 69.436 315.007 69.532 314.623C69.616 314.239 69.76 313.891 69.964 313.579C70.156 313.267 70.42 313.009 70.756 312.805C71.092 312.601 71.5 312.499 71.98 312.499C72.964 312.499 73.732 312.985 74.284 313.957C74.836 314.917 75.136 316.459 75.184 318.583C75.424 318.619 75.598 318.637 75.706 318.637C76.222 318.637 76.636 318.493 76.948 318.205C77.26 317.917 77.416 317.449 77.416 316.801C77.416 316.333 77.314 315.907 77.11 315.523C76.906 315.139 76.552 314.743 76.048 314.335L77.164 312.985C77.92 313.573 78.454 314.191 78.766 314.839C79.066 315.475 79.216 316.183 79.216 316.963ZM71.08 315.901C71.08 316.501 71.278 317.011 71.674 317.431C72.07 317.851 72.61 318.127 73.294 318.259L73.744 318.349C73.708 317.581 73.648 316.957 73.564 316.477C73.468 315.985 73.354 315.607 73.222 315.343C73.09 315.067 72.934 314.881 72.754 314.785C72.574 314.689 72.37 314.641 72.142 314.641C71.926 314.641 71.752 314.683 71.62 314.767C71.476 314.839 71.368 314.935 71.296 315.055C71.212 315.175 71.158 315.313 71.134 315.469C71.098 315.613 71.08 315.757 71.08 315.901ZM79.216 307.968C79.216 308.484 79.138 308.964 78.982 309.408C78.814 309.84 78.568 310.218 78.244 310.542C77.92 310.866 77.506 311.118 77.002 311.298C76.498 311.478 75.904 311.568 75.22 311.568C74.392 311.568 73.624 311.448 72.916 311.208C72.196 310.968 71.578 310.632 71.062 310.2C70.534 309.768 70.126 309.252 69.838 308.652C69.538 308.052 69.388 307.398 69.388 306.69C69.388 305.814 69.604 305.082 70.036 304.494C70.468 303.894 71.038 303.528 71.746 303.396L72.466 305.232C72.07 305.364 71.758 305.538 71.53 305.754C71.302 305.97 71.188 306.324 71.188 306.816C71.188 307.992 71.914 308.718 73.366 308.994L74.932 309.318C75.208 309.378 75.466 309.408 75.706 309.408C76.21 309.408 76.624 309.276 76.948 309.012C77.26 308.748 77.416 308.334 77.416 307.77C77.416 307.302 77.284 306.924 77.02 306.636C76.744 306.336 76.348 306.042 75.832 305.754L76.624 304.08C77.476 304.488 78.124 305.022 78.568 305.682C79 306.33 79.216 307.092 79.216 307.968ZM79 300.315C79 301.611 78.466 302.259 77.398 302.259C77.302 302.259 77.194 302.253 77.074 302.241C76.942 302.229 76.81 302.211 76.678 302.187L71.386 301.125L71.386 302.475L69.604 302.133L69.604 301.467C69.604 301.095 69.532 300.849 69.388 300.729C69.232 300.597 68.992 300.501 68.668 300.441L67.03 300.117L67.03 298.083L69.604 298.587L69.604 296.697L71.386 297.057L71.386 298.947L77.218 300.117L77.218 298.335L79 298.695L79 300.315ZM65.68 294.163L65.68 291.985L71.692 293.173L71.692 293.083C70.948 292.735 70.378 292.321 69.982 291.841C69.586 291.349 69.388 290.743 69.388 290.023C69.388 289.267 69.604 288.697 70.036 288.313C70.468 287.917 71.08 287.719 71.872 287.719C72.076 287.719 72.286 287.737 72.502 287.773C72.706 287.797 72.928 287.833 73.168 287.881L77.218 288.691L77.218 287.647L79 288.007L79 289.519C79 289.951 78.892 290.293 78.676 290.545C78.448 290.797 78.13 290.923 77.722 290.923C77.554 290.923 77.386 290.905 77.218 290.869L73.348 290.095C73.012 290.023 72.682 289.987 72.358 289.987C72.01 289.987 71.74 290.071 71.548 290.239C71.344 290.407 71.242 290.689 71.242 291.085C71.242 291.397 71.32 291.685 71.476 291.949C71.62 292.213 71.818 292.453 72.07 292.669C72.346 292.909 72.652 293.119 72.988 293.299C73.324 293.467 73.678 293.587 74.05 293.659L79 294.649L79 296.827L65.68 294.163ZM79 278.988C79 279.42 78.886 279.774 78.658 280.05C78.43 280.326 78.112 280.464 77.704 280.464C77.608 280.464 77.506 280.458 77.398 280.446C77.29 280.422 77.206 280.404 77.146 280.392L76.858 280.338L76.858 280.428C77.626 280.812 78.214 281.238 78.622 281.706C79.018 282.174 79.216 282.768 79.216 283.488C79.216 283.92 79.138 284.304 78.982 284.64C78.814 284.964 78.58 285.234 78.28 285.45C77.98 285.666 77.626 285.828 77.218 285.936C76.81 286.044 76.354 286.098 75.85 286.098C74.938 286.098 74.092 285.99 73.312 285.774C72.52 285.558 71.836 285.258 71.26 284.874C70.672 284.478 70.216 284.01 69.892 283.47C69.556 282.918 69.388 282.318 69.388 281.67C69.388 281.034 69.556 280.5 69.892 280.068C70.228 279.636 70.666 279.378 71.206 279.294L71.206 279.204L69.604 278.88L69.604 276.702L77.218 278.232L77.218 277.098L79 277.44L79 278.988ZM77.398 282.498C77.398 282.15 77.314 281.838 77.146 281.562C76.966 281.274 76.756 281.028 76.516 280.824C76.252 280.584 75.952 280.386 75.616 280.23C75.268 280.074 74.902 279.954 74.518 279.87L72.916 279.546C72.436 279.45 72.034 279.558 71.71 279.87C71.374 280.17 71.206 280.608 71.206 281.184C71.206 282.42 71.98 283.194 73.528 283.506L74.824 283.758C74.956 283.782 75.118 283.806 75.31 283.83C75.502 283.854 75.67 283.866 75.814 283.866C76.294 283.866 76.678 283.752 76.966 283.524C77.254 283.284 77.398 282.942 77.398 282.498ZM79.216 272.384C79.216 273.14 79.078 273.848 78.802 274.508C78.514 275.156 78.094 275.678 77.542 276.074L76.264 274.688C76.636 274.412 76.924 274.088 77.128 273.716C77.332 273.332 77.434 272.87 77.434 272.33C77.434 271.742 77.314 271.304 77.074 271.016C76.834 270.716 76.54 270.566 76.192 270.566C75.964 270.566 75.766 270.638 75.598 270.782C75.43 270.926 75.316 271.196 75.256 271.592L75.13 272.474C75.01 273.254 74.752 273.866 74.356 274.31C73.96 274.754 73.384 274.976 72.628 274.976C72.196 274.976 71.788 274.904 71.404 274.76C71.008 274.604 70.666 274.37 70.378 274.058C70.078 273.746 69.838 273.356 69.658 272.888C69.478 272.408 69.388 271.85 69.388 271.214C69.388 269.75 69.874 268.622 70.846 267.83L72.124 269.234C71.836 269.462 71.608 269.756 71.44 270.116C71.26 270.464 71.17 270.866 71.17 271.322C71.17 271.826 71.278 272.21 71.494 272.474C71.698 272.726 71.974 272.852 72.322 272.852C72.55 272.852 72.748 272.78 72.916 272.636C73.084 272.492 73.198 272.228 73.258 271.844L73.384 270.962C73.504 270.17 73.762 269.552 74.158 269.108C74.554 268.664 75.13 268.442 75.886 268.442C76.342 268.442 76.774 268.532 77.182 268.712C77.59 268.88 77.944 269.132 78.244 269.468C78.544 269.804 78.784 270.218 78.964 270.71C79.132 271.202 79.216 271.76 79.216 272.384ZM79.216 262.875C79.216 264.147 78.862 265.107 78.154 265.755C77.446 266.391 76.462 266.709 75.202 266.709C74.446 266.709 73.72 266.589 73.024 266.349C72.316 266.109 71.692 265.773 71.152 265.341C70.612 264.897 70.186 264.369 69.874 263.757C69.55 263.133 69.388 262.437 69.388 261.669C69.388 261.297 69.436 260.919 69.532 260.535C69.616 260.151 69.76 259.803 69.964 259.491C70.156 259.179 70.42 258.921 70.756 258.717C71.092 258.513 71.5 258.411 71.98 258.411C72.964 258.411 73.732 258.897 74.284 259.869C74.836 260.829 75.136 262.371 75.184 264.495C75.424 264.531 75.598 264.549 75.706 264.549C76.222 264.549 76.636 264.405 76.948 264.117C77.26 263.829 77.416 263.361 77.416 262.713C77.416 262.245 77.314 261.819 77.11 261.435C76.906 261.051 76.552 260.655 76.048 260.247L77.164 258.897C77.92 259.485 78.454 260.103 78.766 260.751C79.066 261.387 79.216 262.095 79.216 262.875ZM71.08 261.813C71.08 262.413 71.278 262.923 71.674 263.343C72.07 263.763 72.61 264.039 73.294 264.171L73.744 264.261C73.708 263.493 73.648 262.869 73.564 262.389C73.468 261.897 73.354 261.519 73.222 261.255C73.09 260.979 72.934 260.793 72.754 260.697C72.574 260.601 72.37 260.553 72.142 260.553C71.926 260.553 71.752 260.595 71.62 260.679C71.476 260.751 71.368 260.847 71.296 260.967C71.212 261.087 71.158 261.225 71.134 261.381C71.098 261.525 71.08 261.669 71.08 261.813ZM75.13 252.705C74.062 252.705 73.042 252.567 72.07 252.291C71.098 252.003 70.192 251.619 69.352 251.139C68.512 250.659 67.75 250.107 67.066 249.483C66.382 248.859 65.8 248.211 65.32 247.539L65.32 245.217C65.788 245.829 66.292 246.417 66.832 246.981C67.372 247.533 67.942 248.037 68.542 248.493C69.142 248.937 69.766 249.315 70.414 249.627C71.05 249.939 71.704 250.161 72.376 250.293L74.104 250.653C74.308 250.689 74.5 250.713 74.68 250.725C74.848 250.737 75.01 250.743 75.166 250.743C76.438 250.743 77.602 250.533 78.658 250.113C79.714 249.693 80.656 249.135 81.484 248.439L81.484 250.473C81.136 250.773 80.728 251.061 80.26 251.337C79.804 251.601 79.306 251.835 78.766 252.039C78.226 252.243 77.65 252.405 77.038 252.525C76.426 252.645 75.79 252.705 75.13 252.705ZM79 238.976L79 247.328L76.822 246.896L73.366 242.342C72.79 241.562 72.256 240.998 71.764 240.65C71.272 240.29 70.798 240.062 70.342 239.966C70.162 239.93 69.964 239.912 69.748 239.912C69.328 239.912 68.968 240.044 68.668 240.308C68.356 240.572 68.2 240.968 68.2 241.496C68.2 242.084 68.386 242.57 68.758 242.954C69.118 243.326 69.568 243.626 70.108 243.854L69.316 245.78C68.872 245.576 68.458 245.336 68.074 245.06C67.69 244.784 67.366 244.466 67.102 244.106C66.826 243.734 66.61 243.32 66.454 242.864C66.298 242.396 66.22 241.874 66.22 241.298C66.22 240.71 66.304 240.182 66.472 239.714C66.64 239.246 66.874 238.85 67.174 238.526C67.462 238.19 67.816 237.938 68.236 237.77C68.644 237.59 69.094 237.5 69.586 237.5C70.126 237.5 70.624 237.59 71.08 237.77C71.524 237.938 71.956 238.184 72.376 238.508C72.784 238.832 73.186 239.228 73.582 239.696C73.966 240.164 74.374 240.686 74.806 241.262L77.074 244.34L77.074 238.598L79 238.976ZM68.434 226.761L68.434 232.215L72.736 233.313L72.736 233.151C72.136 232.815 71.686 232.443 71.386 232.035C71.074 231.615 70.918 231.045 70.918 230.325C70.918 229.389 71.212 228.633 71.8 228.057C72.388 227.481 73.228 227.193 74.32 227.193C74.956 227.193 75.568 227.307 76.156 227.535C76.744 227.751 77.266 228.075 77.722 228.507C78.178 228.939 78.544 229.467 78.82 230.091C79.084 230.715 79.216 231.429 79.216 232.233C79.216 232.845 79.15 233.379 79.018 233.835C78.886 234.291 78.712 234.681 78.496 235.005C78.28 235.329 78.034 235.599 77.758 235.815C77.47 236.019 77.17 236.181 76.858 236.301L75.67 234.483C76.15 234.315 76.546 234.045 76.858 233.673C77.158 233.301 77.308 232.779 77.308 232.107C77.308 231.423 77.122 230.883 76.75 230.487C76.366 230.091 75.85 229.827 75.202 229.695C75.07 229.671 74.944 229.653 74.824 229.641C74.692 229.617 74.56 229.605 74.428 229.605C73.912 229.605 73.51 229.755 73.222 230.055C72.934 230.343 72.79 230.775 72.79 231.351C72.79 231.843 72.892 232.263 73.096 232.611C73.288 232.947 73.516 233.241 73.78 233.493L73.528 235.275L66.436 233.475L66.436 226.365L68.434 226.761ZM66.436 212.236L75.616 214.072C76.732 214.3 77.614 214.756 78.262 215.44C78.898 216.124 79.216 217.042 79.216 218.194C79.216 218.758 79.132 219.256 78.964 219.688C78.796 220.108 78.568 220.468 78.28 220.768C77.98 221.056 77.632 221.284 77.236 221.452C76.828 221.62 76.384 221.722 75.904 221.758L75.472 219.598C75.988 219.562 76.408 219.442 76.732 219.238C77.044 219.022 77.2 218.668 77.2 218.176C77.2 217.684 77.05 217.282 76.75 216.97C76.438 216.646 75.964 216.418 75.328 216.286L68.326 214.882L68.326 218.716L66.436 218.338L66.436 212.236ZM69.604 208.053L75.256 209.187C75.604 209.259 75.922 209.295 76.21 209.295C76.57 209.295 76.852 209.217 77.056 209.061C77.26 208.893 77.362 208.629 77.362 208.269C77.362 207.957 77.29 207.675 77.146 207.423C76.99 207.159 76.786 206.919 76.534 206.703C75.958 206.199 75.298 205.875 74.554 205.731L69.604 204.741L69.604 202.563L77.218 204.093L77.218 202.959L79 203.301L79 204.849C79 205.281 78.886 205.635 78.658 205.911C78.43 206.175 78.106 206.307 77.686 206.307C77.59 206.307 77.494 206.301 77.398 206.289C77.302 206.277 77.218 206.265 77.146 206.253L76.912 206.199L76.912 206.307C77.644 206.655 78.214 207.063 78.622 207.531C79.018 207.999 79.216 208.581 79.216 209.277C79.216 210.021 79 210.585 78.568 210.969C78.136 211.353 77.524 211.545 76.732 211.545C76.516 211.545 76.306 211.533 76.102 211.509C75.886 211.485 75.658 211.449 75.418 211.401L69.604 210.231L69.604 208.053ZM79 199.806C79 200.274 78.88 200.646 78.64 200.922C78.388 201.186 78.058 201.318 77.65 201.318C77.578 201.318 77.518 201.318 77.47 201.318C77.41 201.306 77.326 201.288 77.218 201.264L65.68 198.96L65.68 196.782L77.218 199.086L77.218 197.88L79 198.222L79 199.806ZM69.604 189.627L69.604 187.305L80.692 193.245C81.016 193.413 81.298 193.593 81.538 193.785C81.778 193.965 81.976 194.169 82.132 194.397C82.288 194.625 82.402 194.889 82.474 195.189C82.558 195.477 82.6 195.813 82.6 196.197L82.6 197.601L80.818 197.259L80.818 195.531L79.468 194.829L69.604 196.197L69.604 194.037L73.456 193.587L76.948 193.263L76.948 193.173L73.456 191.553L69.604 189.627ZM74.59 182.908L72.448 182.476L72.448 177.4L74.59 177.832L74.59 182.908ZM70.342 162.119C71.254 162.119 72.142 162.287 73.006 162.623C73.858 162.947 74.662 163.385 75.418 163.937C76.162 164.489 76.84 165.119 77.452 165.827C78.064 166.523 78.58 167.243 79 167.987L79 171.209C78.496 170.405 78.004 169.661 77.524 168.977C77.044 168.293 76.546 167.681 76.03 167.141C75.514 166.601 74.98 166.133 74.428 165.737C73.876 165.341 73.276 165.035 72.628 164.819L72.574 164.945C72.85 165.113 73.102 165.293 73.33 165.485C73.558 165.665 73.756 165.869 73.924 166.097C74.08 166.325 74.206 166.583 74.302 166.871C74.398 167.147 74.446 167.465 74.446 167.825C74.446 168.293 74.368 168.719 74.212 169.103C74.044 169.487 73.81 169.811 73.51 170.075C73.21 170.339 72.85 170.543 72.43 170.687C71.998 170.831 71.524 170.903 71.008 170.903C70.36 170.903 69.748 170.789 69.172 170.561C68.584 170.321 68.074 169.985 67.642 169.553C67.21 169.121 66.868 168.599 66.616 167.987C66.352 167.375 66.22 166.691 66.22 165.935C66.22 164.699 66.586 163.757 67.318 163.109C68.05 162.449 69.058 162.119 70.342 162.119ZM72.646 166.799C72.646 166.139 72.466 165.611 72.106 165.215C71.734 164.819 71.224 164.555 70.576 164.423C70.456 164.399 70.336 164.381 70.216 164.369C70.096 164.357 69.97 164.351 69.838 164.351C69.274 164.351 68.836 164.501 68.524 164.801C68.212 165.089 68.056 165.527 68.056 166.115C68.056 166.775 68.242 167.303 68.614 167.699C68.974 168.095 69.478 168.359 70.126 168.491C70.246 168.515 70.366 168.533 70.486 168.545C70.606 168.557 70.732 168.563 70.864 168.563C71.428 168.563 71.866 168.419 72.178 168.131C72.49 167.831 72.646 167.387 72.646 166.799ZM79.216 151.969C79.216 152.581 79.12 153.157 78.928 153.697C78.724 154.237 78.418 154.717 78.01 155.137C77.59 155.545 77.062 155.869 76.426 156.109C75.79 156.349 75.04 156.469 74.176 156.469C73.108 156.469 72.094 156.313 71.134 156.001C70.162 155.689 69.316 155.251 68.596 154.687C67.864 154.111 67.288 153.427 66.868 152.635C66.436 151.843 66.22 150.967 66.22 150.007C66.22 149.395 66.322 148.819 66.526 148.279C66.73 147.739 67.042 147.265 67.462 146.857C67.87 146.449 68.392 146.125 69.028 145.885C69.652 145.645 70.396 145.525 71.26 145.525C72.328 145.525 73.348 145.681 74.32 145.993C75.28 146.305 76.126 146.743 76.858 147.307C77.578 147.871 78.154 148.549 78.586 149.341C79.006 150.133 79.216 151.009 79.216 151.969ZM77.182 151.807C77.182 150.895 76.882 150.139 76.282 149.539C75.67 148.939 74.812 148.531 73.708 148.315L71.836 147.937C71.632 147.889 71.446 147.859 71.278 147.847C71.098 147.835 70.936 147.829 70.792 147.829C69.976 147.829 69.352 148.033 68.92 148.441C68.476 148.837 68.254 149.419 68.254 150.187C68.254 151.099 68.56 151.855 69.172 152.455C69.772 153.055 70.624 153.463 71.728 153.679L73.6 154.057C73.804 154.105 73.996 154.135 74.176 154.147C74.344 154.159 74.5 154.165 74.644 154.165C75.46 154.165 76.09 153.967 76.534 153.571C76.966 153.163 77.182 152.575 77.182 151.807ZM79.216 140.765C79.216 141.281 79.138 141.761 78.982 142.205C78.814 142.637 78.568 143.015 78.244 143.339C77.92 143.663 77.506 143.915 77.002 144.095C76.498 144.275 75.904 144.365 75.22 144.365C74.392 144.365 73.624 144.245 72.916 144.005C72.196 143.765 71.578 143.429 71.062 142.997C70.534 142.565 70.126 142.049 69.838 141.449C69.538 140.849 69.388 140.195 69.388 139.487C69.388 138.611 69.604 137.879 70.036 137.291C70.468 136.691 71.038 136.325 71.746 136.193L72.466 138.029C72.07 138.161 71.758 138.335 71.53 138.551C71.302 138.767 71.188 139.121 71.188 139.613C71.188 140.789 71.914 141.515 73.366 141.791L74.932 142.115C75.208 142.175 75.466 142.205 75.706 142.205C76.21 142.205 76.624 142.073 76.948 141.809C77.26 141.545 77.416 141.131 77.416 140.567C77.416 140.099 77.284 139.721 77.02 139.433C76.744 139.133 76.348 138.839 75.832 138.551L76.624 136.877C77.476 137.285 78.124 137.819 78.568 138.479C79 139.127 79.216 139.889 79.216 140.765ZM79 133.112C79 134.408 78.466 135.056 77.398 135.056C77.302 135.056 77.194 135.05 77.074 135.038C76.942 135.026 76.81 135.008 76.678 134.984L71.386 133.922L71.386 135.272L69.604 134.93L69.604 134.264C69.604 133.892 69.532 133.646 69.388 133.526C69.232 133.394 68.992 133.298 68.668 133.238L67.03 132.914L67.03 130.88L69.604 131.384L69.604 129.494L71.386 129.854L71.386 131.744L77.218 132.914L77.218 131.132L79 131.492L79 133.112ZM79.216 125.805C79.216 126.909 78.88 127.791 78.208 128.451C77.536 129.111 76.57 129.441 75.31 129.441C74.482 129.441 73.708 129.321 72.988 129.081C72.268 128.841 71.644 128.505 71.116 128.073C70.576 127.641 70.156 127.131 69.856 126.543C69.544 125.955 69.388 125.307 69.388 124.599C69.388 123.495 69.724 122.613 70.396 121.953C71.068 121.293 72.034 120.963 73.294 120.963C74.122 120.963 74.896 121.083 75.616 121.323C76.336 121.563 76.966 121.899 77.506 122.331C78.034 122.763 78.454 123.279 78.766 123.879C79.066 124.467 79.216 125.109 79.216 125.805ZM77.416 125.679C77.416 125.139 77.218 124.683 76.822 124.311C76.426 123.927 75.85 123.663 75.094 123.519L73.528 123.195C73.408 123.171 73.306 123.153 73.222 123.141C73.126 123.129 73.012 123.123 72.88 123.123C72.376 123.123 71.968 123.261 71.656 123.537C71.344 123.801 71.188 124.197 71.188 124.725C71.188 125.265 71.386 125.727 71.782 126.111C72.178 126.483 72.754 126.741 73.51 126.885L75.094 127.209C75.19 127.233 75.286 127.251 75.382 127.263C75.478 127.275 75.592 127.281 75.724 127.281C76.228 127.281 76.636 127.149 76.948 126.885C77.26 126.609 77.416 126.207 77.416 125.679ZM65.68 117.257L65.68 115.079L71.746 116.285L71.746 116.195C70.978 115.811 70.396 115.385 70 114.917C69.592 114.449 69.388 113.855 69.388 113.135C69.388 112.703 69.472 112.325 69.64 112.001C69.808 111.665 70.042 111.389 70.342 111.173C70.63 110.957 70.984 110.795 71.404 110.687C71.812 110.579 72.262 110.525 72.754 110.525C73.666 110.525 74.518 110.633 75.31 110.849C76.09 111.065 76.774 111.371 77.362 111.767C77.938 112.151 78.394 112.619 78.73 113.171C79.054 113.711 79.216 114.305 79.216 114.953C79.216 115.589 79.048 116.123 78.712 116.555C78.376 116.987 77.938 117.245 77.398 117.329L77.398 117.419L79 117.743L79 119.921L65.68 117.257ZM77.398 115.439C77.398 114.203 76.624 113.429 75.076 113.117L73.78 112.865C73.648 112.841 73.486 112.817 73.294 112.793C73.102 112.769 72.934 112.757 72.79 112.757C72.31 112.757 71.926 112.877 71.638 113.117C71.35 113.345 71.206 113.681 71.206 114.125C71.206 114.473 71.296 114.791 71.476 115.079C71.644 115.355 71.848 115.595 72.088 115.799C72.352 116.039 72.658 116.237 73.006 116.393C73.342 116.549 73.702 116.669 74.086 116.753L75.688 117.077C76.168 117.173 76.576 117.071 76.912 116.771C77.236 116.459 77.398 116.015 77.398 115.439ZM79.216 105.357C79.216 106.629 78.862 107.589 78.154 108.237C77.446 108.873 76.462 109.191 75.202 109.191C74.446 109.191 73.72 109.071 73.024 108.831C72.316 108.591 71.692 108.255 71.152 107.823C70.612 107.379 70.186 106.851 69.874 106.239C69.55 105.615 69.388 104.919 69.388 104.151C69.388 103.779 69.436 103.401 69.532 103.017C69.616 102.633 69.76 102.285 69.964 101.973C70.156 101.661 70.42 101.403 70.756 101.199C71.092 100.995 71.5 100.893 71.98 100.893C72.964 100.893 73.732 101.379 74.284 102.351C74.836 103.311 75.136 104.853 75.184 106.977C75.424 107.013 75.598 107.031 75.706 107.031C76.222 107.031 76.636 106.887 76.948 106.599C77.26 106.311 77.416 105.843 77.416 105.195C77.416 104.727 77.314 104.301 77.11 103.917C76.906 103.533 76.552 103.137 76.048 102.729L77.164 101.379C77.92 101.967 78.454 102.585 78.766 103.233C79.066 103.869 79.216 104.577 79.216 105.357ZM71.08 104.295C71.08 104.895 71.278 105.405 71.674 105.825C72.07 106.245 72.61 106.521 73.294 106.653L73.744 106.743C73.708 105.975 73.648 105.351 73.564 104.871C73.468 104.379 73.354 104.001 73.222 103.737C73.09 103.461 72.934 103.275 72.754 103.179C72.574 103.083 72.37 103.035 72.142 103.035C71.926 103.035 71.752 103.077 71.62 103.161C71.476 103.233 71.368 103.329 71.296 103.449C71.212 103.569 71.158 103.707 71.134 103.863C71.098 104.007 71.08 104.151 71.08 104.295ZM79 100.251L69.604 98.3609L69.604 96.1829L71.764 96.6149L71.764 96.5069C71.512 96.3989 71.26 96.2609 71.008 96.0929C70.756 95.9249 70.528 95.7269 70.324 95.4989C70.108 95.2589 69.934 94.9949 69.802 94.7069C69.67 94.4069 69.604 94.0709 69.604 93.6989L69.604 93.2129L71.746 93.6629L71.746 94.2929C71.746 95.1089 71.92 95.7389 72.268 96.1829C72.604 96.6149 73.138 96.9029 73.87 97.0469L79 98.0729L79 100.251ZM71.674 88.2311C72.742 88.2311 73.762 88.3751 74.734 88.6631C75.706 88.9391 76.612 89.3171 77.452 89.7971C78.292 90.2771 79.054 90.8291 79.738 91.4531C80.422 92.0771 81.004 92.7251 81.484 93.3971L81.484 95.7191C81.016 95.1071 80.512 94.5191 79.972 93.9551C79.432 93.4031 78.862 92.9051 78.262 92.4611C77.662 92.0051 77.044 91.6211 76.408 91.3091C75.76 90.9971 75.1 90.7751 74.428 90.6431L72.7 90.2831C72.496 90.2471 72.31 90.2231 72.142 90.2111C71.962 90.1991 71.794 90.1931 71.638 90.1931C70.366 90.1931 69.202 90.4031 68.146 90.8231C67.09 91.2431 66.148 91.8011 65.32 92.4971L65.32 90.4631C65.668 90.1631 66.076 89.8811 66.544 89.6171C67 89.3411 67.498 89.1011 68.038 88.8971C68.578 88.6931 69.154 88.5311 69.766 88.4111C70.378 88.2911 71.014 88.2311 71.674 88.2311Z" fill="white"/>
</svg>
