<svg width="83" height="354" viewBox="0 0 83 354" fill="none" xmlns="http://www.w3.org/2000/svg">
<path d="M56 353.92L56 312.48L38.88 309.76L38.88 311.76L54 322.96L54 333.76L2.8 326L2 322.64L-5.19947e-06 322.32L-4.17838e-06 345.68L2 346L2.8 342.8L53.2 350.4L54 353.6L56 353.92ZM56 309.311L56 265.471L39.28 262.831L39.28 264.831L54 273.551L54 289.151L27.6 285.151L27.6 279.551L38.16 276.031L38.16 274.431L27.12 272.671L14.96 270.751L14.96 272.351L25.6 279.231L25.6 284.831L2 281.311L2 267.791L16 263.071L16 261.071L-7.98867e-06 258.511L-6.12831e-06 301.071L2 301.391L2.8 298.191L53.2 305.791L54 308.991L56 309.311ZM53.68 226.955L2.79999 205.355L1.99999 201.755L-1.04835e-05 201.435L-9.9415e-06 213.835L1.99999 214.155L2.79999 208.555L46.48 226.795L2.79999 234.715L1.99999 229.115L-9.28758e-06 228.795L-8.14059e-06 255.035L1.99999 255.355L2.79999 252.155L57.04 242.155L53.68 226.955ZM56 207.123L56 163.283L39.28 160.643L39.28 162.643L54 171.363L54 186.963L27.6 182.963L27.6 177.363L38.16 173.843L38.16 172.243L27.12 170.483L14.96 168.563L14.96 170.163L25.6 177.043L25.6 182.643L1.99999 179.123L1.99999 165.603L16 160.883L16 158.883L-1.24554e-05 156.323L-1.05951e-05 198.883L1.99999 199.203L2.79999 196.003L53.2 203.603L54 206.803L56 207.123ZM56 158.607L56 117.167L38.88 114.447L38.88 116.447L54 127.647L54 138.447L2.79999 130.687L1.99999 127.327L-1.37369e-05 127.007L-1.27158e-05 150.367L1.99999 150.687L2.79999 147.487L53.2 155.087L54 158.287L56 158.607ZM56 56.3794L46.4 50.8594L44.4 50.8594L44.4 80.2994L41.6 71.7394C38.72 63.0194 34.4 50.2994 24.96 50.2994C19.92 50.2994 16 54.6194 16 65.3394L23.04 88.0594L33.76 88.6194L33.76 78.9394L19.6 72.0594L19.44 71.1794C19.44 68.7794 21.52 66.5394 24.96 66.5394C31.04 66.5394 37.68 73.3394 42.24 79.5794L54.24 96.0594L56 95.3394L56 56.3794ZM36.24 1.6475L31.04 0.527496L31.04 24.9275L36.24 26.0475L36.24 1.6475ZM79 353.514L66.436 350.994L66.436 346.332C66.436 345.12 66.73 344.202 67.318 343.578C67.894 342.942 68.686 342.624 69.694 342.624C70.354 342.624 70.96 342.738 71.512 342.966C72.064 343.194 72.538 343.518 72.934 343.938C73.33 344.346 73.642 344.838 73.87 345.414C74.086 345.978 74.194 346.608 74.194 347.304L74.194 350.274L79 351.246L79 353.514ZM72.178 349.878L72.178 346.998C72.178 346.542 72.058 346.152 71.818 345.828C71.578 345.492 71.212 345.276 70.72 345.18C70.408 345.12 70.162 345.072 69.982 345.036C69.802 344.988 69.658 344.964 69.55 344.964C69.238 344.964 68.98 345.072 68.776 345.288C68.56 345.492 68.452 345.828 68.452 346.296L68.452 349.122L72.178 349.878ZM79 342.583L69.604 340.693L69.604 338.515L71.764 338.947L71.764 338.839C71.512 338.731 71.26 338.593 71.008 338.425C70.756 338.257 70.528 338.059 70.324 337.831C70.108 337.591 69.934 337.327 69.802 337.039C69.67 336.739 69.604 336.403 69.604 336.031L69.604 335.545L71.746 335.995L71.746 336.625C71.746 337.441 71.92 338.071 72.268 338.515C72.604 338.947 73.138 339.235 73.87 339.379L79 340.405L79 342.583ZM79.216 331.821C79.216 332.925 78.88 333.807 78.208 334.467C77.536 335.127 76.57 335.457 75.31 335.457C74.482 335.457 73.708 335.337 72.988 335.097C72.268 334.857 71.644 334.521 71.116 334.089C70.576 333.657 70.156 333.147 69.856 332.559C69.544 331.971 69.388 331.323 69.388 330.615C69.388 329.511 69.724 328.629 70.396 327.969C71.068 327.309 72.034 326.979 73.294 326.979C74.122 326.979 74.896 327.099 75.616 327.339C76.336 327.579 76.966 327.915 77.506 328.347C78.034 328.779 78.454 329.295 78.766 329.895C79.066 330.483 79.216 331.125 79.216 331.821ZM77.416 331.695C77.416 331.155 77.218 330.699 76.822 330.327C76.426 329.943 75.85 329.679 75.094 329.535L73.528 329.211C73.408 329.187 73.306 329.169 73.222 329.157C73.126 329.145 73.012 329.139 72.88 329.139C72.376 329.139 71.968 329.277 71.656 329.553C71.344 329.817 71.188 330.213 71.188 330.741C71.188 331.281 71.386 331.743 71.782 332.127C72.178 332.499 72.754 332.757 73.51 332.901L75.094 333.225C75.19 333.249 75.286 333.267 75.382 333.279C75.478 333.291 75.592 333.297 75.724 333.297C76.228 333.297 76.636 333.165 76.948 332.901C77.26 332.625 77.416 332.223 77.416 331.695ZM69.604 323.992L69.604 321.814L80.296 323.956C81.064 324.112 81.64 324.4 82.024 324.82C82.408 325.228 82.6 325.84 82.6 326.656L82.6 328.006L80.818 327.646L80.818 326.242L69.604 323.992ZM68.236 322.588C68.236 322.984 68.158 323.272 68.002 323.452C67.846 323.632 67.642 323.722 67.39 323.722C67.21 323.722 66.982 323.692 66.706 323.632C66.406 323.56 66.148 323.422 65.932 323.218C65.704 323.002 65.59 322.636 65.59 322.12C65.59 321.724 65.668 321.436 65.824 321.256C65.98 321.076 66.184 320.986 66.436 320.986C66.616 320.986 66.844 321.016 67.12 321.076C67.42 321.148 67.684 321.292 67.912 321.508C68.128 321.712 68.236 322.072 68.236 322.588ZM79.216 316.963C79.216 318.235 78.862 319.195 78.154 319.843C77.446 320.479 76.462 320.797 75.202 320.797C74.446 320.797 73.72 320.677 73.024 320.437C72.316 320.197 71.692 319.861 71.152 319.429C70.612 318.985 70.186 318.457 69.874 317.845C69.55 317.221 69.388 316.525 69.388 315.757C69.388 315.385 69.436 315.007 69.532 314.623C69.616 314.239 69.76 313.891 69.964 313.579C70.156 313.267 70.42 313.009 70.756 312.805C71.092 312.601 71.5 312.499 71.98 312.499C72.964 312.499 73.732 312.985 74.284 313.957C74.836 314.917 75.136 316.459 75.184 318.583C75.424 318.619 75.598 318.637 75.706 318.637C76.222 318.637 76.636 318.493 76.948 318.205C77.26 317.917 77.416 317.449 77.416 316.801C77.416 316.333 77.314 315.907 77.11 315.523C76.906 315.139 76.552 314.743 76.048 314.335L77.164 312.985C77.92 313.573 78.454 314.191 78.766 314.839C79.066 315.475 79.216 316.183 79.216 316.963ZM71.08 315.901C71.08 316.501 71.278 317.011 71.674 317.431C72.07 317.851 72.61 318.127 73.294 318.259L73.744 318.349C73.708 317.581 73.648 316.957 73.564 316.477C73.468 315.985 73.354 315.607 73.222 315.343C73.09 315.067 72.934 314.881 72.754 314.785C72.574 314.689 72.37 314.641 72.142 314.641C71.926 314.641 71.752 314.683 71.62 314.767C71.476 314.839 71.368 314.935 71.296 315.055C71.212 315.175 71.158 315.313 71.134 315.469C71.098 315.613 71.08 315.757 71.08 315.901ZM79.216 307.968C79.216 308.484 79.138 308.964 78.982 309.408C78.814 309.84 78.568 310.218 78.244 310.542C77.92 310.866 77.506 311.118 77.002 311.298C76.498 311.478 75.904 311.568 75.22 311.568C74.392 311.568 73.624 311.448 72.916 311.208C72.196 310.968 71.578 310.632 71.062 310.2C70.534 309.768 70.126 309.252 69.838 308.652C69.538 308.052 69.388 307.398 69.388 306.69C69.388 305.814 69.604 305.082 70.036 304.494C70.468 303.894 71.038 303.528 71.746 303.396L72.466 305.232C72.07 305.364 71.758 305.538 71.53 305.754C71.302 305.97 71.188 306.324 71.188 306.816C71.188 307.992 71.914 308.718 73.366 308.994L74.932 309.318C75.208 309.378 75.466 309.408 75.706 309.408C76.21 309.408 76.624 309.276 76.948 309.012C77.26 308.748 77.416 308.334 77.416 307.77C77.416 307.302 77.284 306.924 77.02 306.636C76.744 306.336 76.348 306.042 75.832 305.754L76.624 304.08C77.476 304.488 78.124 305.022 78.568 305.682C79 306.33 79.216 307.092 79.216 307.968ZM79 300.315C79 301.611 78.466 302.259 77.398 302.259C77.302 302.259 77.194 302.253 77.074 302.241C76.942 302.229 76.81 302.211 76.678 302.187L71.386 301.125L71.386 302.475L69.604 302.133L69.604 301.467C69.604 301.095 69.532 300.849 69.388 300.729C69.232 300.597 68.992 300.501 68.668 300.441L67.03 300.117L67.03 298.083L69.604 298.587L69.604 296.697L71.386 297.057L71.386 298.947L77.218 300.117L77.218 298.335L79 298.695L79 300.315ZM65.68 294.163L65.68 291.985L71.692 293.173L71.692 293.083C70.948 292.735 70.378 292.321 69.982 291.841C69.586 291.349 69.388 290.743 69.388 290.023C69.388 289.267 69.604 288.697 70.036 288.313C70.468 287.917 71.08 287.719 71.872 287.719C72.076 287.719 72.286 287.737 72.502 287.773C72.706 287.797 72.928 287.833 73.168 287.881L77.218 288.691L77.218 287.647L79 288.007L79 289.519C79 289.951 78.892 290.293 78.676 290.545C78.448 290.797 78.13 290.923 77.722 290.923C77.554 290.923 77.386 290.905 77.218 290.869L73.348 290.095C73.012 290.023 72.682 289.987 72.358 289.987C72.01 289.987 71.74 290.071 71.548 290.239C71.344 290.407 71.242 290.689 71.242 291.085C71.242 291.397 71.32 291.685 71.476 291.949C71.62 292.213 71.818 292.453 72.07 292.669C72.346 292.909 72.652 293.119 72.988 293.299C73.324 293.467 73.678 293.587 74.05 293.659L79 294.649L79 296.827L65.68 294.163ZM79 278.988C79 279.42 78.886 279.774 78.658 280.05C78.43 280.326 78.112 280.464 77.704 280.464C77.608 280.464 77.506 280.458 77.398 280.446C77.29 280.422 77.206 280.404 77.146 280.392L76.858 280.338L76.858 280.428C77.626 280.812 78.214 281.238 78.622 281.706C79.018 282.174 79.216 282.768 79.216 283.488C79.216 283.92 79.138 284.304 78.982 284.64C78.814 284.964 78.58 285.234 78.28 285.45C77.98 285.666 77.626 285.828 77.218 285.936C76.81 286.044 76.354 286.098 75.85 286.098C74.938 286.098 74.092 285.99 73.312 285.774C72.52 285.558 71.836 285.258 71.26 284.874C70.672 284.478 70.216 284.01 69.892 283.47C69.556 282.918 69.388 282.318 69.388 281.67C69.388 281.034 69.556 280.5 69.892 280.068C70.228 279.636 70.666 279.378 71.206 279.294L71.206 279.204L69.604 278.88L69.604 276.702L77.218 278.232L77.218 277.098L79 277.44L79 278.988ZM77.398 282.498C77.398 282.15 77.314 281.838 77.146 281.562C76.966 281.274 76.756 281.028 76.516 280.824C76.252 280.584 75.952 280.386 75.616 280.23C75.268 280.074 74.902 279.954 74.518 279.87L72.916 279.546C72.436 279.45 72.034 279.558 71.71 279.87C71.374 280.17 71.206 280.608 71.206 281.184C71.206 282.42 71.98 283.194 73.528 283.506L74.824 283.758C74.956 283.782 75.118 283.806 75.31 283.83C75.502 283.854 75.67 283.866 75.814 283.866C76.294 283.866 76.678 283.752 76.966 283.524C77.254 283.284 77.398 282.942 77.398 282.498ZM79.216 272.384C79.216 273.14 79.078 273.848 78.802 274.508C78.514 275.156 78.094 275.678 77.542 276.074L76.264 274.688C76.636 274.412 76.924 274.088 77.128 273.716C77.332 273.332 77.434 272.87 77.434 272.33C77.434 271.742 77.314 271.304 77.074 271.016C76.834 270.716 76.54 270.566 76.192 270.566C75.964 270.566 75.766 270.638 75.598 270.782C75.43 270.926 75.316 271.196 75.256 271.592L75.13 272.474C75.01 273.254 74.752 273.866 74.356 274.31C73.96 274.754 73.384 274.976 72.628 274.976C72.196 274.976 71.788 274.904 71.404 274.76C71.008 274.604 70.666 274.37 70.378 274.058C70.078 273.746 69.838 273.356 69.658 272.888C69.478 272.408 69.388 271.85 69.388 271.214C69.388 269.75 69.874 268.622 70.846 267.83L72.124 269.234C71.836 269.462 71.608 269.756 71.44 270.116C71.26 270.464 71.17 270.866 71.17 271.322C71.17 271.826 71.278 272.21 71.494 272.474C71.698 272.726 71.974 272.852 72.322 272.852C72.55 272.852 72.748 272.78 72.916 272.636C73.084 272.492 73.198 272.228 73.258 271.844L73.384 270.962C73.504 270.17 73.762 269.552 74.158 269.108C74.554 268.664 75.13 268.442 75.886 268.442C76.342 268.442 76.774 268.532 77.182 268.712C77.59 268.88 77.944 269.132 78.244 269.468C78.544 269.804 78.784 270.218 78.964 270.71C79.132 271.202 79.216 271.76 79.216 272.384ZM79.216 262.875C79.216 264.147 78.862 265.107 78.154 265.755C77.446 266.391 76.462 266.709 75.202 266.709C74.446 266.709 73.72 266.589 73.024 266.349C72.316 266.109 71.692 265.773 71.152 265.341C70.612 264.897 70.186 264.369 69.874 263.757C69.55 263.133 69.388 262.437 69.388 261.669C69.388 261.297 69.436 260.919 69.532 260.535C69.616 260.151 69.76 259.803 69.964 259.491C70.156 259.179 70.42 258.921 70.756 258.717C71.092 258.513 71.5 258.411 71.98 258.411C72.964 258.411 73.732 258.897 74.284 259.869C74.836 260.829 75.136 262.371 75.184 264.495C75.424 264.531 75.598 264.549 75.706 264.549C76.222 264.549 76.636 264.405 76.948 264.117C77.26 263.829 77.416 263.361 77.416 262.713C77.416 262.245 77.314 261.819 77.11 261.435C76.906 261.051 76.552 260.655 76.048 260.247L77.164 258.897C77.92 259.485 78.454 260.103 78.766 260.751C79.066 261.387 79.216 262.095 79.216 262.875ZM71.08 261.813C71.08 262.413 71.278 262.923 71.674 263.343C72.07 263.763 72.61 264.039 73.294 264.171L73.744 264.261C73.708 263.493 73.648 262.869 73.564 262.389C73.468 261.897 73.354 261.519 73.222 261.255C73.09 260.979 72.934 260.793 72.754 260.697C72.574 260.601 72.37 260.553 72.142 260.553C71.926 260.553 71.752 260.595 71.62 260.679C71.476 260.751 71.368 260.847 71.296 260.967C71.212 261.087 71.158 261.225 71.134 261.381C71.098 261.525 71.08 261.669 71.08 261.813ZM75.13 252.705C74.062 252.705 73.042 252.567 72.07 252.291C71.098 252.003 70.192 251.619 69.352 251.139C68.512 250.659 67.75 250.107 67.066 249.483C66.382 248.859 65.8 248.211 65.32 247.539L65.32 245.217C65.788 245.829 66.292 246.417 66.832 246.981C67.372 247.533 67.942 248.037 68.542 248.493C69.142 248.937 69.766 249.315 70.414 249.627C71.05 249.939 71.704 250.161 72.376 250.293L74.104 250.653C74.308 250.689 74.5 250.713 74.68 250.725C74.848 250.737 75.01 250.743 75.166 250.743C76.438 250.743 77.602 250.533 78.658 250.113C79.714 249.693 80.656 249.135 81.484 248.439L81.484 250.473C81.136 250.773 80.728 251.061 80.26 251.337C79.804 251.601 79.306 251.835 78.766 252.039C78.226 252.243 77.65 252.405 77.038 252.525C76.426 252.645 75.79 252.705 75.13 252.705ZM79 238.976L79 247.328L76.822 246.896L73.366 242.342C72.79 241.562 72.256 240.998 71.764 240.65C71.272 240.29 70.798 240.062 70.342 239.966C70.162 239.93 69.964 239.912 69.748 239.912C69.328 239.912 68.968 240.044 68.668 240.308C68.356 240.572 68.2 240.968 68.2 241.496C68.2 242.084 68.386 242.57 68.758 242.954C69.118 243.326 69.568 243.626 70.108 243.854L69.316 245.78C68.872 245.576 68.458 245.336 68.074 245.06C67.69 244.784 67.366 244.466 67.102 244.106C66.826 243.734 66.61 243.32 66.454 242.864C66.298 242.396 66.22 241.874 66.22 241.298C66.22 240.71 66.304 240.182 66.472 239.714C66.64 239.246 66.874 238.85 67.174 238.526C67.462 238.19 67.816 237.938 68.236 237.77C68.644 237.59 69.094 237.5 69.586 237.5C70.126 237.5 70.624 237.59 71.08 237.77C71.524 237.938 71.956 238.184 72.376 238.508C72.784 238.832 73.186 239.228 73.582 239.696C73.966 240.164 74.374 240.686 74.806 241.262L77.074 244.34L77.074 238.598L79 238.976ZM68.434 226.761L68.434 232.215L72.736 233.313L72.736 233.151C72.136 232.815 71.686 232.443 71.386 232.035C71.074 231.615 70.918 231.045 70.918 230.325C70.918 229.389 71.212 228.633 71.8 228.057C72.388 227.481 73.228 227.193 74.32 227.193C74.956 227.193 75.568 227.307 76.156 227.535C76.744 227.751 77.266 228.075 77.722 228.507C78.178 228.939 78.544 229.467 78.82 230.091C79.084 230.715 79.216 231.429 79.216 232.233C79.216 232.845 79.15 233.379 79.018 233.835C78.886 234.291 78.712 234.681 78.496 235.005C78.28 235.329 78.034 235.599 77.758 235.815C77.47 236.019 77.17 236.181 76.858 236.301L75.67 234.483C76.15 234.315 76.546 234.045 76.858 233.673C77.158 233.301 77.308 232.779 77.308 232.107C77.308 231.423 77.122 230.883 76.75 230.487C76.366 230.091 75.85 229.827 75.202 229.695C75.07 229.671 74.944 229.653 74.824 229.641C74.692 229.617 74.56 229.605 74.428 229.605C73.912 229.605 73.51 229.755 73.222 230.055C72.934 230.343 72.79 230.775 72.79 231.351C72.79 231.843 72.892 232.263 73.096 232.611C73.288 232.947 73.516 233.241 73.78 233.493L73.528 235.275L66.436 233.475L66.436 226.365L68.434 226.761ZM66.436 212.236L75.616 214.072C76.732 214.3 77.614 214.756 78.262 215.44C78.898 216.124 79.216 217.042 79.216 218.194C79.216 218.758 79.132 219.256 78.964 219.688C78.796 220.108 78.568 220.468 78.28 220.768C77.98 221.056 77.632 221.284 77.236 221.452C76.828 221.62 76.384 221.722 75.904 221.758L75.472 219.598C75.988 219.562 76.408 219.442 76.732 219.238C77.044 219.022 77.2 218.668 77.2 218.176C77.2 217.684 77.05 217.282 76.75 216.97C76.438 216.646 75.964 216.418 75.328 216.286L68.326 214.882L68.326 218.716L66.436 218.338L66.436 212.236ZM69.604 208.053L75.256 209.187C75.604 209.259 75.922 209.295 76.21 209.295C76.57 209.295 76.852 209.217 77.056 209.061C77.26 208.893 77.362 208.629 77.362 208.269C77.362 207.957 77.29 207.675 77.146 207.423C76.99 207.159 76.786 206.919 76.534 206.703C75.958 206.199 75.298 205.875 74.554 205.731L69.604 204.741L69.604 202.563L77.218 204.093L77.218 202.959L79 203.301L79 204.849C79 205.281 78.886 205.635 78.658 205.911C78.43 206.175 78.106 206.307 77.686 206.307C77.59 206.307 77.494 206.301 77.398 206.289C77.302 206.277 77.218 206.265 77.146 206.253L76.912 206.199L76.912 206.307C77.644 206.655 78.214 207.063 78.622 207.531C79.018 207.999 79.216 208.581 79.216 209.277C79.216 210.021 79 210.585 78.568 210.969C78.136 211.353 77.524 211.545 76.732 211.545C76.516 211.545 76.306 211.533 76.102 211.509C75.886 211.485 75.658 211.449 75.418 211.401L69.604 210.231L69.604 208.053ZM79 199.806C79 200.274 78.88 200.646 78.64 200.922C78.388 201.186 78.058 201.318 77.65 201.318C77.578 201.318 77.518 201.318 77.47 201.318C77.41 201.306 77.326 201.288 77.218 201.264L65.68 198.96L65.68 196.782L77.218 199.086L77.218 197.88L79 198.222L79 199.806ZM69.604 189.627L69.604 187.305L80.692 193.245C81.016 193.413 81.298 193.593 81.538 193.785C81.778 193.965 81.976 194.169 82.132 194.397C82.288 194.625 82.402 194.889 82.474 195.189C82.558 195.477 82.6 195.813 82.6 196.197L82.6 197.601L80.818 197.259L80.818 195.531L79.468 194.829L69.604 196.197L69.604 194.037L73.456 193.587L76.948 193.263L76.948 193.173L73.456 191.553L69.604 189.627ZM74.59 182.908L72.448 182.476L72.448 177.4L74.59 177.832L74.59 182.908ZM79 170.417L68.326 164.027L68.326 168.293L70.648 168.761L70.648 170.687L66.436 169.841L66.436 161.381L68.452 161.777L79 168.005L79 170.417ZM72.502 152.077L69.856 152.905L69.856 152.995L79 154.831L79 156.991L66.436 154.471L66.436 151.987L72.934 149.737L75.58 148.909L75.58 148.819L66.436 146.983L66.436 144.823L79 147.343L79 149.827L72.502 152.077ZM79.216 140.659C79.216 141.763 78.88 142.645 78.208 143.305C77.536 143.965 76.57 144.295 75.31 144.295C74.482 144.295 73.708 144.175 72.988 143.935C72.268 143.695 71.644 143.359 71.116 142.927C70.576 142.495 70.156 141.985 69.856 141.397C69.544 140.809 69.388 140.161 69.388 139.453C69.388 138.349 69.724 137.467 70.396 136.807C71.068 136.147 72.034 135.817 73.294 135.817C74.122 135.817 74.896 135.937 75.616 136.177C76.336 136.417 76.966 136.753 77.506 137.185C78.034 137.617 78.454 138.133 78.766 138.733C79.066 139.321 79.216 139.963 79.216 140.659ZM77.416 140.533C77.416 139.993 77.218 139.537 76.822 139.165C76.426 138.781 75.85 138.517 75.094 138.373L73.528 138.049C73.408 138.025 73.306 138.007 73.222 137.995C73.126 137.983 73.012 137.977 72.88 137.977C72.376 137.977 71.968 138.115 71.656 138.391C71.344 138.655 71.188 139.051 71.188 139.579C71.188 140.119 71.386 140.581 71.782 140.965C72.178 141.337 72.754 141.595 73.51 141.739L75.094 142.063C75.19 142.087 75.286 142.105 75.382 142.117C75.478 142.129 75.592 142.135 75.724 142.135C76.228 142.135 76.636 142.003 76.948 141.739C77.26 141.463 77.416 141.061 77.416 140.533ZM79 133.203L69.604 134.445L69.604 132.285L73.456 131.871L77.02 131.565L77.02 131.457L73.456 129.837L69.604 127.929L69.604 125.589L79 130.557L79 133.203ZM79.216 121.969C79.216 123.241 78.862 124.201 78.154 124.849C77.446 125.485 76.462 125.803 75.202 125.803C74.446 125.803 73.72 125.683 73.024 125.443C72.316 125.203 71.692 124.867 71.152 124.435C70.612 123.991 70.186 123.463 69.874 122.851C69.55 122.227 69.388 121.531 69.388 120.763C69.388 120.391 69.436 120.013 69.532 119.629C69.616 119.245 69.76 118.897 69.964 118.585C70.156 118.273 70.42 118.015 70.756 117.811C71.092 117.607 71.5 117.505 71.98 117.505C72.964 117.505 73.732 117.991 74.284 118.963C74.836 119.923 75.136 121.465 75.184 123.589C75.424 123.625 75.598 123.643 75.706 123.643C76.222 123.643 76.636 123.499 76.948 123.211C77.26 122.923 77.416 122.455 77.416 121.807C77.416 121.339 77.314 120.913 77.11 120.529C76.906 120.145 76.552 119.749 76.048 119.341L77.164 117.991C77.92 118.579 78.454 119.197 78.766 119.845C79.066 120.481 79.216 121.189 79.216 121.969ZM71.08 120.907C71.08 121.507 71.278 122.017 71.674 122.437C72.07 122.857 72.61 123.133 73.294 123.265L73.744 123.355C73.708 122.587 73.648 121.963 73.564 121.483C73.468 120.991 73.354 120.613 73.222 120.349C73.09 120.073 72.934 119.887 72.754 119.791C72.574 119.695 72.37 119.647 72.142 119.647C71.926 119.647 71.752 119.689 71.62 119.773C71.476 119.845 71.368 119.941 71.296 120.061C71.212 120.181 71.158 120.319 71.134 120.475C71.098 120.619 71.08 120.763 71.08 120.907ZM79 116.862L69.604 114.972L69.604 112.794L71.692 113.208L71.692 113.118C70.96 112.77 70.396 112.368 70 111.912C69.592 111.444 69.388 110.85 69.388 110.13C69.388 109.446 69.592 108.918 70 108.546C70.408 108.174 70.972 107.976 71.692 107.952L71.692 107.862C70.984 107.514 70.426 107.1 70.018 106.62C69.598 106.14 69.388 105.528 69.388 104.784C69.388 104.064 69.604 103.518 70.036 103.146C70.468 102.774 71.062 102.588 71.818 102.588C72.07 102.588 72.322 102.606 72.574 102.642C72.814 102.666 73.066 102.708 73.33 102.768L77.218 103.542L77.218 102.498L79 102.858L79 104.37C79 104.802 78.892 105.144 78.676 105.396C78.448 105.648 78.13 105.774 77.722 105.774C77.554 105.774 77.386 105.756 77.218 105.72L73.348 104.946C73.168 104.91 72.994 104.88 72.826 104.856C72.658 104.832 72.502 104.82 72.358 104.82C72.01 104.82 71.74 104.898 71.548 105.054C71.344 105.21 71.242 105.462 71.242 105.81C71.242 106.086 71.32 106.356 71.476 106.62C71.62 106.872 71.812 107.1 72.052 107.304C72.328 107.544 72.646 107.754 73.006 107.934C73.354 108.102 73.702 108.216 74.05 108.276L79 109.266L79 111.444L73.348 110.31C73.18 110.274 73.012 110.244 72.844 110.22C72.664 110.196 72.502 110.184 72.358 110.184C72.01 110.184 71.74 110.262 71.548 110.418C71.344 110.574 71.242 110.826 71.242 111.174C71.242 111.486 71.32 111.768 71.476 112.02C71.632 112.272 71.83 112.5 72.07 112.704C72.346 112.944 72.658 113.154 73.006 113.334C73.342 113.502 73.69 113.622 74.05 113.694L79 114.684L79 116.862ZM65.68 98.5537L65.68 96.3757L71.746 97.5817L71.746 97.4917C70.978 97.1077 70.396 96.6817 70 96.2137C69.592 95.7457 69.388 95.1517 69.388 94.4317C69.388 93.9997 69.472 93.6217 69.64 93.2977C69.808 92.9617 70.042 92.6857 70.342 92.4697C70.63 92.2537 70.984 92.0917 71.404 91.9837C71.812 91.8757 72.262 91.8217 72.754 91.8217C73.666 91.8217 74.518 91.9297 75.31 92.1457C76.09 92.3617 76.774 92.6677 77.362 93.0637C77.938 93.4477 78.394 93.9157 78.73 94.4677C79.054 95.0077 79.216 95.6017 79.216 96.2497C79.216 96.8857 79.048 97.4197 78.712 97.8517C78.376 98.2837 77.938 98.5417 77.398 98.6257L77.398 98.7157L79 99.0397L79 101.218L65.68 98.5537ZM77.398 96.7357C77.398 95.4997 76.624 94.7257 75.076 94.4137L73.78 94.1617C73.648 94.1377 73.486 94.1137 73.294 94.0897C73.102 94.0657 72.934 94.0537 72.79 94.0537C72.31 94.0537 71.926 94.1737 71.638 94.4137C71.35 94.6417 71.206 94.9777 71.206 95.4217C71.206 95.7697 71.296 96.0877 71.476 96.3757C71.644 96.6517 71.848 96.8917 72.088 97.0957C72.352 97.3357 72.658 97.5337 73.006 97.6897C73.342 97.8457 73.702 97.9657 74.086 98.0497L75.688 98.3737C76.168 98.4697 76.576 98.3677 76.912 98.0677C77.236 97.7557 77.398 97.3117 77.398 96.7357ZM79.216 86.6543C79.216 87.9263 78.862 88.8863 78.154 89.5343C77.446 90.1703 76.462 90.4883 75.202 90.4883C74.446 90.4883 73.72 90.3683 73.024 90.1283C72.316 89.8883 71.692 89.5523 71.152 89.1203C70.612 88.6763 70.186 88.1483 69.874 87.5363C69.55 86.9123 69.388 86.2163 69.388 85.4483C69.388 85.0763 69.436 84.6983 69.532 84.3143C69.616 83.9303 69.76 83.5823 69.964 83.2703C70.156 82.9583 70.42 82.7003 70.756 82.4963C71.092 82.2923 71.5 82.1903 71.98 82.1903C72.964 82.1903 73.732 82.6763 74.284 83.6483C74.836 84.6083 75.136 86.1503 75.184 88.2743C75.424 88.3103 75.598 88.3283 75.706 88.3283C76.222 88.3283 76.636 88.1843 76.948 87.8963C77.26 87.6083 77.416 87.1403 77.416 86.4923C77.416 86.0243 77.314 85.5983 77.11 85.2143C76.906 84.8303 76.552 84.4343 76.048 84.0263L77.164 82.6763C77.92 83.2643 78.454 83.8823 78.766 84.5303C79.066 85.1663 79.216 85.8743 79.216 86.6543ZM71.08 85.5923C71.08 86.1923 71.278 86.7023 71.674 87.1223C72.07 87.5423 72.61 87.8183 73.294 87.9503L73.744 88.0403C73.708 87.2723 73.648 86.6483 73.564 86.1683C73.468 85.6763 73.354 85.2983 73.222 85.0343C73.09 84.7583 72.934 84.5723 72.754 84.4763C72.574 84.3803 72.37 84.3323 72.142 84.3323C71.926 84.3323 71.752 84.3743 71.62 84.4583C71.476 84.5303 71.368 84.6263 71.296 84.7463C71.212 84.8663 71.158 85.0043 71.134 85.1603C71.098 85.3043 71.08 85.4483 71.08 85.5923ZM79 81.5478L69.604 79.6578L69.604 77.4798L71.764 77.9118L71.764 77.8038C71.512 77.6958 71.26 77.5578 71.008 77.3898C70.756 77.2218 70.528 77.0238 70.324 76.7958C70.108 76.5558 69.934 76.2918 69.802 76.0038C69.67 75.7038 69.604 75.3678 69.604 74.9958L69.604 74.5098L71.746 74.9598L71.746 75.5898C71.746 76.4058 71.92 77.0358 72.268 77.4798C72.604 77.9118 73.138 78.1998 73.87 78.3438L79 79.3698L79 81.5478ZM71.674 69.528C72.742 69.528 73.762 69.672 74.734 69.96C75.706 70.236 76.612 70.614 77.452 71.094C78.292 71.574 79.054 72.126 79.738 72.75C80.422 73.374 81.004 74.022 81.484 74.694L81.484 77.016C81.016 76.404 80.512 75.816 79.972 75.252C79.432 74.7 78.862 74.202 78.262 73.758C77.662 73.302 77.044 72.918 76.408 72.606C75.76 72.294 75.1 72.072 74.428 71.94L72.7 71.58C72.496 71.544 72.31 71.52 72.142 71.508C71.962 71.496 71.794 71.49 71.638 71.49C70.366 71.49 69.202 71.7 68.146 72.12C67.09 72.54 66.148 73.098 65.32 73.794L65.32 71.76C65.668 71.46 66.076 71.178 66.544 70.914C67 70.638 67.498 70.398 68.038 70.194C68.578 69.99 69.154 69.828 69.766 69.708C70.378 69.588 71.014 69.528 71.674 69.528Z" fill="white"/>
</svg>
