<svg width="80" height="344" viewBox="0 0 80 344" fill="none" xmlns="http://www.w3.org/2000/svg">
<path d="M56 343.92L56 302.48L38.88 299.76L38.88 301.76L54 312.96L54 323.76L2.8 316L2 312.64L-5.19947e-06 312.32L-4.17838e-06 335.68L2 336L2.8 332.8L53.2 340.4L54 343.6L56 343.92ZM56 299.311L56 255.471L39.28 252.831L39.28 254.831L54 263.551L54 279.151L27.6 275.151L27.6 269.551L38.16 266.031L38.16 264.431L27.12 262.671L14.96 260.751L14.96 262.351L25.6 269.231L25.6 274.831L2 271.311L2 257.791L16 253.071L16 251.071L-7.98867e-06 248.511L-6.12831e-06 291.071L2 291.391L2.8 288.191L53.2 295.791L54 298.991L56 299.311ZM53.68 216.955L2.79999 195.355L1.99999 191.755L-1.04835e-05 191.435L-9.9415e-06 203.835L1.99999 204.155L2.79999 198.555L46.48 216.795L2.79999 224.715L1.99999 219.115L-9.28758e-06 218.795L-8.14059e-06 245.035L1.99999 245.355L2.79999 242.155L57.04 232.155L53.68 216.955ZM56 197.123L56 153.283L39.28 150.643L39.28 152.643L54 161.363L54 176.963L27.6 172.963L27.6 167.363L38.16 163.843L38.16 162.243L27.12 160.483L14.96 158.563L14.96 160.163L25.6 167.043L25.6 172.643L1.99999 169.123L1.99999 155.603L16 150.883L16 148.883L-1.24554e-05 146.323L-1.05951e-05 188.883L1.99999 189.203L2.79999 186.003L53.2 193.603L54 196.803L56 197.123ZM56 148.607L56 107.167L38.88 104.447L38.88 106.447L54 117.647L54 128.447L2.79999 120.687L1.99999 117.327L-1.37369e-05 117.007L-1.27158e-05 140.367L1.99999 140.687L2.79999 137.487L53.2 145.087L54 148.287L56 148.607ZM56 84.7794L56 51.0994L54 50.7794L53.2 59.5794L16.72 53.0994L16.72 55.8994L26.48 82.0594L28.48 81.5794L25.52 70.6194L53.2 75.4994L54 84.4594L56 84.7794ZM36.24 1.33499L31.04 0.214995L31.04 24.615L36.24 25.735L36.24 1.33499ZM73.69 335.072L73.69 340.184L79 341.246L79 343.514L66.436 340.994L66.436 338.726L71.674 339.77L71.674 334.658L66.436 333.614L66.436 331.346L79 333.866L79 336.134L73.69 335.072ZM79 323.708C79 324.14 78.886 324.494 78.658 324.77C78.43 325.046 78.112 325.184 77.704 325.184C77.608 325.184 77.506 325.178 77.398 325.166C77.29 325.142 77.206 325.124 77.146 325.112L76.858 325.058L76.858 325.148C77.626 325.532 78.214 325.958 78.622 326.426C79.018 326.894 79.216 327.488 79.216 328.208C79.216 328.64 79.138 329.024 78.982 329.36C78.814 329.684 78.58 329.954 78.28 330.17C77.98 330.386 77.626 330.548 77.218 330.656C76.81 330.764 76.354 330.818 75.85 330.818C74.938 330.818 74.092 330.71 73.312 330.494C72.52 330.278 71.836 329.978 71.26 329.594C70.672 329.198 70.216 328.73 69.892 328.19C69.556 327.638 69.388 327.038 69.388 326.39C69.388 325.754 69.556 325.22 69.892 324.788C70.228 324.356 70.666 324.098 71.206 324.014L71.206 323.924L69.604 323.6L69.604 321.422L77.218 322.952L77.218 321.818L79 322.16L79 323.708ZM77.398 327.218C77.398 326.87 77.314 326.558 77.146 326.282C76.966 325.994 76.756 325.748 76.516 325.544C76.252 325.304 75.952 325.106 75.616 324.95C75.268 324.794 74.902 324.674 74.518 324.59L72.916 324.266C72.436 324.17 72.034 324.278 71.71 324.59C71.374 324.89 71.206 325.328 71.206 325.904C71.206 327.14 71.98 327.914 73.528 328.226L74.824 328.478C74.956 328.502 75.118 328.526 75.31 328.55C75.502 328.574 75.67 328.586 75.814 328.586C76.294 328.586 76.678 328.472 76.966 328.244C77.254 328.004 77.398 327.662 77.398 327.218ZM79.216 316.636C79.216 317.152 79.138 317.632 78.982 318.076C78.814 318.508 78.568 318.886 78.244 319.21C77.92 319.534 77.506 319.786 77.002 319.966C76.498 320.146 75.904 320.236 75.22 320.236C74.392 320.236 73.624 320.116 72.916 319.876C72.196 319.636 71.578 319.3 71.062 318.868C70.534 318.436 70.126 317.92 69.838 317.32C69.538 316.72 69.388 316.066 69.388 315.358C69.388 314.482 69.604 313.75 70.036 313.162C70.468 312.562 71.038 312.196 71.746 312.064L72.466 313.9C72.07 314.032 71.758 314.206 71.53 314.422C71.302 314.638 71.188 314.992 71.188 315.484C71.188 316.66 71.914 317.386 73.366 317.662L74.932 317.986C75.208 318.046 75.466 318.076 75.706 318.076C76.21 318.076 76.624 317.944 76.948 317.68C77.26 317.416 77.416 317.002 77.416 316.438C77.416 315.97 77.284 315.592 77.02 315.304C76.744 315.004 76.348 314.71 75.832 314.422L76.624 312.748C77.476 313.156 78.124 313.69 78.568 314.35C79 314.998 79.216 315.76 79.216 316.636ZM65.68 309.001L65.68 306.823L73.654 308.407L73.654 308.299L72.052 306.895L69.604 304.375L69.604 301.819L73.402 305.743L77.218 304.267L77.218 303.169L79 303.529L79 304.699C79 305.539 78.568 306.109 77.704 306.409L74.86 307.453L76.264 308.947L79 309.487L79 311.665L65.68 309.001ZM79 294.845C79 295.277 78.886 295.631 78.658 295.907C78.43 296.183 78.112 296.321 77.704 296.321C77.608 296.321 77.506 296.315 77.398 296.303C77.29 296.279 77.206 296.261 77.146 296.249L76.858 296.195L76.858 296.285C77.626 296.669 78.214 297.095 78.622 297.563C79.018 298.031 79.216 298.625 79.216 299.345C79.216 299.777 79.138 300.161 78.982 300.497C78.814 300.821 78.58 301.091 78.28 301.307C77.98 301.523 77.626 301.685 77.218 301.793C76.81 301.901 76.354 301.955 75.85 301.955C74.938 301.955 74.092 301.847 73.312 301.631C72.52 301.415 71.836 301.115 71.26 300.731C70.672 300.335 70.216 299.867 69.892 299.327C69.556 298.775 69.388 298.175 69.388 297.527C69.388 296.891 69.556 296.357 69.892 295.925C70.228 295.493 70.666 295.235 71.206 295.151L71.206 295.061L69.604 294.737L69.604 292.559L77.218 294.089L77.218 292.955L79 293.297L79 294.845ZM77.398 298.355C77.398 298.007 77.314 297.695 77.146 297.419C76.966 297.131 76.756 296.885 76.516 296.681C76.252 296.441 75.952 296.243 75.616 296.087C75.268 295.931 74.902 295.811 74.518 295.727L72.916 295.403C72.436 295.307 72.034 295.415 71.71 295.727C71.374 296.027 71.206 296.465 71.206 297.041C71.206 298.277 71.98 299.051 73.528 299.363L74.824 299.615C74.956 299.639 75.118 299.663 75.31 299.687C75.502 299.711 75.67 299.723 75.814 299.723C76.294 299.723 76.678 299.609 76.966 299.381C77.254 299.141 77.398 298.799 77.398 298.355ZM79 288.979C79 290.275 78.466 290.923 77.398 290.923C77.302 290.923 77.194 290.917 77.074 290.905C76.942 290.893 76.81 290.875 76.678 290.851L71.386 289.789L71.386 291.139L69.604 290.797L69.604 290.131C69.604 289.759 69.532 289.513 69.388 289.393C69.232 289.261 68.992 289.165 68.668 289.105L67.03 288.781L67.03 286.747L69.604 287.251L69.604 285.361L71.386 285.721L71.386 287.611L77.218 288.781L77.218 286.999L79 287.359L79 288.979ZM65.68 282.827L65.68 280.649L71.692 281.837L71.692 281.747C70.948 281.399 70.378 280.985 69.982 280.505C69.586 280.013 69.388 279.407 69.388 278.687C69.388 277.931 69.604 277.361 70.036 276.977C70.468 276.581 71.08 276.383 71.872 276.383C72.076 276.383 72.286 276.401 72.502 276.437C72.706 276.461 72.928 276.497 73.168 276.545L77.218 277.355L77.218 276.311L79 276.671L79 278.183C79 278.615 78.892 278.957 78.676 279.209C78.448 279.461 78.13 279.587 77.722 279.587C77.554 279.587 77.386 279.569 77.218 279.533L73.348 278.759C73.012 278.687 72.682 278.651 72.358 278.651C72.01 278.651 71.74 278.735 71.548 278.903C71.344 279.071 71.242 279.353 71.242 279.749C71.242 280.061 71.32 280.349 71.476 280.613C71.62 280.877 71.818 281.117 72.07 281.333C72.346 281.573 72.652 281.783 72.988 281.963C73.324 282.131 73.678 282.251 74.05 282.323L79 283.313L79 285.491L65.68 282.827ZM79.216 271.126C79.216 272.23 78.88 273.112 78.208 273.772C77.536 274.432 76.57 274.762 75.31 274.762C74.482 274.762 73.708 274.642 72.988 274.402C72.268 274.162 71.644 273.826 71.116 273.394C70.576 272.962 70.156 272.452 69.856 271.864C69.544 271.276 69.388 270.628 69.388 269.92C69.388 268.816 69.724 267.934 70.396 267.274C71.068 266.614 72.034 266.284 73.294 266.284C74.122 266.284 74.896 266.404 75.616 266.644C76.336 266.884 76.966 267.22 77.506 267.652C78.034 268.084 78.454 268.6 78.766 269.2C79.066 269.788 79.216 270.43 79.216 271.126ZM77.416 271C77.416 270.46 77.218 270.004 76.822 269.632C76.426 269.248 75.85 268.984 75.094 268.84L73.528 268.516C73.408 268.492 73.306 268.474 73.222 268.462C73.126 268.45 73.012 268.444 72.88 268.444C72.376 268.444 71.968 268.582 71.656 268.858C71.344 269.122 71.188 269.518 71.188 270.046C71.188 270.586 71.386 271.048 71.782 271.432C72.178 271.804 72.754 272.062 73.51 272.206L75.094 272.53C75.19 272.554 75.286 272.572 75.382 272.584C75.478 272.596 75.592 272.602 75.724 272.602C76.228 272.602 76.636 272.47 76.948 272.206C77.26 271.93 77.416 271.528 77.416 271ZM79 265.241L69.604 263.351L69.604 261.173L71.692 261.587L71.692 261.497C70.948 261.149 70.378 260.735 69.982 260.255C69.586 259.763 69.388 259.157 69.388 258.437C69.388 257.681 69.604 257.111 70.036 256.727C70.468 256.331 71.08 256.133 71.872 256.133C72.076 256.133 72.286 256.151 72.502 256.187C72.706 256.211 72.928 256.247 73.168 256.295L77.218 257.105L77.218 256.061L79 256.421L79 257.933C79 258.365 78.892 258.707 78.676 258.959C78.448 259.211 78.13 259.337 77.722 259.337C77.554 259.337 77.386 259.319 77.218 259.283L73.348 258.509C73.012 258.437 72.682 258.401 72.358 258.401C72.01 258.401 71.74 258.485 71.548 258.653C71.344 258.821 71.242 259.103 71.242 259.499C71.242 259.811 71.32 260.099 71.476 260.363C71.62 260.627 71.818 260.867 72.07 261.083C72.346 261.323 72.652 261.533 72.988 261.713C73.324 261.881 73.678 262.001 74.05 262.073L79 263.063L79 265.241Z" fill="#6930C3"/>
</svg>
