<svg width="83" height="354" viewBox="0 0 83 354" fill="none" xmlns="http://www.w3.org/2000/svg">
<path d="M56 353.92L56 312.48L38.88 309.76L38.88 311.76L54 322.96L54 333.76L2.8 326L2 322.64L-5.19947e-06 322.32L-4.17838e-06 345.68L2 346L2.8 342.8L53.2 350.4L54 353.6L56 353.92ZM56 309.311L56 265.471L39.28 262.831L39.28 264.831L54 273.551L54 289.151L27.6 285.151L27.6 279.551L38.16 276.031L38.16 274.431L27.12 272.671L14.96 270.751L14.96 272.351L25.6 279.231L25.6 284.831L2 281.311L2 267.791L16 263.071L16 261.071L-7.98867e-06 258.511L-6.12831e-06 301.071L2 301.391L2.8 298.191L53.2 305.791L54 308.991L56 309.311ZM53.68 226.955L2.79999 205.355L1.99999 201.755L-1.04835e-05 201.435L-9.9415e-06 213.835L1.99999 214.155L2.79999 208.555L46.48 226.795L2.79999 234.715L1.99999 229.115L-9.28758e-06 228.795L-8.14059e-06 255.035L1.99999 255.355L2.79999 252.155L57.04 242.155L53.68 226.955ZM56 207.123L56 163.283L39.28 160.643L39.28 162.643L54 171.363L54 186.963L27.6 182.963L27.6 177.363L38.16 173.843L38.16 172.243L27.12 170.483L14.96 168.563L14.96 170.163L25.6 177.043L25.6 182.643L1.99999 179.123L1.99999 165.603L16 160.883L16 158.883L-1.24554e-05 156.323L-1.05951e-05 198.883L1.99999 199.203L2.79999 196.003L53.2 203.603L54 206.803L56 207.123ZM56 158.607L56 117.167L38.88 114.447L38.88 116.447L54 127.647L54 138.447L2.79999 130.687L1.99999 127.327L-1.37369e-05 127.007L-1.27158e-05 150.367L1.99999 150.687L2.79999 147.487L53.2 155.087L54 158.287L56 158.607ZM56 56.3794L46.4 50.8594L44.4 50.8594L44.4 80.2994L41.6 71.7394C38.72 63.0194 34.4 50.2994 24.96 50.2994C19.92 50.2994 16 54.6194 16 65.3394L23.04 88.0594L33.76 88.6194L33.76 78.9394L19.6 72.0594L19.44 71.1794C19.44 68.7794 21.52 66.5394 24.96 66.5394C31.04 66.5394 37.68 73.3394 42.24 79.5794L54.24 96.0594L56 95.3394L56 56.3794ZM36.24 1.6475L31.04 0.527496L31.04 24.9275L36.24 26.0475L36.24 1.6475ZM79 353.514L66.436 350.994L66.436 346.332C66.436 345.12 66.73 344.202 67.318 343.578C67.894 342.942 68.686 342.624 69.694 342.624C70.354 342.624 70.96 342.738 71.512 342.966C72.064 343.194 72.538 343.518 72.934 343.938C73.33 344.346 73.642 344.838 73.87 345.414C74.086 345.978 74.194 346.608 74.194 347.304L74.194 350.274L79 351.246L79 353.514ZM72.178 349.878L72.178 346.998C72.178 346.542 72.058 346.152 71.818 345.828C71.578 345.492 71.212 345.276 70.72 345.18C70.408 345.12 70.162 345.072 69.982 345.036C69.802 344.988 69.658 344.964 69.55 344.964C69.238 344.964 68.98 345.072 68.776 345.288C68.56 345.492 68.452 345.828 68.452 346.296L68.452 349.122L72.178 349.878ZM79 342.583L69.604 340.693L69.604 338.515L71.764 338.947L71.764 338.839C71.512 338.731 71.26 338.593 71.008 338.425C70.756 338.257 70.528 338.059 70.324 337.831C70.108 337.591 69.934 337.327 69.802 337.039C69.67 336.739 69.604 336.403 69.604 336.031L69.604 335.545L71.746 335.995L71.746 336.625C71.746 337.441 71.92 338.071 72.268 338.515C72.604 338.947 73.138 339.235 73.87 339.379L79 340.405L79 342.583ZM79.216 331.821C79.216 332.925 78.88 333.807 78.208 334.467C77.536 335.127 76.57 335.457 75.31 335.457C74.482 335.457 73.708 335.337 72.988 335.097C72.268 334.857 71.644 334.521 71.116 334.089C70.576 333.657 70.156 333.147 69.856 332.559C69.544 331.971 69.388 331.323 69.388 330.615C69.388 329.511 69.724 328.629 70.396 327.969C71.068 327.309 72.034 326.979 73.294 326.979C74.122 326.979 74.896 327.099 75.616 327.339C76.336 327.579 76.966 327.915 77.506 328.347C78.034 328.779 78.454 329.295 78.766 329.895C79.066 330.483 79.216 331.125 79.216 331.821ZM77.416 331.695C77.416 331.155 77.218 330.699 76.822 330.327C76.426 329.943 75.85 329.679 75.094 329.535L73.528 329.211C73.408 329.187 73.306 329.169 73.222 329.157C73.126 329.145 73.012 329.139 72.88 329.139C72.376 329.139 71.968 329.277 71.656 329.553C71.344 329.817 71.188 330.213 71.188 330.741C71.188 331.281 71.386 331.743 71.782 332.127C72.178 332.499 72.754 332.757 73.51 332.901L75.094 333.225C75.19 333.249 75.286 333.267 75.382 333.279C75.478 333.291 75.592 333.297 75.724 333.297C76.228 333.297 76.636 333.165 76.948 332.901C77.26 332.625 77.416 332.223 77.416 331.695ZM69.604 323.992L69.604 321.814L80.296 323.956C81.064 324.112 81.64 324.4 82.024 324.82C82.408 325.228 82.6 325.84 82.6 326.656L82.6 328.006L80.818 327.646L80.818 326.242L69.604 323.992ZM68.236 322.588C68.236 322.984 68.158 323.272 68.002 323.452C67.846 323.632 67.642 323.722 67.39 323.722C67.21 323.722 66.982 323.692 66.706 323.632C66.406 323.56 66.148 323.422 65.932 323.218C65.704 323.002 65.59 322.636 65.59 322.12C65.59 321.724 65.668 321.436 65.824 321.256C65.98 321.076 66.184 320.986 66.436 320.986C66.616 320.986 66.844 321.016 67.12 321.076C67.42 321.148 67.684 321.292 67.912 321.508C68.128 321.712 68.236 322.072 68.236 322.588ZM79.216 316.963C79.216 318.235 78.862 319.195 78.154 319.843C77.446 320.479 76.462 320.797 75.202 320.797C74.446 320.797 73.72 320.677 73.024 320.437C72.316 320.197 71.692 319.861 71.152 319.429C70.612 318.985 70.186 318.457 69.874 317.845C69.55 317.221 69.388 316.525 69.388 315.757C69.388 315.385 69.436 315.007 69.532 314.623C69.616 314.239 69.76 313.891 69.964 313.579C70.156 313.267 70.42 313.009 70.756 312.805C71.092 312.601 71.5 312.499 71.98 312.499C72.964 312.499 73.732 312.985 74.284 313.957C74.836 314.917 75.136 316.459 75.184 318.583C75.424 318.619 75.598 318.637 75.706 318.637C76.222 318.637 76.636 318.493 76.948 318.205C77.26 317.917 77.416 317.449 77.416 316.801C77.416 316.333 77.314 315.907 77.11 315.523C76.906 315.139 76.552 314.743 76.048 314.335L77.164 312.985C77.92 313.573 78.454 314.191 78.766 314.839C79.066 315.475 79.216 316.183 79.216 316.963ZM71.08 315.901C71.08 316.501 71.278 317.011 71.674 317.431C72.07 317.851 72.61 318.127 73.294 318.259L73.744 318.349C73.708 317.581 73.648 316.957 73.564 316.477C73.468 315.985 73.354 315.607 73.222 315.343C73.09 315.067 72.934 314.881 72.754 314.785C72.574 314.689 72.37 314.641 72.142 314.641C71.926 314.641 71.752 314.683 71.62 314.767C71.476 314.839 71.368 314.935 71.296 315.055C71.212 315.175 71.158 315.313 71.134 315.469C71.098 315.613 71.08 315.757 71.08 315.901ZM79.216 307.968C79.216 308.484 79.138 308.964 78.982 309.408C78.814 309.84 78.568 310.218 78.244 310.542C77.92 310.866 77.506 311.118 77.002 311.298C76.498 311.478 75.904 311.568 75.22 311.568C74.392 311.568 73.624 311.448 72.916 311.208C72.196 310.968 71.578 310.632 71.062 310.2C70.534 309.768 70.126 309.252 69.838 308.652C69.538 308.052 69.388 307.398 69.388 306.69C69.388 305.814 69.604 305.082 70.036 304.494C70.468 303.894 71.038 303.528 71.746 303.396L72.466 305.232C72.07 305.364 71.758 305.538 71.53 305.754C71.302 305.97 71.188 306.324 71.188 306.816C71.188 307.992 71.914 308.718 73.366 308.994L74.932 309.318C75.208 309.378 75.466 309.408 75.706 309.408C76.21 309.408 76.624 309.276 76.948 309.012C77.26 308.748 77.416 308.334 77.416 307.77C77.416 307.302 77.284 306.924 77.02 306.636C76.744 306.336 76.348 306.042 75.832 305.754L76.624 304.08C77.476 304.488 78.124 305.022 78.568 305.682C79 306.33 79.216 307.092 79.216 307.968ZM79 300.315C79 301.611 78.466 302.259 77.398 302.259C77.302 302.259 77.194 302.253 77.074 302.241C76.942 302.229 76.81 302.211 76.678 302.187L71.386 301.125L71.386 302.475L69.604 302.133L69.604 301.467C69.604 301.095 69.532 300.849 69.388 300.729C69.232 300.597 68.992 300.501 68.668 300.441L67.03 300.117L67.03 298.083L69.604 298.587L69.604 296.697L71.386 297.057L71.386 298.947L77.218 300.117L77.218 298.335L79 298.695L79 300.315ZM65.68 294.163L65.68 291.985L71.692 293.173L71.692 293.083C70.948 292.735 70.378 292.321 69.982 291.841C69.586 291.349 69.388 290.743 69.388 290.023C69.388 289.267 69.604 288.697 70.036 288.313C70.468 287.917 71.08 287.719 71.872 287.719C72.076 287.719 72.286 287.737 72.502 287.773C72.706 287.797 72.928 287.833 73.168 287.881L77.218 288.691L77.218 287.647L79 288.007L79 289.519C79 289.951 78.892 290.293 78.676 290.545C78.448 290.797 78.13 290.923 77.722 290.923C77.554 290.923 77.386 290.905 77.218 290.869L73.348 290.095C73.012 290.023 72.682 289.987 72.358 289.987C72.01 289.987 71.74 290.071 71.548 290.239C71.344 290.407 71.242 290.689 71.242 291.085C71.242 291.397 71.32 291.685 71.476 291.949C71.62 292.213 71.818 292.453 72.07 292.669C72.346 292.909 72.652 293.119 72.988 293.299C73.324 293.467 73.678 293.587 74.05 293.659L79 294.649L79 296.827L65.68 294.163ZM79 278.988C79 279.42 78.886 279.774 78.658 280.05C78.43 280.326 78.112 280.464 77.704 280.464C77.608 280.464 77.506 280.458 77.398 280.446C77.29 280.422 77.206 280.404 77.146 280.392L76.858 280.338L76.858 280.428C77.626 280.812 78.214 281.238 78.622 281.706C79.018 282.174 79.216 282.768 79.216 283.488C79.216 283.92 79.138 284.304 78.982 284.64C78.814 284.964 78.58 285.234 78.28 285.45C77.98 285.666 77.626 285.828 77.218 285.936C76.81 286.044 76.354 286.098 75.85 286.098C74.938 286.098 74.092 285.99 73.312 285.774C72.52 285.558 71.836 285.258 71.26 284.874C70.672 284.478 70.216 284.01 69.892 283.47C69.556 282.918 69.388 282.318 69.388 281.67C69.388 281.034 69.556 280.5 69.892 280.068C70.228 279.636 70.666 279.378 71.206 279.294L71.206 279.204L69.604 278.88L69.604 276.702L77.218 278.232L77.218 277.098L79 277.44L79 278.988ZM77.398 282.498C77.398 282.15 77.314 281.838 77.146 281.562C76.966 281.274 76.756 281.028 76.516 280.824C76.252 280.584 75.952 280.386 75.616 280.23C75.268 280.074 74.902 279.954 74.518 279.87L72.916 279.546C72.436 279.45 72.034 279.558 71.71 279.87C71.374 280.17 71.206 280.608 71.206 281.184C71.206 282.42 71.98 283.194 73.528 283.506L74.824 283.758C74.956 283.782 75.118 283.806 75.31 283.83C75.502 283.854 75.67 283.866 75.814 283.866C76.294 283.866 76.678 283.752 76.966 283.524C77.254 283.284 77.398 282.942 77.398 282.498ZM79.216 272.384C79.216 273.14 79.078 273.848 78.802 274.508C78.514 275.156 78.094 275.678 77.542 276.074L76.264 274.688C76.636 274.412 76.924 274.088 77.128 273.716C77.332 273.332 77.434 272.87 77.434 272.33C77.434 271.742 77.314 271.304 77.074 271.016C76.834 270.716 76.54 270.566 76.192 270.566C75.964 270.566 75.766 270.638 75.598 270.782C75.43 270.926 75.316 271.196 75.256 271.592L75.13 272.474C75.01 273.254 74.752 273.866 74.356 274.31C73.96 274.754 73.384 274.976 72.628 274.976C72.196 274.976 71.788 274.904 71.404 274.76C71.008 274.604 70.666 274.37 70.378 274.058C70.078 273.746 69.838 273.356 69.658 272.888C69.478 272.408 69.388 271.85 69.388 271.214C69.388 269.75 69.874 268.622 70.846 267.83L72.124 269.234C71.836 269.462 71.608 269.756 71.44 270.116C71.26 270.464 71.17 270.866 71.17 271.322C71.17 271.826 71.278 272.21 71.494 272.474C71.698 272.726 71.974 272.852 72.322 272.852C72.55 272.852 72.748 272.78 72.916 272.636C73.084 272.492 73.198 272.228 73.258 271.844L73.384 270.962C73.504 270.17 73.762 269.552 74.158 269.108C74.554 268.664 75.13 268.442 75.886 268.442C76.342 268.442 76.774 268.532 77.182 268.712C77.59 268.88 77.944 269.132 78.244 269.468C78.544 269.804 78.784 270.218 78.964 270.71C79.132 271.202 79.216 271.76 79.216 272.384ZM79.216 262.875C79.216 264.147 78.862 265.107 78.154 265.755C77.446 266.391 76.462 266.709 75.202 266.709C74.446 266.709 73.72 266.589 73.024 266.349C72.316 266.109 71.692 265.773 71.152 265.341C70.612 264.897 70.186 264.369 69.874 263.757C69.55 263.133 69.388 262.437 69.388 261.669C69.388 261.297 69.436 260.919 69.532 260.535C69.616 260.151 69.76 259.803 69.964 259.491C70.156 259.179 70.42 258.921 70.756 258.717C71.092 258.513 71.5 258.411 71.98 258.411C72.964 258.411 73.732 258.897 74.284 259.869C74.836 260.829 75.136 262.371 75.184 264.495C75.424 264.531 75.598 264.549 75.706 264.549C76.222 264.549 76.636 264.405 76.948 264.117C77.26 263.829 77.416 263.361 77.416 262.713C77.416 262.245 77.314 261.819 77.11 261.435C76.906 261.051 76.552 260.655 76.048 260.247L77.164 258.897C77.92 259.485 78.454 260.103 78.766 260.751C79.066 261.387 79.216 262.095 79.216 262.875ZM71.08 261.813C71.08 262.413 71.278 262.923 71.674 263.343C72.07 263.763 72.61 264.039 73.294 264.171L73.744 264.261C73.708 263.493 73.648 262.869 73.564 262.389C73.468 261.897 73.354 261.519 73.222 261.255C73.09 260.979 72.934 260.793 72.754 260.697C72.574 260.601 72.37 260.553 72.142 260.553C71.926 260.553 71.752 260.595 71.62 260.679C71.476 260.751 71.368 260.847 71.296 260.967C71.212 261.087 71.158 261.225 71.134 261.381C71.098 261.525 71.08 261.669 71.08 261.813Z" fill="white"/>
</svg>
