<svg width="100" height="92" viewBox="0 0 100 92" fill="none" xmlns="http://www.w3.org/2000/svg">
<path d="M94.4366 0H5.38965V59.4082H94.4366V0Z" fill="#164194"/>
<path d="M48.0154 12.9436L49.8963 11.5724L51.7773 12.9436L51.0593 10.7274L52.9706 9.35109H50.6143L49.8963 7.10449L49.1783 9.35615L46.8271 9.35109L48.7334 10.7274L48.0154 12.9436Z" fill="#FBED1D"/>
<path d="M38.2909 15.5588L40.1719 14.1876L42.0478 15.5588L41.3349 13.3376L43.2411 11.9663H40.8899L40.1719 9.71973L39.4488 11.9714L37.0977 11.9663L39.0039 13.3376L38.2909 15.5588Z" fill="#FBED1D"/>
<path d="M33.0586 16.8545L32.3356 19.1061L29.9844 19.1011L31.8957 20.4774L31.1777 22.6936L33.0586 21.3224L34.9345 22.6936L34.2216 20.4774L36.1278 19.1011H33.7766L33.0586 16.8545Z" fill="#FBED1D"/>
<path d="M30.4492 31.038L32.3251 32.4143L31.6122 30.193L33.5184 28.8218H31.1672L30.4492 26.5752L29.7262 28.8268L27.375 28.8218L29.2812 30.193L28.5683 32.4143L30.4492 31.038Z" fill="#FBED1D"/>
<path d="M33.7766 38.5659L33.0586 36.3193L32.3356 38.571L29.9844 38.5659L31.8957 39.9422L31.1777 42.1585L33.0586 40.7822L34.9345 42.1585L34.2216 39.9422L36.1278 38.5659H33.7766Z" fill="#FBED1D"/>
<path d="M40.9055 45.7007L40.1875 43.4541L39.4695 45.7058L37.1133 45.7007L39.0195 47.0719L38.3066 49.2932L40.1875 47.922L42.0634 49.2932L41.3505 47.0719L43.2567 45.7007H40.9055Z" fill="#FBED1D"/>
<path d="M50.6194 48.2866L49.8963 46.04L49.1783 48.2866H46.8271L48.7334 49.6579L48.0204 51.8792L49.9014 50.5079L51.7773 51.8792L51.0593 49.6579L52.9706 48.2866H50.6194Z" fill="#FBED1D"/>
<path d="M60.3272 45.7007L59.6092 43.4541L58.8912 45.7058L56.54 45.7007L58.4463 47.0719L57.7283 49.2932L59.6092 47.922L61.4902 49.2932L60.7722 47.0719L62.6835 45.7007H60.3272Z" fill="#FBED1D"/>
<path d="M67.4571 38.5659L66.7391 36.3193L66.0161 38.571L63.6699 38.5659L65.5762 39.9422L64.8582 42.1585L66.7391 40.7822L68.6201 42.1585L67.9021 39.9422L69.8083 38.5659H67.4571Z" fill="#FBED1D"/>
<path d="M72.3915 28.7956H70.0403L69.3172 26.5439L68.5992 28.7956H66.248L68.1543 30.1668L67.4413 32.3831L69.3172 31.0118L71.1982 32.3831L70.4852 30.1668L72.3915 28.7956Z" fill="#FBED1D"/>
<path d="M64.8582 22.6632L66.7391 21.2919L68.6201 22.6632L67.9021 20.4469L69.8083 19.0757H67.4571L66.7391 16.8291L66.0161 19.0808L63.6699 19.0757L65.5762 20.4469L64.8582 22.6632Z" fill="#FBED1D"/>
<path d="M59.6346 9.71973L58.9166 11.9714L56.5654 11.9663L58.4717 13.3426L57.7587 15.5588L59.6397 14.1876L61.5156 15.5588L60.8026 13.3426L62.7089 11.9663H60.3577L59.6346 9.71973Z" fill="#FBED1D"/>
<path d="M20.225 73.5705L21.7115 74.0461C21.5501 74.772 21.1494 75.4225 20.5738 75.893C19.9863 76.3156 19.2743 76.5294 18.5513 76.5002C18.0888 76.5162 17.6282 76.4344 17.1995 76.26C16.7708 76.0856 16.3837 75.8226 16.0636 75.4882C15.3824 74.7069 15.0339 73.6898 15.0928 72.6546C15.027 71.5815 15.3784 70.5244 16.0737 69.7047C16.4031 69.3546 16.8038 69.0794 17.2487 68.8978C17.6936 68.7162 18.1723 68.6325 18.6524 68.6522C19.4865 68.6185 20.3003 68.9148 20.9177 69.477C21.2981 69.8659 21.567 70.35 21.6963 70.8786L20.1794 71.2429C20.1104 70.8729 19.9103 70.5402 19.6158 70.306C19.3214 70.0718 18.9524 69.9517 18.5766 69.9678C18.3174 69.9601 18.0597 70.0106 17.8225 70.1157C17.5854 70.2208 17.3748 70.3777 17.2063 70.575C16.8129 71.1498 16.6339 71.8447 16.7007 72.5383C16.6286 73.2608 16.8071 73.9862 17.2063 74.5926C17.3697 74.7858 17.5747 74.9394 17.8059 75.0419C18.037 75.1445 18.2885 75.1932 18.5412 75.1846C18.9286 75.1939 19.3049 75.0545 19.5929 74.795C19.9263 74.4629 20.1473 74.0347 20.225 73.5705V73.5705Z" fill="#164194"/>
<path d="M22.6879 73.5361C22.6887 73.0452 22.8102 72.5621 23.0418 72.1294C23.2684 71.6908 23.6205 71.3296 24.0531 71.0921C24.5038 70.8507 25.0082 70.7271 25.5194 70.7329C25.8983 70.7207 26.2757 70.7867 26.6281 70.9269C26.9804 71.067 27.3001 71.2783 27.5672 71.5475C27.8307 71.818 28.0368 72.1389 28.1732 72.491C28.3096 72.8432 28.3735 73.2193 28.3611 73.5968C28.3733 73.9789 28.3084 74.3596 28.1703 74.716C28.0321 75.0725 27.8236 75.3974 27.5571 75.6713C27.2948 75.9407 26.9798 76.153 26.6318 76.2949C26.2838 76.4368 25.9103 76.5053 25.5346 76.4961C25.0323 76.4958 24.5371 76.378 24.0885 76.152C23.6418 75.9334 23.2755 75.5792 23.0418 75.1401C22.7938 74.6426 22.6722 74.0917 22.6879 73.5361ZM24.2048 73.612C24.1747 74.0656 24.3134 74.5144 24.5941 74.8719C24.7137 75.0084 24.861 75.1178 25.0263 75.1927C25.1915 75.2677 25.3708 75.3064 25.5523 75.3064C25.7337 75.3064 25.913 75.2677 26.0783 75.1927C26.2435 75.1178 26.3908 75.0084 26.5104 74.8719C26.7897 74.5119 26.9265 74.0615 26.8947 73.6069C26.9246 73.1572 26.7878 72.7122 26.5104 72.3571C26.3908 72.2206 26.2435 72.1112 26.0783 72.0362C25.913 71.9613 25.7337 71.9225 25.5523 71.9225C25.3708 71.9225 25.1915 71.9613 25.0263 72.0362C24.861 72.1112 24.7137 72.2206 24.5941 72.3571C24.3059 72.7099 24.1583 73.1568 24.1795 73.612H24.2048Z" fill="#164194"/>
<path d="M29.3262 74.3401V72.8828H32.1881V74.3401H29.3262Z" fill="#164194"/>
<path d="M32.4062 70.8582H33.2153V70.4433C33.2016 70.0998 33.2513 69.7567 33.3619 69.4313C33.4759 69.1893 33.6684 68.9932 33.908 68.8747C34.2211 68.7172 34.5691 68.6423 34.9192 68.6571C35.331 68.6558 35.7405 68.719 36.1328 68.8443L35.9356 69.8563C35.7171 69.8026 35.4931 69.7754 35.2681 69.7753C35.187 69.7665 35.105 69.7751 35.0274 69.8004C34.9498 69.8257 34.8785 69.8671 34.8181 69.9221C34.7034 70.0874 34.6531 70.2889 34.6765 70.4888V70.8784H35.7687V72.027H34.6715V76.3886H33.2153V72.027H32.4062V70.8582Z" fill="#164194"/>
<path d="M40.2028 76.3686V75.5439C40.0114 75.8362 39.7486 76.0748 39.4393 76.2371C39.1278 76.403 38.7809 76.4915 38.428 76.4951C38.0748 76.5051 37.7254 76.4195 37.4168 76.2472C37.1321 76.0998 36.907 75.8585 36.7797 75.5641C36.627 75.1765 36.558 74.7609 36.5774 74.3447V70.8584H38.0387V73.3883C38.016 73.8655 38.0431 74.3437 38.1196 74.8152C38.1655 74.9824 38.2672 75.1288 38.4078 75.2301C38.5679 75.336 38.7571 75.389 38.9488 75.3819C39.187 75.3857 39.4203 75.315 39.6163 75.1796C39.8016 75.0584 39.9434 74.8811 40.0208 74.6736C40.1227 74.1847 40.1601 73.6846 40.132 73.186V70.8635H41.5882V76.3737L40.2028 76.3686Z" fill="#164194"/>
<path d="M48.0756 76.3692H46.6194V73.5559C46.6394 73.1686 46.6054 72.7803 46.5183 72.4023C46.4639 72.2379 46.3574 72.0957 46.2149 71.9975C46.0657 71.8972 45.8889 71.8459 45.7093 71.8508C45.4675 71.8487 45.2309 71.9211 45.0317 72.0582C44.8351 72.1886 44.6902 72.3837 44.6221 72.6097C44.5253 73.024 44.4862 73.4497 44.5059 73.8747V76.3692H43.0547V70.859H44.4098V71.6686C44.6148 71.378 44.8868 71.1411 45.2028 70.9781C45.5189 70.8152 45.8695 70.7309 46.225 70.7325C46.5274 70.7295 46.8271 70.7899 47.1048 70.9096C47.3407 71.0033 47.5493 71.1546 47.7116 71.3498C47.848 71.5336 47.9444 71.7438 47.9947 71.9671C48.0581 72.2886 48.0853 72.6162 48.0756 72.9437V76.3692Z" fill="#164194"/>
<path d="M54.6078 76.3697H53.2527V75.5601C53.0502 75.8565 52.7774 76.0981 52.4589 76.2634C52.1725 76.4114 51.8558 76.4911 51.5336 76.4962C51.2223 76.4962 50.9148 76.4272 50.6333 76.2943C50.3518 76.1613 50.1033 75.9676 49.9054 75.7271C49.4723 75.1003 49.2402 74.3564 49.2402 73.5943C49.2402 72.8323 49.4723 72.0883 49.9054 71.4616C50.1131 71.225 50.3702 71.0371 50.6586 70.9112C50.947 70.7853 51.2595 70.7244 51.574 70.7329C51.8807 70.7346 52.1831 70.8044 52.4595 70.9375C52.7358 71.0705 52.9791 71.2633 53.1718 71.5021V68.7646H54.6078V76.3697ZM50.7195 73.4957C50.6882 73.9346 50.7719 74.3741 50.9622 74.7707C51.0609 74.9508 51.2078 75.0997 51.3865 75.2007C51.5651 75.3018 51.7684 75.3509 51.9735 75.3425C52.1396 75.3427 52.3035 75.3039 52.4519 75.2292C52.6003 75.1545 52.7291 75.046 52.828 74.9124C53.0891 74.5408 53.2141 74.0905 53.1819 73.6373C53.2227 73.1547 53.1017 72.6723 52.8381 72.2661C52.7345 72.1337 52.6015 72.0273 52.4497 71.9553C52.2979 71.8833 52.1313 71.8476 51.9634 71.8512C51.7968 71.8486 51.6318 71.8842 51.481 71.9552C51.3303 72.0263 51.1978 72.1309 51.0937 72.261C50.8257 72.6149 50.6914 73.0522 50.7145 73.4957H50.7195Z" fill="#164194"/>
<path d="M59.23 74.6131L60.6812 74.861C60.5235 75.3501 60.2134 75.7757 59.7963 76.0754C59.3462 76.3689 58.8163 76.5157 58.2794 76.4954C57.8753 76.5264 57.4698 76.4566 57.0992 76.2924C56.7286 76.1281 56.4045 75.8745 56.1558 75.5542C55.7804 74.9985 55.5926 74.3371 55.6198 73.6669C55.5726 72.8866 55.828 72.1181 56.3328 71.5215C56.5607 71.2669 56.8408 71.0645 57.1541 70.9283C57.4674 70.792 57.8064 70.7251 58.148 70.7322C58.5118 70.7152 58.8747 70.7795 59.2106 70.9204C59.5464 71.0613 59.8467 71.2753 60.0896 71.5468C60.6135 72.2651 60.8547 73.1513 60.7671 74.0363H57.1165C57.1012 74.4064 57.2278 74.7685 57.4704 75.0483C57.5762 75.1652 57.7059 75.2578 57.8508 75.3199C57.9957 75.3819 58.1523 75.4118 58.3098 75.4075C58.5179 75.4149 58.7221 75.3487 58.8862 75.2203C59.0615 75.0589 59.1818 74.8465 59.23 74.6131ZM59.3109 73.1407C59.3254 72.7904 59.2081 72.4473 58.9823 72.1793C58.8842 72.0724 58.7651 71.9871 58.6323 71.9287C58.4996 71.8703 58.3562 71.8402 58.2112 71.8402C58.0662 71.8402 57.9228 71.8703 57.79 71.9287C57.6573 71.9871 57.5381 72.0724 57.4401 72.1793C57.2137 72.4537 57.1047 72.8065 57.1367 73.1609L59.3109 73.1407Z" fill="#164194"/>
<path d="M66.9961 76.3697H65.641V75.5601C65.4385 75.8565 65.1657 76.0981 64.8472 76.2634C64.428 76.4765 63.9485 76.5395 63.4885 76.4419C63.0285 76.3443 62.6158 76.092 62.319 75.7271C61.8831 75.1014 61.6494 74.357 61.6494 73.5943C61.6494 72.8316 61.8831 72.0872 62.319 71.4616C62.5259 71.2254 62.7822 71.0377 63.0697 70.9118C63.3572 70.7859 63.6688 70.7248 63.9825 70.7329C64.2885 70.7346 64.5902 70.8045 64.8657 70.9376C65.1412 71.0706 65.3836 71.2634 65.5753 71.5021V68.7646H67.0366L66.9961 76.3697ZM63.1078 73.4957C63.0765 73.9346 63.1602 74.3741 63.3505 74.7707C63.4468 74.9473 63.5896 75.0939 63.7635 75.1948C63.9374 75.2956 64.1356 75.3467 64.3365 75.3425C64.5025 75.3419 64.6661 75.3028 64.8143 75.2281C64.9626 75.1535 65.0916 75.0454 65.191 74.9124C65.45 74.54 65.5731 74.0898 65.5399 73.6373C65.5821 73.1553 65.4629 72.6729 65.2011 72.2661C65.0954 72.1369 64.9623 72.0328 64.8114 71.9614C64.6606 71.8899 64.4958 71.8528 64.3289 71.8528C64.162 71.8528 63.9972 71.8899 63.8464 71.9614C63.6956 72.0328 63.5625 72.1369 63.4567 72.2661C63.2006 72.6227 63.0772 73.0576 63.1078 73.4957V73.4957Z" fill="#164194"/>
<path d="M71.3193 76.3691V68.7793H72.7756V71.5167C72.9682 71.278 73.2116 71.0851 73.4879 70.9521C73.7643 70.8191 74.0667 70.7492 74.3734 70.7476C74.687 70.7402 74.9984 70.8016 75.2858 70.9274C75.5732 71.0533 75.8296 71.2406 76.0369 71.4762C76.5095 72.068 76.7439 72.8151 76.6942 73.571C76.7459 74.3544 76.5064 75.1294 76.0217 75.7468C75.8239 75.9869 75.5752 76.18 75.2936 76.3122C75.012 76.4443 74.7046 76.5122 74.3936 76.5108C74.0689 76.5074 73.7498 76.4259 73.4632 76.273C73.1462 76.1078 72.8738 75.8682 72.6694 75.5747V76.3843L71.3193 76.3691ZM72.7654 73.4951C72.7355 73.9335 72.8283 74.3716 73.0334 74.7601C73.1346 74.9387 73.2818 75.0868 73.4597 75.1892C73.6375 75.2915 73.8395 75.3443 74.0447 75.342C74.2051 75.3432 74.3635 75.3062 74.5068 75.2341C74.6501 75.1619 74.7742 75.0567 74.8689 74.9271C75.1254 74.5463 75.2448 74.0895 75.2076 73.6317C75.2488 73.1507 75.1277 72.6697 74.8638 72.2656C74.7602 72.1332 74.6272 72.0268 74.4754 71.9548C74.3236 71.8827 74.1571 71.8471 73.9891 71.8507C73.8223 71.8482 73.657 71.8833 73.5056 71.9533C73.3542 72.0234 73.2205 72.1267 73.1143 72.2554C72.8579 72.6157 72.7346 73.0539 72.7654 73.4951V73.4951Z" fill="#164194"/>
<path d="M77.1748 70.8584H78.7271L80.0417 74.7697L81.3311 70.8584H82.848L80.9013 76.1612L80.5524 77.1226C80.4559 77.3787 80.334 77.6245 80.1884 77.8562C80.0806 78.0169 79.9454 78.1574 79.7889 78.2712C79.6188 78.3845 79.4307 78.4684 79.2327 78.5191C78.9894 78.578 78.7398 78.6069 78.4894 78.6051C78.2125 78.6047 77.9363 78.5759 77.6653 78.5191L77.5338 77.3755C77.7368 77.4176 77.9434 77.4396 78.1507 77.4413C78.2908 77.4536 78.4318 77.433 78.5626 77.3811C78.6934 77.3293 78.8103 77.2477 78.9041 77.1428C79.0802 76.9186 79.2076 76.6601 79.2782 76.3838L77.1748 70.8584Z" fill="#164194"/>
<path d="M3.12481 83.6101V84.7992H2.11354V87.0205C2.10398 87.2823 2.11412 87.5444 2.14388 87.8047C2.16232 87.8803 2.20949 87.9456 2.27535 87.9869C2.3453 88.039 2.43089 88.0658 2.51805 88.0628C2.72015 88.049 2.91846 88.0011 3.10458 87.9211L3.23099 89.0545C2.865 89.2031 2.47307 89.2771 2.07815 89.2721C1.83527 89.2762 1.59419 89.2297 1.37026 89.1355C1.18567 89.07 1.02406 88.9522 0.905082 88.7965C0.796102 88.6251 0.726983 88.4314 0.702829 88.2298C0.659321 87.8943 0.642414 87.5559 0.652266 87.2178V84.7992H0V83.6354H0.667435V82.5424L2.12871 81.6924V83.6354L3.12481 83.6101Z" fill="#164194"/>
<path d="M5.58708 81.5155V84.2934C5.88803 83.9149 6.30592 83.647 6.7753 83.5317C7.24469 83.4163 7.73905 83.46 8.18097 83.6559C8.4232 83.7602 8.63407 83.9258 8.79279 84.1366C8.92892 84.3292 9.02361 84.548 9.07089 84.7792C9.13123 85.1402 9.15662 85.5062 9.14673 85.8721V89.1054H7.69051V86.1959C7.70961 85.8261 7.68071 85.4553 7.60455 85.0929C7.55078 84.9404 7.44753 84.8104 7.31129 84.7235C7.15918 84.6307 6.98376 84.5833 6.80565 84.5869C6.57761 84.5842 6.35337 84.6455 6.15845 84.764C5.96617 84.8812 5.81848 85.0593 5.73877 85.27C5.63763 85.6112 5.59321 85.9668 5.60731 86.3224V89.0801H4.13086V81.4902L5.58708 81.5155Z" fill="#164194"/>
<path d="M13.8134 87.3645L15.2645 87.6125C15.1089 88.1025 14.7983 88.5287 14.3797 88.8268C13.9296 89.1204 13.3997 89.2671 12.8628 89.2468C12.4588 89.2769 12.0536 89.2067 11.6831 89.0425C11.3127 88.8784 10.9884 88.6253 10.7391 88.3057C10.3581 87.7483 10.1666 87.083 10.1931 86.4082C10.1458 85.6279 10.4012 84.8594 10.906 84.2628C11.1343 84.0107 11.414 83.8106 11.7264 83.6761C12.0387 83.5417 12.3763 83.476 12.7162 83.4836C13.0804 83.4652 13.4441 83.5283 13.7809 83.6684C14.1176 83.8084 14.4189 84.0219 14.6628 84.2932C15.1868 85.0115 15.428 85.8977 15.3404 86.7826H11.6897C11.6769 87.1524 11.8032 87.5135 12.0437 87.7946C12.1494 87.9116 12.2792 88.0042 12.424 88.0662C12.5689 88.1282 12.7255 88.1581 12.883 88.1539C13.0912 88.1613 13.2953 88.095 13.4594 87.9667C13.6376 87.808 13.7614 87.5974 13.8134 87.3645V87.3645ZM13.8943 85.8921C13.9087 85.5418 13.7915 85.1988 13.5656 84.9307C13.4701 84.8262 13.3536 84.7429 13.2238 84.6862C13.094 84.6296 12.9538 84.6008 12.8122 84.6018C12.6632 84.5982 12.5151 84.6277 12.3788 84.688C12.2424 84.7484 12.1211 84.8382 12.0234 84.951C11.8053 85.2143 11.6951 85.5506 11.715 85.8921H13.8943Z" fill="#164194"/>
<path d="M19.4863 89.1201V81.5303H25.1241V82.8155H21.0235V84.5004H24.841V85.7856H21.0235V87.8349H25.2809V89.1151L19.4863 89.1201Z" fill="#164194"/>
<path d="M30.1861 89.1197V88.2949C29.9843 88.5895 29.7112 88.828 29.3922 88.9881C29.0811 89.1552 28.734 89.2438 28.381 89.2462C28.0278 89.2552 27.6787 89.1696 27.3697 88.9983C27.0894 88.8553 26.8638 88.6242 26.7275 88.3405C26.579 87.9518 26.5119 87.5367 26.5303 87.121V83.6348H27.9866V86.1647C27.9639 86.6419 27.991 87.1201 28.0675 87.5916C28.1172 87.7583 28.2202 87.9041 28.3607 88.0065C28.5203 88.1136 28.7098 88.1668 28.9018 88.1583C29.1399 88.1621 29.3732 88.0913 29.5692 87.9559C29.7531 87.8333 29.8945 87.6565 29.9737 87.4499C30.07 86.9603 30.1057 86.4607 30.0799 85.9623V83.6398H31.5361V89.1501L30.1861 89.1197Z" fill="#164194"/>
<path d="M34.4435 89.1202H32.9873V83.61H34.3373V84.3943C34.4947 84.1099 34.708 83.8603 34.9643 83.6606C35.1518 83.5422 35.3696 83.4807 35.5913 83.4835C35.9309 83.487 36.2631 83.5833 36.552 83.7618L36.102 85.0318C35.8935 84.8873 35.6476 84.8064 35.3941 84.7991C35.2116 84.796 35.0334 84.8549 34.8885 84.966C34.7171 85.131 34.6005 85.3448 34.5548 85.5783C34.4485 86.1878 34.4078 86.807 34.4334 87.4252L34.4435 89.1202Z" fill="#164194"/>
<path d="M36.8401 86.2866C36.8427 85.7954 36.966 85.3123 37.1991 84.88C37.4282 84.4496 37.7803 84.0973 38.2104 83.868C38.6596 83.6273 39.1622 83.5038 39.6717 83.5087C40.0465 83.4991 40.4193 83.5664 40.7672 83.7065C41.115 83.8466 41.4305 84.0566 41.6942 84.3234C41.9593 84.5929 42.1668 84.9135 42.3041 85.2658C42.4415 85.6181 42.5058 85.9947 42.4931 86.3726C42.5053 86.7547 42.4404 87.1354 42.3023 87.4919C42.1642 87.8483 41.9556 88.1732 41.6891 88.4472C41.4269 88.7165 41.1119 88.9288 40.7639 89.0707C40.4158 89.2127 40.0423 89.2812 39.6666 89.2719C39.166 89.2716 38.6724 89.1538 38.2256 88.9279C37.7777 88.711 37.4109 88.3564 37.1789 87.9159C36.932 87.4095 36.8156 86.8495 36.8401 86.2866V86.2866ZM38.357 86.3676C38.3253 86.8199 38.4642 87.2676 38.7464 87.6224C38.8659 87.7589 39.0133 87.8683 39.1785 87.9433C39.3438 88.0182 39.5231 88.057 39.7045 88.057C39.886 88.057 40.0653 88.0182 40.2305 87.9433C40.3958 87.8683 40.5431 87.7589 40.6627 87.6224C40.942 87.2624 41.0788 86.8121 41.047 86.3574C41.0769 85.9077 40.9401 85.4627 40.6627 85.1076C40.5431 84.9711 40.3958 84.8617 40.2305 84.7868C40.0653 84.7118 39.886 84.6731 39.7045 84.6731C39.5231 84.6731 39.3438 84.7118 39.1785 84.7868C39.0133 84.8617 38.8659 84.9711 38.7464 85.1076C38.4571 85.4615 38.3109 85.9111 38.3368 86.3676H38.357Z" fill="#164194"/>
<path d="M43.626 83.6101H45.0013V84.4197C45.1816 84.1396 45.4283 83.9085 45.7193 83.7467C46.0266 83.5696 46.376 83.4787 46.7306 83.4836C47.0406 83.4821 47.3472 83.5488 47.6285 83.6791C47.9099 83.8094 48.1592 84 48.3587 84.2375C48.8204 84.8282 49.0474 85.569 48.9958 86.3171C49.0428 87.0907 48.8034 87.8544 48.3233 88.4625C48.1252 88.704 47.8758 88.8983 47.5933 89.0313C47.3108 89.1643 47.0023 89.2328 46.6901 89.2316C46.4033 89.236 46.1194 89.1737 45.8609 89.0495C45.5661 88.8904 45.3023 88.6796 45.0822 88.4271V91.1999H43.626V83.6101ZM45.067 86.2716C45.0278 86.7569 45.1563 87.241 45.4311 87.6428C45.5365 87.7816 45.6727 87.894 45.8288 87.9712C45.985 88.0485 46.1569 88.0885 46.3311 88.0881C46.494 88.0903 46.6552 88.0543 46.8018 87.9832C46.9484 87.912 47.0764 87.8076 47.1755 87.6782C47.4354 87.2838 47.5548 86.8132 47.5143 86.3424C47.5491 85.8866 47.4259 85.4328 47.1654 85.0572C47.0639 84.926 46.9336 84.8198 46.7845 84.747C46.6355 84.6742 46.4717 84.6366 46.3058 84.6372C46.1357 84.634 45.9671 84.6698 45.8129 84.7417C45.6587 84.8136 45.5229 84.9198 45.4159 85.0522C45.1594 85.4047 45.0358 85.8366 45.067 86.2716Z" fill="#164194"/>
<path d="M53.3384 87.3642L54.7896 87.6121C54.6339 88.1022 54.3234 88.5283 53.9048 88.8265C53.4549 89.1206 52.9248 89.2674 52.3879 89.2465C51.9838 89.2765 51.5786 89.2064 51.2082 89.0422C50.8377 88.878 50.5135 88.6249 50.2642 88.3053C49.8832 87.748 49.6917 87.0826 49.7181 86.4079C49.6723 85.6269 49.9295 84.8583 50.4361 84.2625C50.664 84.0098 50.9437 83.8094 51.2561 83.6749C51.5685 83.5404 51.9063 83.475 52.2463 83.4832C52.6093 83.4659 52.9717 83.5301 53.3068 83.671C53.6419 83.812 53.9412 84.0262 54.1828 84.2979C54.7112 85.0142 54.9545 85.9015 54.8655 86.7874H51.2198C51.2056 87.1565 51.3301 87.5175 51.5687 87.7993C51.6754 87.9164 51.8061 88.0091 51.9518 88.0711C52.0975 88.1331 52.2549 88.1629 52.4131 88.1586C52.6198 88.1666 52.8226 88.1002 52.9845 87.9714C53.1635 87.8114 53.2874 87.5989 53.3384 87.3642V87.3642ZM53.4244 85.8918C53.4364 85.5418 53.3195 85.1996 53.0957 84.9304C52.9972 84.8233 52.8776 84.7379 52.7445 84.6795C52.6113 84.6211 52.4675 84.5909 52.3221 84.5909C52.1767 84.5909 52.0329 84.6211 51.8998 84.6795C51.7666 84.7379 51.647 84.8233 51.5485 84.9304C51.3299 85.1932 51.2212 85.5304 51.2451 85.8715L53.4244 85.8918Z" fill="#164194"/>
<path d="M57.137 85.3053L55.8123 85.0675C55.923 84.5954 56.1948 84.1767 56.5808 83.8835C57.0698 83.5967 57.6333 83.4628 58.1989 83.4989C58.6936 83.4732 59.1881 83.5525 59.65 83.7317C59.9295 83.853 60.1645 84.0581 60.3225 84.3187C60.4827 84.7341 60.5484 85.1801 60.5146 85.6241V87.3242C60.5063 87.6832 60.53 88.0422 60.5854 88.3969C60.6424 88.6531 60.7307 88.9012 60.8484 89.1357H59.4073C59.3525 88.9949 59.3053 88.8514 59.2657 88.7056L59.2152 88.5336C58.9851 88.7638 58.7142 88.9491 58.4163 89.08C58.1301 89.2019 57.8221 89.2638 57.5112 89.2622C57.0207 89.2901 56.539 89.1228 56.1713 88.7967C56.0081 88.6507 55.8784 88.4711 55.7911 88.2702C55.7038 88.0693 55.661 87.8519 55.6656 87.6329C55.6574 87.3389 55.7347 87.0489 55.8881 86.798C56.036 86.5539 56.2522 86.3586 56.51 86.2364C56.8811 86.0775 57.2698 85.9637 57.6679 85.8973C58.1502 85.8227 58.6242 85.7025 59.0837 85.5381V85.3964C59.0955 85.287 59.083 85.1763 59.0472 85.0722C59.0114 84.9681 58.9531 84.8732 58.8764 84.7943C58.6431 84.6519 58.3696 84.5897 58.0977 84.6172C57.8831 84.6046 57.6698 84.6576 57.4859 84.769C57.319 84.9091 57.1975 85.0959 57.137 85.3053V85.3053ZM59.0837 86.4894C58.8966 86.5501 58.5781 86.626 58.1989 86.712C57.923 86.7556 57.6553 86.8409 57.405 86.965C57.3194 87.019 57.2486 87.0936 57.1992 87.182C57.1497 87.2703 57.1231 87.3697 57.1219 87.471C57.128 87.6631 57.2098 87.8449 57.3494 87.977C57.4265 88.0511 57.5177 88.1091 57.6176 88.1473C57.7174 88.1855 57.824 88.2033 57.9309 88.1996C58.2025 88.1971 58.4657 88.1046 58.6792 87.9365C58.8512 87.814 58.9747 87.6349 59.0281 87.4305C59.077 87.1977 59.0957 86.9596 59.0837 86.7221V86.4894Z" fill="#164194"/>
<path d="M66.9711 89.1202H65.5149V86.317C65.5366 85.9299 65.5042 85.5416 65.4188 85.1634C65.3645 84.999 65.258 84.8568 65.1155 84.7586C64.9663 84.6583 64.7895 84.607 64.6098 84.6119C64.3681 84.6105 64.1318 84.6828 63.9323 84.8193C63.7357 84.9497 63.5908 85.1448 63.5227 85.3708C63.4283 85.7855 63.3908 86.2111 63.4115 86.6358V89.1303H61.9502V83.61H63.3053V84.4196C63.5103 84.1289 63.7823 83.8921 64.0984 83.7291C64.4144 83.5662 64.765 83.4819 65.1205 83.4835C65.4229 83.4805 65.7226 83.5408 66.0003 83.6606C66.2362 83.7542 66.4448 83.9056 66.6071 84.1008C66.7435 84.2845 66.8399 84.4948 66.8902 84.7181C66.9536 85.0396 66.9808 85.3672 66.9711 85.6947V89.1202Z" fill="#164194"/>
<path d="M71.3999 81.5146H72.9168V85.6334C72.9054 86.0575 72.924 86.4819 72.9724 86.9034C73.03 87.2032 73.1978 87.4704 73.4426 87.6523C73.7389 87.8566 74.0947 87.9563 74.4539 87.9357C74.8121 87.9691 75.1705 87.874 75.4652 87.6675C75.6744 87.5068 75.8167 87.2743 75.8646 87.0148C75.9164 86.585 75.9383 86.1522 75.9303 85.7194V81.5146H77.4472V85.5069C77.4664 86.1552 77.4258 86.804 77.3259 87.4448C77.253 87.795 77.0949 88.1217 76.8658 88.3961C76.6228 88.6737 76.3155 88.8874 75.9708 89.0185C75.5028 89.188 75.0069 89.267 74.5095 89.2512C73.9471 89.2777 73.385 89.1917 72.8561 88.9982C72.5135 88.8542 72.2101 88.6304 71.9712 88.3455C71.763 88.1012 71.6142 87.812 71.5364 87.5005C71.4226 86.8645 71.3735 86.2186 71.3898 85.5727L71.3999 81.5146Z" fill="#164194"/>
<path d="M84.0766 89.1196H82.6204V86.3165C82.6393 85.9293 82.607 85.5414 82.5243 85.1628C82.47 84.9984 82.3634 84.8562 82.2209 84.758C82.0714 84.6583 81.8949 84.6071 81.7153 84.6113C81.4734 84.6086 81.2367 84.681 81.0377 84.8187C80.8412 84.9504 80.6951 85.1448 80.6231 85.3703C80.5313 85.7853 80.4939 86.2105 80.5119 86.6352V89.1298H79.0557V83.6094H80.3956V84.419C80.6918 84.005 81.1202 83.7042 81.61 83.5662C82.0999 83.4283 82.622 83.4614 83.0906 83.66C83.3254 83.753 83.5325 83.9046 83.6923 84.1002C83.8303 84.2837 83.9284 84.4939 83.9805 84.7175C84.0414 85.0393 84.0685 85.3666 84.0614 85.6941L84.0766 89.1196Z" fill="#164194"/>
<path d="M85.5527 82.8606V81.5146H87.009V82.8606H85.5527ZM85.5527 89.1197V83.6094H87.009V89.1197H85.5527Z" fill="#164194"/>
<path d="M88.1669 86.2867C88.1672 85.7951 88.2906 85.3115 88.5259 84.88C88.7546 84.4493 89.1067 84.0968 89.5372 83.868C89.9879 83.6266 90.4923 83.503 91.0035 83.5088C91.3778 83.4947 91.751 83.557 92.1004 83.6918C92.4499 83.8266 92.7682 84.0312 93.0362 84.2931C93.3003 84.5633 93.5072 84.884 93.6445 85.2362C93.7817 85.5883 93.8466 85.9645 93.8351 86.3423C93.8463 86.7248 93.7805 87.1056 93.6415 87.462C93.5025 87.8184 93.2932 88.1432 93.0261 88.4169C92.7638 88.6862 92.4488 88.8985 92.1008 89.0404C91.7528 89.1824 91.3792 89.2509 91.0035 89.2417C90.5013 89.2414 90.0061 89.1235 89.5574 88.8976C89.112 88.6789 88.7474 88.3246 88.5158 87.8856C88.2682 87.39 88.1483 86.8404 88.1669 86.2867V86.2867ZM89.6586 86.3676C89.6293 86.8196 89.7679 87.2666 90.0479 87.6225C90.1675 87.759 90.3148 87.8684 90.4801 87.9433C90.6453 88.0183 90.8246 88.0571 91.0061 88.0571C91.1875 88.0571 91.3668 88.0183 91.5321 87.9433C91.6973 87.8684 91.8446 87.759 91.9642 87.6225C92.2435 87.2625 92.3803 86.8121 92.3485 86.3575C92.3784 85.9078 92.2416 85.4628 91.9642 85.1077C91.8446 84.9712 91.6973 84.8618 91.5321 84.7869C91.3668 84.7119 91.1875 84.6731 91.0061 84.6731C90.8246 84.6731 90.6453 84.7119 90.4801 84.7869C90.3148 84.8618 90.1675 84.9712 90.0479 85.1077C89.768 85.4657 89.6294 85.9141 89.6586 86.3676V86.3676Z" fill="#164194"/>
<path d="M99.9985 89.1196H98.5372V86.3165C98.5569 85.9296 98.5263 85.5418 98.4462 85.1628C98.3918 84.9984 98.2853 84.8562 98.1428 84.758C97.9933 84.6583 97.8168 84.6071 97.6372 84.6113C97.3953 84.6086 97.1586 84.681 96.9596 84.8187C96.7631 84.9504 96.617 85.1448 96.545 85.3703C96.4505 85.7849 96.4131 86.2105 96.4338 86.6352V89.1298H94.9775V83.6094H96.3326V84.419C96.6289 84.005 97.0572 83.7042 97.5471 83.5662C98.0369 83.4283 98.5591 83.4614 99.0277 83.66C99.2624 83.753 99.4696 83.9046 99.6294 84.1002C99.7673 84.2837 99.8655 84.4939 99.9176 84.7175C99.9784 85.0393 100.006 85.3666 99.9985 85.6941V89.1196Z" fill="#164194"/>
</svg>
