<svg xmlns="http://www.w3.org/2000/svg" width="279.45" height="162.16" viewBox="0 0 279.45 162.16">
  <defs>
    <style>
      .cls-1 {
        fill: #6930c3;
      }

      .cls-2 {
        fill: #fff;
      }
    </style>
  </defs>
  <g id="Layer_2" data-name="Layer 2">
    <g id="Layer_1-2" data-name="Layer 1">
      <rect class="cls-1" width="279.45" height="162.16"/>
      <g>
        <path class="cls-2" d="M77.7,111.59a5.4,5.4,0,0,1-4-1.37,5.33,5.33,0,0,1-1.37-3.92V94.89h-3v-4.1h1.58a1.89,1.89,0,0,0,1.57-.54,2.61,2.61,0,0,0,.42-1.62V85.09h4.56v5.7h4.24v4.1H77.43v12.59h3.92v4.11Z"/>
        <path class="cls-2" d="M86.07,82.1h5.08V94.25h.2a6.7,6.7,0,0,1,2-2.81,5.81,5.81,0,0,1,3.79-1.13,6,6,0,0,1,4.92,2.11,9.4,9.4,0,0,1,1.7,6v13.15H98.68V99a5.76,5.76,0,0,0-.79-3.34,3,3,0,0,0-2.62-1.12,5.48,5.48,0,0,0-1.52.22,4.32,4.32,0,0,0-1.31.64,3.09,3.09,0,0,0-.93,1,2.81,2.81,0,0,0-.36,1.45v13.75H86.07Z"/>
        <path class="cls-2" d="M117.76,112.07a10.23,10.23,0,0,1-4.1-.78,8.58,8.58,0,0,1-3.06-2.19,10,10,0,0,1-1.92-3.43,15.64,15.64,0,0,1,0-9,9.83,9.83,0,0,1,1.88-3.4,8.2,8.2,0,0,1,3-2.19,10,10,0,0,1,4-.78,9.82,9.82,0,0,1,4.21.84,8,8,0,0,1,2.93,2.27,9.81,9.81,0,0,1,1.73,3.32,14,14,0,0,1,.57,4.05v1.67H113.28V103a5.09,5.09,0,0,0,1.27,3.62,4.89,4.89,0,0,0,3.77,1.36,5.56,5.56,0,0,0,3.11-.79,8.77,8.77,0,0,0,2.16-2l2.74,3.08a8.53,8.53,0,0,1-3.47,2.82A12,12,0,0,1,117.76,112.07Zm-.08-17.94a4.06,4.06,0,0,0-3.21,1.36A5.13,5.13,0,0,0,113.28,99v.31h8.49V99a5.46,5.46,0,0,0-1-3.48A3.65,3.65,0,0,0,117.68,94.13Z"/>
        <path class="cls-2" d="M141.2,111.59V83.77H159v4.67H146.44v6.73h10.94v4.66H146.44v11.76Z"/>
        <path class="cls-2" d="M175.15,108.12H175a6.94,6.94,0,0,1-.73,1.5,5.64,5.64,0,0,1-1.15,1.25,5.4,5.4,0,0,1-1.67.88,7.2,7.2,0,0,1-2.24.32,6,6,0,0,1-4.92-2.12,9.39,9.39,0,0,1-1.7-6V90.79h5.08v12.63a5.5,5.5,0,0,0,.83,3.29,3.08,3.08,0,0,0,2.66,1.13,5.33,5.33,0,0,0,1.48-.2,3.68,3.68,0,0,0,1.29-.62,3.33,3.33,0,0,0,.91-1,2.85,2.85,0,0,0,.36-1.46V90.79h5.08v20.8h-5.08Z"/>
        <path class="cls-2" d="M192.56,111.59a5.4,5.4,0,0,1-4-1.37,5.29,5.29,0,0,1-1.37-3.92V94.89h-3.06v-4.1h1.59a1.89,1.89,0,0,0,1.57-.54,2.62,2.62,0,0,0,.41-1.62V85.09h4.57v5.7h4.24v4.1h-4.24v12.59h3.92v4.11Z"/>
        <path class="cls-2" d="M213.31,108.12h-.2a7,7,0,0,1-.74,1.5,5.2,5.2,0,0,1-1.15,1.25,5.35,5.35,0,0,1-1.66.88,7.29,7.29,0,0,1-2.24.32A6,6,0,0,1,202.4,110a9.33,9.33,0,0,1-1.71-6V90.79h5.08v12.63a5.57,5.57,0,0,0,.83,3.29,3.1,3.1,0,0,0,2.66,1.13,5.4,5.4,0,0,0,1.49-.2A3.68,3.68,0,0,0,212,107a3.47,3.47,0,0,0,.91-1,2.85,2.85,0,0,0,.36-1.46V90.79h5.07v20.8h-5.07Z"/>
        <path class="cls-2" d="M224.25,111.59V90.79h5.08v4.3h.2a6.28,6.28,0,0,1,.61-1.61,4.94,4.94,0,0,1,2.7-2.33,6,6,0,0,1,2.16-.36h1.11v4.82h-1.59a7.85,7.85,0,0,0-3.88.76,2.61,2.61,0,0,0-1.31,2.47v12.75Z"/>
        <path class="cls-2" d="M248,112.07a10.28,10.28,0,0,1-4.11-.78,8.54,8.54,0,0,1-3.05-2.19,10,10,0,0,1-1.92-3.43,15.41,15.41,0,0,1,0-9,9.67,9.67,0,0,1,1.88-3.4,8.24,8.24,0,0,1,3-2.19,10,10,0,0,1,4-.78,9.78,9.78,0,0,1,4.2.84A8,8,0,0,1,255,93.42a9.62,9.62,0,0,1,1.72,3.32,13.67,13.67,0,0,1,.58,4.05v1.67H243.53V103a5.09,5.09,0,0,0,1.27,3.62,4.88,4.88,0,0,0,3.76,1.36,5.6,5.6,0,0,0,3.12-.79,9.14,9.14,0,0,0,2.16-2l2.74,3.08a8.56,8.56,0,0,1-3.48,2.82A12,12,0,0,1,248,112.07Zm-.08-17.94a4.06,4.06,0,0,0-3.21,1.36A5.08,5.08,0,0,0,243.53,99v.31H252V99a5.46,5.46,0,0,0-1-3.48A3.63,3.63,0,0,0,247.93,94.13Z"/>
      </g>
      <path class="cls-2" d="M60.3,74.44h-7V56.17H32V97.73l-7,10.16V30.55h7V49.42H53.33V30.55h7Z"/>
      <path class="cls-2" d="M147,68.57a22.17,22.17,0,0,1-16.29,6.69,21.5,21.5,0,0,1-8.78-1.81,22.8,22.8,0,0,1-7.16-4.88,23.17,23.17,0,0,1-4.83-7.21,23,23,0,0,1,0-17.73,23.54,23.54,0,0,1,4.83-7.24,22.31,22.31,0,0,1,7.16-4.88,21.82,21.82,0,0,1,8.78-1.79A22.64,22.64,0,0,1,147,36.36l-4.82,4.94a15.14,15.14,0,0,0-5.35-3.73,16.84,16.84,0,0,0-6.12-1.1,14.39,14.39,0,0,0-6.06,1.29,15.56,15.56,0,0,0-4.92,3.49,16.56,16.56,0,0,0-3.29,5.1,16.21,16.21,0,0,0,0,12.29,16.56,16.56,0,0,0,3.29,5.1,15.53,15.53,0,0,0,4.92,3.48,14.4,14.4,0,0,0,6.06,1.3,15.57,15.57,0,0,0,11.47-4.83Z"/>
      <rect class="cls-2" x="153.51" y="30.55" width="7.02" height="43.89"/>
      <g>
        <polygon class="cls-2" points="195.23 30.55 185.3 30.55 168.32 47.53 173.29 52.49 195.23 30.55"/>
        <polygon class="cls-2" points="168.32 57.46 185.3 74.44 195.23 74.44 173.29 52.49 168.32 57.46"/>
        <rect class="cls-2" x="164.81" y="48.98" width="7.02" height="7.02" transform="translate(12.18 134.39) rotate(-45)"/>
      </g>
      <g>
        <polygon class="cls-2" points="60.3 81.22 53.38 78.67 25.07 119.07 33.92 119.07 60.3 81.22"/>
        <polygon class="cls-2" points="32.1 126.09 250.26 126.09 257.29 119.07 32.1 119.07 32.1 126.09"/>
        <rect class="cls-2" x="25.07" y="119.07" width="7.02" height="7.02"/>
      </g>
      <polygon class="cls-2" points="90.39 30.55 84.03 30.55 64.55 74.44 72.07 74.44 77.23 62.81 80.24 56.06 87.21 40.26 94.23 56.06 97.25 62.81 102.41 74.44 109.93 74.44 90.39 30.55"/>
      <polygon class="cls-2" points="53.27 78.67 53.27 137.32 60.3 144.34 60.3 78.67 53.27 78.67"/>
    </g>
  </g>
</svg>
