<svg width="160" height="102" viewBox="0 0 160 102" fill="none" xmlns="http://www.w3.org/2000/svg">
<g clip-path="url(#clip0_360_123)">
<rect width="160" height="102" fill="white"/>
<path d="M34.5695 41.9634C34.6732 42.309 34.7768 42.6545 34.892 43.0001C34.9606 43.227 35.0413 43.45 35.1339 43.6682C35.2145 43.8755 35.2952 44.0944 35.3873 44.3132C35.4795 44.5321 35.6523 44.9237 35.7905 45.2232L36.1361 45.9028L36.4125 46.4212C36.6199 46.7783 36.8272 47.1354 37.0576 47.4809C37.1267 47.5846 37.2073 47.6883 37.2764 47.8035C37.5414 48.1836 37.8178 48.5637 38.1058 48.9554C38.4053 48.5867 38.6702 48.2066 38.9351 47.8035L39.154 47.4809C39.3844 47.1354 39.5917 46.7898 39.7991 46.4327L40.087 45.8913C40.2022 45.684 40.3059 45.4651 40.4096 45.2463C40.5132 45.0274 40.7091 44.6012 40.8358 44.2787C40.9625 43.9562 41.0085 43.8755 41.0777 43.6797C41.1468 43.4839 41.2504 43.219 41.3196 43.0001C41.3887 42.7812 41.5384 42.309 41.6421 41.9634L41.7227 41.6409C42.1155 40.1053 42.3129 38.5262 42.3102 36.9412H33.9014C33.8987 38.5262 34.096 40.1053 34.4889 41.6409L34.5695 41.9634Z" fill="#074397"/>
<path d="M23.1083 56.1315C28.1137 56.1331 32.9213 54.1778 36.5047 50.6831L36.2628 50.3836C36.0555 50.1187 35.8482 49.8422 35.6523 49.5658L35.468 49.3239L35.0534 48.7134L34.8806 48.4369L34.4889 47.7919L34.3507 47.55L33.9015 46.7206C33.5698 46.0785 33.2775 45.4169 33.026 44.7394V44.7394C32.8993 44.4168 32.7841 44.1058 32.6805 43.7833V43.7027C32.5653 43.3686 32.4616 43.0231 32.3695 42.689C31.4276 44.1611 30.1421 45.3822 28.6236 46.2471C27.105 47.112 25.399 47.5948 23.6524 47.6539C21.9058 47.7131 20.1711 47.3468 18.5975 46.5866C17.0239 45.8264 15.6587 44.6951 14.6195 43.2901C13.5802 41.8851 12.8981 40.2485 12.6318 38.5214C12.3655 36.7942 12.523 35.0282 13.0908 33.3754C13.6586 31.7227 14.6196 30.2327 15.8911 29.0338C17.1627 27.835 18.7065 26.9631 20.3898 26.4935L19.8254 26.1825C19.2495 25.8484 18.6735 25.4913 18.1206 25.1227L17.7866 24.8923C17.2221 24.5122 16.6347 24.1321 16.1278 23.7404H16.0702C15.5058 23.3143 14.9184 22.8765 14.4346 22.4158L14.3424 22.3467C13.8356 21.8859 13.2596 21.333 12.6837 20.8262C11.9348 21.2937 11.2224 21.8174 10.5527 22.3927C7.57966 24.9502 5.46152 28.3571 4.48341 32.1548C3.50531 35.9526 3.7142 39.9588 5.08198 43.6342C6.44975 47.3097 8.91074 50.4778 12.1336 52.7122C15.3565 54.9466 19.1866 56.1399 23.1083 56.1315V56.1315Z" fill="#074397"/>
<path d="M25.2158 16.8867C20.5468 14.1756 16.8386 10.0768 14.6069 5.16052L6.92383 8.6277C8.67683 12.5047 11.1379 16.0206 14.1807 18.9947L14.342 19.1444C14.8488 19.6398 15.3672 20.112 15.897 20.5728C16.9179 21.4582 17.9911 22.2814 19.1108 23.0378L19.4218 23.2452C19.9286 23.5907 20.4585 23.9133 20.9884 24.2243C22.5753 25.1232 24.2316 25.8936 25.9415 26.528H26.0797L27.439 27.0003L30.3302 19.0984C29.8349 18.9025 29.3165 18.7182 28.8097 18.557C27.5708 18.0929 26.3693 17.5345 25.2158 16.8867V16.8867Z" fill="#074397"/>
<path d="M23.1076 28.5668C21.4514 28.5668 19.8323 29.0579 18.4552 29.9781C17.078 30.8983 16.0047 32.2061 15.3709 33.7363C14.737 35.2665 14.5712 36.9503 14.8943 38.5747C15.2174 40.1992 16.015 41.6913 17.1862 42.8625C18.3573 44.0336 19.8495 44.8312 21.4739 45.1543C23.0983 45.4774 24.7821 45.3116 26.3123 44.6778C27.8425 44.0439 29.1504 42.9706 30.0705 41.5935C30.9907 40.2163 31.4819 38.5973 31.4819 36.941C31.4819 34.72 30.5996 32.59 29.0291 31.0195C27.4586 29.4491 25.3286 28.5668 23.1076 28.5668V28.5668ZM25.8722 36.8604C25.3254 36.8604 24.7909 36.6982 24.3363 36.3945C23.8816 36.0907 23.5273 35.6589 23.3181 35.1538C23.1088 34.6486 23.0541 34.0928 23.1607 33.5565C23.2674 33.0202 23.5307 32.5276 23.9173 32.141C24.304 31.7544 24.7966 31.4911 25.3328 31.3844C25.8691 31.2778 26.4249 31.3325 26.9301 31.5417C27.4353 31.751 27.867 32.1053 28.1708 32.5599C28.4746 33.0146 28.6367 33.5491 28.6367 34.0958C28.6337 34.8281 28.3414 35.5295 27.8236 36.0473C27.3058 36.5651 26.6044 36.8573 25.8722 36.8604V36.8604Z" fill="#074397"/>
<path d="M42.3788 90.1122L42.0793 89.8818C41.6531 89.5593 41.2384 89.2368 40.8352 88.9027L40.6048 88.7069C40.2362 88.3959 39.8676 88.0849 39.453 87.7624L39.2917 87.5435C38.9116 87.1864 38.5199 86.8178 38.1398 86.3916C38.0458 86.3092 37.9573 86.2207 37.8749 86.1267C37.4947 85.7466 37.1146 85.3549 36.723 84.9748C36.3544 84.5832 36.0088 84.18 35.6748 83.7653L35.4329 83.4889C35.0988 83.0742 34.7763 82.6595 34.4538 82.2333L34.281 82.0029C33.993 81.6113 33.705 81.2081 33.4401 80.851L33.2788 80.6207C32.9793 80.1714 32.6914 79.7222 32.4034 79.2614C32.3458 79.1578 32.2882 79.0541 32.2191 78.9504C31.9427 78.4782 31.6662 78.0059 31.4013 77.5221C31.1363 77.0383 30.8944 76.543 30.6525 76.0592C30.5949 75.9555 30.5489 75.8403 30.4913 75.7367C30.2609 75.2529 30.042 74.7576 29.8232 74.2507L29.7195 73.9973C29.5237 73.5366 29.3394 73.0758 29.1666 72.6035C29.1666 72.5229 29.1666 72.4423 29.0744 72.3501C28.8901 71.8433 28.7174 71.3249 28.5446 70.8066L28.4409 70.4495C28.2796 69.9196 28.1184 69.3782 27.9802 68.8253C27.8304 68.2724 27.7152 67.6735 27.5885 67.1666L27.5194 66.8095C27.4042 66.2681 27.3121 65.7268 27.2199 65.1739V64.8859C27.1393 64.3791 27.0817 63.8722 27.0241 63.3539V63.0774C26.9665 62.513 26.9319 61.9255 26.8974 61.3726C26.8974 61.2574 26.8974 61.1307 26.8974 61.004C26.8974 60.4127 26.8974 59.8253 26.8974 59.2416C26.8974 58.9076 26.8974 58.5735 26.8974 58.2395L26.644 58.2971C25.5005 58.4732 24.3453 58.5617 23.1883 58.562C18.801 58.5812 14.514 57.25 10.9092 54.7493C13.324 62.8748 17.5312 70.355 23.2208 76.6387C28.9105 82.9224 35.9374 87.8494 43.7841 91.0568H43.7265C43.2312 90.7342 42.805 90.4232 42.3788 90.1122Z" fill="#074397"/>
<path d="M50.9724 16.8868C49.7769 17.5754 48.529 18.1685 47.2402 18.6607L49.9472 26.6202C51.7535 25.9447 53.5057 25.1322 55.1883 24.1897V24.1897C55.7296 23.8787 56.2595 23.5447 56.7779 23.1991L57.0774 23.0033C58.1842 22.2609 59.2459 21.4531 60.2566 20.5843V20.5843C60.7864 20.1351 61.2933 19.6628 61.8001 19.1675C64.8974 16.1792 67.3991 12.63 69.1722 8.70835L61.5006 5.25269C59.2744 10.1233 55.5972 14.1868 50.9724 16.8868V16.8868Z" fill="#074397"/>
<path d="M65.1748 54.8415C61.6071 57.263 57.3918 58.5516 53.08 58.539C51.923 58.5389 50.7678 58.4503 49.6243 58.2741C45.289 57.5682 41.2713 55.5594 38.1054 52.5146L38.0248 52.6183V52.5722C35.5207 54.9629 32.4788 56.717 29.1553 57.6866V58.3547C29.1553 58.6427 29.1553 58.9307 29.1553 59.2186C29.1553 68.7759 32.9487 77.9423 39.7024 84.7046C46.456 91.4669 55.6176 95.272 65.1748 95.2843V54.8415Z" fill="#074397"/>
<path d="M72.0279 33.9C71.3126 29.4193 69.0309 25.3376 65.5888 22.3811C64.9231 21.8059 64.2145 21.2822 63.4693 20.8146V20.8146C62.9395 21.3214 62.4096 21.8167 61.8567 22.289L61.776 22.3581C61.2347 22.8189 60.6933 23.2566 60.1288 23.6828C59.5836 24.0975 59.0307 24.4814 58.4701 24.8347L58.1361 25.065C57.5717 25.4336 56.9842 25.7907 56.4313 26.1248L55.8784 26.4358C57.5617 26.9064 59.1054 27.7791 60.3764 28.9789C61.6475 30.1787 62.6078 31.6695 63.1746 33.3229C63.7414 34.9763 63.8978 36.7427 63.6302 38.47C63.3626 40.1972 62.6791 41.8335 61.6386 43.2379C60.598 44.6423 59.2316 45.7727 57.6571 46.5316C56.0826 47.2905 54.3472 47.6553 52.6004 47.5945C50.8536 47.5337 49.1478 47.0491 47.6299 46.1824C46.112 45.3158 44.8276 44.0932 43.8872 42.6198C43.7951 42.9539 43.6914 43.2994 43.5762 43.6335V43.7141C43.4726 44.0366 43.3574 44.3476 43.2422 44.6702C42.9798 45.345 42.6838 46.0062 42.3552 46.6514V46.6514C42.217 46.9394 42.0557 47.2158 41.906 47.5038L41.7678 47.7342L41.3761 48.3792L41.2033 48.6557L40.7887 49.2662L40.6159 49.5081L39.9938 50.3259L39.752 50.6254C43.3399 54.1117 48.1456 56.0621 53.1484 56.0623V56.0623C55.9258 56.0624 58.6701 55.4596 61.1918 54.2956C63.7135 53.1316 65.9525 51.4341 67.7541 49.3203C69.5558 47.2065 70.8771 44.7269 71.6269 42.0526C72.3767 39.3784 72.5371 36.5732 72.097 33.8309L72.0279 33.9Z" fill="#074397"/>
<path d="M44.7061 36.941C44.7061 38.5973 45.1972 40.2163 46.1174 41.5935C47.0375 42.9706 48.3454 44.0439 49.8756 44.6778C51.4058 45.3116 53.0896 45.4774 54.714 45.1543C56.3385 44.8312 57.8306 44.0336 59.0018 42.8625C60.1729 41.6913 60.9705 40.1992 61.2936 38.5747C61.6167 36.9503 61.4509 35.2665 60.8171 33.7363C60.1832 32.2061 59.1099 30.8983 57.7328 29.9781C56.3556 29.0579 54.7365 28.5668 53.0803 28.5668C50.8602 28.5698 48.732 29.4531 47.1622 31.0229C45.5924 32.5927 44.7091 34.721 44.7061 36.941ZM55.8448 31.2737C56.3916 31.2737 56.9261 31.4358 57.3807 31.7396C57.8353 32.0434 58.1897 32.4751 58.3989 32.9803C58.6081 33.4855 58.6629 34.0413 58.5562 34.5776C58.4496 35.1138 58.1863 35.6064 57.7996 35.9931C57.413 36.3797 56.9204 36.643 56.3841 36.7497C55.8479 36.8563 55.292 36.8016 54.7869 36.5923C54.2817 36.3831 53.85 36.0288 53.5462 35.5741C53.2424 35.1195 53.0803 34.585 53.0803 34.0382C53.0803 33.305 53.3715 32.6019 53.89 32.0834C54.4084 31.565 55.1116 31.2737 55.8448 31.2737V31.2737Z" fill="#074397"/>
<path d="M69.1254 53.5858L69.4594 53.2748C71.7077 51.0272 73.4678 48.3397 74.6295 45.3804C75.7912 42.4212 76.3294 39.254 76.2104 36.0771C76.0915 32.9002 75.318 29.7821 73.9383 26.918C72.5586 24.0539 70.6024 21.5055 68.1923 19.4324L67.4666 18.8449C69.6267 16.2298 71.4245 13.3356 72.8114 10.2403L74.424 6.68095L59.6338 0L58.0327 3.55933C56.1293 7.73069 52.9779 11.2082 49.0134 13.5116C48.0016 14.0818 46.9462 14.571 45.8572 14.9745L42.3324 16.3107L45.9494 26.9311C43.8558 28.4467 42.2922 30.5825 41.48 33.0361H34.7415C34.0542 31.0368 32.8642 29.2478 31.2858 27.8411L35.2714 16.9673L31.8157 15.539C31.2628 15.3201 30.6638 15.1128 30.1109 14.9285C29.0985 14.5287 28.1167 14.0551 27.1736 13.5116C23.2124 11.2075 20.0648 7.72987 18.1658 3.55933L16.5532 0L1.76295 6.68095L3.37559 10.2403C4.782 13.338 6.59911 16.2322 8.77795 18.8449C8.52453 19.0292 8.28263 19.2365 8.05226 19.4324C5.68917 21.4561 3.7605 23.9376 2.38258 26.7271C1.00466 29.5166 0.206036 32.5563 0.0348853 35.6628C-0.136265 38.7694 0.323602 41.8784 1.38675 44.8024C2.4499 47.7264 4.09429 50.4047 6.22075 52.6758L7.1653 55.8551C9.76971 64.5204 14.2677 72.4984 20.3338 79.212C26.4 85.9256 33.8826 91.2068 42.2403 94.6737C50.7437 98.1977 59.9372 99.7417 69.1254 99.1891V53.5858Z" fill="#11FFBB"/>
<path d="M34.5695 41.9633C34.6732 42.3088 34.7768 42.6544 34.892 43C34.9606 43.2269 35.0413 43.4499 35.1339 43.6681C35.2145 43.8754 35.2952 44.0943 35.3873 44.3131C35.4795 44.532 35.6523 44.9236 35.7905 45.2231L36.1361 45.9027L36.4125 46.4211C36.6199 46.7782 36.8272 47.1352 37.0576 47.4808C37.1267 47.5845 37.2073 47.6882 37.2764 47.8033C37.5414 48.1835 37.8178 48.5636 38.1058 48.9552C38.4053 48.5866 38.6702 48.2065 38.9351 47.8033L39.154 47.4808C39.3844 47.1352 39.5917 46.7897 39.7991 46.4326L40.087 45.8912C40.2022 45.6839 40.3059 45.465 40.4096 45.2462C40.5132 45.0273 40.7091 44.6011 40.8358 44.2786C40.9625 43.956 41.0085 43.8754 41.0777 43.6796C41.1468 43.4838 41.2504 43.2188 41.3196 43C41.3887 42.7811 41.5384 42.3088 41.6421 41.9633L41.7227 41.6407C42.1155 40.1051 42.3129 38.5261 42.3102 36.941H33.9014C33.8987 38.5261 34.096 40.1051 34.4889 41.6407L34.5695 41.9633Z" fill="#074397"/>
<path d="M23.1073 56.1315C28.1127 56.1331 32.9203 54.1778 36.5038 50.6831L36.2619 50.3836C36.0545 50.1187 35.8472 49.8422 35.6514 49.5658L35.4671 49.3239L35.0524 48.7134L34.8796 48.4369L34.488 47.7919L34.3497 47.55L33.9005 46.7206C33.5688 46.0785 33.2765 45.4169 33.0251 44.7394V44.7394C32.8984 44.4168 32.7832 44.1058 32.6795 43.7833V43.7027C32.5643 43.3686 32.4606 43.0231 32.3685 42.689C31.4267 44.1611 30.1411 45.3822 28.6226 46.2471C27.104 47.112 25.398 47.5948 23.6514 47.6539C21.9049 47.7131 20.1701 47.3468 18.5965 46.5866C17.0229 45.8264 15.6577 44.6951 14.6185 43.2901C13.5792 41.8851 12.8971 40.2485 12.6308 38.5214C12.3645 36.7942 12.522 35.0282 13.0898 33.3754C13.6576 31.7227 14.6186 30.2327 15.8902 29.0338C17.1617 27.835 18.7056 26.9631 20.3889 26.4935L19.8244 26.1825C19.2485 25.8484 18.6725 25.4913 18.1196 25.1227L17.7856 24.8923C17.2212 24.5122 16.6337 24.1321 16.1269 23.7404H16.0693C15.5048 23.3143 14.9174 22.8765 14.4336 22.4158L14.3414 22.3467C13.8346 21.8859 13.2587 21.333 12.6827 20.8262C11.9338 21.2937 11.2214 21.8174 10.5517 22.3927C7.57868 24.9502 5.46054 28.3571 4.48244 32.1548C3.50433 35.9526 3.71323 39.9588 5.081 43.6342C6.44877 47.3097 8.90976 50.4778 12.1327 52.7122C15.3556 54.9466 19.1856 56.1399 23.1073 56.1315V56.1315Z" fill="#074397"/>
<path d="M25.2148 16.8866C20.5458 14.1754 16.8376 10.0767 14.6059 5.1604L6.92285 8.62758C8.67586 12.5046 11.1369 16.0204 14.1797 18.9946L14.341 19.1443C14.8478 19.6396 15.3662 20.1119 15.8961 20.5727C16.9169 21.4581 17.9901 22.2813 19.1098 23.0377L19.4208 23.245C19.9277 23.5906 20.4575 23.9131 20.9874 24.2241C22.5743 25.123 24.2306 25.8934 25.9405 26.5279H26.0787L27.438 27.0002L30.3292 19.0982C29.8339 18.9024 29.3156 18.7181 28.8087 18.5569C27.5699 18.0927 26.3684 17.5344 25.2148 16.8866V16.8866Z" fill="#074397"/>
<path d="M23.1076 28.5668C21.4514 28.5668 19.8323 29.0579 18.4552 29.9781C17.078 30.8983 16.0047 32.2061 15.3709 33.7363C14.737 35.2665 14.5712 36.9503 14.8943 38.5747C15.2174 40.1992 16.015 41.6913 17.1862 42.8625C18.3573 44.0336 19.8495 44.8312 21.4739 45.1543C23.0983 45.4774 24.7821 45.3116 26.3123 44.6778C27.8425 44.0439 29.1504 42.9706 30.0705 41.5935C30.9907 40.2163 31.4819 38.5973 31.4819 36.941C31.4819 34.72 30.5996 32.59 29.0291 31.0195C27.4586 29.4491 25.3286 28.5668 23.1076 28.5668V28.5668ZM25.8722 36.8604C25.3254 36.8604 24.7909 36.6982 24.3363 36.3945C23.8816 36.0907 23.5273 35.6589 23.3181 35.1538C23.1088 34.6486 23.0541 34.0928 23.1607 33.5565C23.2674 33.0202 23.5307 32.5276 23.9173 32.141C24.304 31.7544 24.7966 31.4911 25.3328 31.3844C25.8691 31.2778 26.4249 31.3325 26.9301 31.5417C27.4353 31.751 27.867 32.1053 28.1708 32.5599C28.4746 33.0146 28.6367 33.5491 28.6367 34.0958C28.6337 34.8281 28.3414 35.5295 27.8236 36.0473C27.3058 36.5651 26.6044 36.8573 25.8722 36.8604V36.8604Z" fill="#074397"/>
<path d="M42.3788 90.1122L42.0793 89.8818C41.6531 89.5593 41.2384 89.2368 40.8352 88.9027L40.6048 88.7069C40.2362 88.3959 39.8676 88.0849 39.453 87.7624L39.2917 87.5435C38.9116 87.1864 38.5199 86.8178 38.1398 86.3916C38.0458 86.3092 37.9573 86.2207 37.8749 86.1267C37.4947 85.7466 37.1146 85.3549 36.723 84.9748C36.3544 84.5832 36.0088 84.18 35.6748 83.7653L35.4329 83.4889C35.0988 83.0742 34.7763 82.6595 34.4538 82.2333L34.281 82.0029C33.993 81.6113 33.705 81.2081 33.4401 80.851L33.2788 80.6207C32.9793 80.1714 32.6914 79.7222 32.4034 79.2614C32.3458 79.1578 32.2882 79.0541 32.2191 78.9504C31.9427 78.4782 31.6662 78.0059 31.4013 77.5221C31.1363 77.0383 30.8944 76.543 30.6525 76.0592C30.5949 75.9555 30.5489 75.8403 30.4913 75.7367C30.2609 75.2529 30.042 74.7576 29.8232 74.2507L29.7195 73.9973C29.5237 73.5366 29.3394 73.0758 29.1666 72.6035C29.1666 72.5229 29.1666 72.4423 29.0744 72.3501C28.8901 71.8433 28.7174 71.3249 28.5446 70.8066L28.4409 70.4495C28.2796 69.9196 28.1184 69.3782 27.9802 68.8253C27.8304 68.2724 27.7152 67.6735 27.5885 67.1666L27.5194 66.8095C27.4042 66.2681 27.3121 65.7268 27.2199 65.1739V64.8859C27.1393 64.3791 27.0817 63.8722 27.0241 63.3539V63.0774C26.9665 62.513 26.9319 61.9255 26.8974 61.3726C26.8974 61.2574 26.8974 61.1307 26.8974 61.004C26.8974 60.4127 26.8974 59.8253 26.8974 59.2416C26.8974 58.9076 26.8974 58.5735 26.8974 58.2395L26.644 58.2971C25.5005 58.4732 24.3453 58.5617 23.1883 58.562C18.801 58.5812 14.514 57.25 10.9092 54.7493C13.324 62.8748 17.5312 70.355 23.2208 76.6387C28.9105 82.9224 35.9374 87.8494 43.7841 91.0568H43.7265C43.2312 90.7342 42.805 90.4232 42.3788 90.1122Z" fill="#074397"/>
<path d="M50.9704 16.8868C49.775 17.5754 48.5271 18.1685 47.2383 18.6607L49.9452 26.6202C51.7516 25.9447 53.5037 25.1322 55.1863 24.1897V24.1897C55.7277 23.8787 56.2576 23.5447 56.7759 23.1991L57.0754 23.0033C58.1823 22.2609 59.2439 21.4531 60.2546 20.5843V20.5843C60.7845 20.1351 61.2913 19.6628 61.7981 19.1675C64.8955 16.1792 67.3972 12.63 69.1702 8.70835L61.4987 5.25269C59.2724 10.1233 55.5952 14.1868 50.9704 16.8868V16.8868Z" fill="#074397"/>
<path d="M65.1748 54.8415C61.6071 57.263 57.3918 58.5516 53.08 58.539C51.923 58.5389 50.7678 58.4503 49.6243 58.2741C45.289 57.5682 41.2713 55.5594 38.1054 52.5146L38.0248 52.6183V52.5722C35.5207 54.9629 32.4788 56.717 29.1553 57.6866V58.3547C29.1553 58.6427 29.1553 58.9307 29.1553 59.2186C29.1553 68.7759 32.9487 77.9423 39.7024 84.7046C46.456 91.4669 55.6176 95.272 65.1748 95.2843V54.8415Z" fill="#074397"/>
<path d="M72.0288 33.9C71.3136 29.4193 69.0319 25.3376 65.5898 22.3811C64.9241 21.8059 64.2155 21.2822 63.4703 20.8146V20.8146C62.9404 21.3214 62.4106 21.8167 61.8577 22.289L61.777 22.3581C61.2356 22.8189 60.6943 23.2566 60.1298 23.6828C59.5846 24.0975 59.0317 24.4814 58.4711 24.8347L58.1371 25.065C57.5726 25.4336 56.9852 25.7907 56.4323 26.1248L55.8794 26.4358C57.5627 26.9064 59.1064 27.7791 60.3774 28.9789C61.6485 30.1787 62.6088 31.6695 63.1756 33.3229C63.7424 34.9763 63.8988 36.7427 63.6312 38.47C63.3636 40.1972 62.6801 41.8335 61.6395 43.2379C60.599 44.6423 59.2326 45.7727 57.6581 46.5316C56.0836 47.2905 54.3482 47.6553 52.6014 47.5945C50.8546 47.5337 49.1488 47.0491 47.6309 46.1824C46.113 45.3158 44.8285 44.0932 43.8882 42.6198C43.7961 42.9539 43.6924 43.2994 43.5772 43.6335V43.7141C43.4735 44.0366 43.3583 44.3476 43.2431 44.6702C42.9808 45.345 42.6847 46.0062 42.3562 46.6514V46.6514C42.218 46.9394 42.0567 47.2158 41.907 47.5038L41.7687 47.7342L41.3771 48.3792L41.2043 48.6557L40.7896 49.2662L40.6168 49.5081L39.9948 50.3259L39.7529 50.6254C43.3409 54.1117 48.1466 56.0621 53.1494 56.0623V56.0623C55.9268 56.0624 58.6711 55.4596 61.1928 54.2956C63.7145 53.1316 65.9535 51.4341 67.7551 49.3203C69.5567 47.2065 70.8781 44.7269 71.6279 42.0526C72.3777 39.3784 72.5381 36.5732 72.0979 33.8309L72.0288 33.9Z" fill="#074397"/>
<path d="M44.7051 36.941C44.7051 38.5973 45.1962 40.2163 46.1164 41.5935C47.0366 42.9706 48.3444 44.0439 49.8746 44.6778C51.4048 45.3116 53.0886 45.4774 54.713 45.1543C56.3375 44.8312 57.8296 44.0336 59.0008 42.8625C60.1719 41.6913 60.9695 40.1992 61.2926 38.5747C61.6157 36.9503 61.4499 35.2665 60.8161 33.7363C60.1823 32.2061 59.1089 30.8983 57.7318 29.9781C56.3546 29.0579 54.7356 28.5668 53.0793 28.5668C50.8593 28.5698 48.731 29.4531 47.1612 31.0229C45.5914 32.5927 44.7081 34.721 44.7051 36.941ZM55.8438 31.2737C56.3906 31.2737 56.9251 31.4358 57.3797 31.7396C57.8343 32.0434 58.1887 32.4751 58.3979 32.9803C58.6072 33.4855 58.6619 34.0413 58.5552 34.5776C58.4486 35.1138 58.1853 35.6064 57.7987 35.9931C57.412 36.3797 56.9194 36.643 56.3832 36.7497C55.8469 36.8563 55.291 36.8016 54.7859 36.5923C54.2807 36.3831 53.849 36.0288 53.5452 35.5741C53.2414 35.1195 53.0793 34.585 53.0793 34.0382C53.0793 33.305 53.3706 32.6019 53.889 32.0834C54.4075 31.565 55.1106 31.2737 55.8438 31.2737V31.2737Z" fill="#074397"/>
<path d="M86.9573 59.9669C86.9601 59.9045 86.9492 59.8422 86.9253 59.7845C86.9014 59.7268 86.8652 59.675 86.8191 59.6329C86.6869 59.5231 86.5342 59.4409 86.3698 59.391C86.1625 59.3219 85.8745 59.2528 85.5174 59.1721L84.1582 58.8842C83.6956 58.786 83.2468 58.6313 82.822 58.4234C82.4992 58.2649 82.2099 58.0459 81.9696 57.7783C81.7517 57.5402 81.5972 57.251 81.5204 56.9375C81.4254 56.6081 81.3788 56.2666 81.3821 55.9238C81.3866 55.5474 81.4772 55.177 81.6471 54.841C81.8239 54.478 82.075 54.1562 82.3843 53.8965C82.7247 53.6059 83.1149 53.3795 83.5362 53.2284C84.0624 53.0498 84.6165 52.9678 85.1718 52.9865C85.7127 52.979 86.2519 53.0488 86.773 53.1938C87.2 53.3101 87.6075 53.4886 87.9825 53.7237C88.2911 53.9191 88.5542 54.1783 88.7542 54.4839C88.9296 54.7451 89.0365 55.0461 89.0652 55.3594C89.0727 55.4239 89.0639 55.4893 89.0398 55.5496C89.0157 55.61 88.9769 55.6633 88.927 55.7049C88.881 55.7531 88.8255 55.7913 88.7641 55.8171C88.7027 55.8429 88.6365 55.8557 88.5699 55.8547H87.1531C87.0074 55.8648 86.8622 55.8285 86.7384 55.751C86.6463 55.6819 86.5426 55.6128 86.4389 55.5206C86.3035 55.4253 86.1564 55.3479 86.0012 55.2903C85.7306 55.2201 85.4513 55.189 85.1718 55.1981C84.8382 55.1886 84.5058 55.2433 84.1927 55.3594C84.0672 55.3957 83.9578 55.4737 83.8825 55.5804C83.8071 55.6872 83.7703 55.8164 83.7781 55.9468C83.7738 56.065 83.8059 56.1816 83.8702 56.2809C83.9734 56.4016 84.1095 56.4896 84.2619 56.5343C84.5217 56.6276 84.7872 56.7046 85.0567 56.7647L86.3698 57.0526C87.2398 57.1846 88.046 57.5877 88.6736 58.2045C89.1207 58.7127 89.3593 59.371 89.3417 60.0476C89.3379 60.4218 89.243 60.7895 89.0652 61.1188C88.8669 61.4809 88.5964 61.7985 88.2704 62.0518C87.8805 62.3447 87.4445 62.5705 86.9803 62.7199C86.424 62.8881 85.8451 62.9697 85.264 62.9618C84.6834 62.9749 84.1043 62.8972 83.5477 62.7315C83.0998 62.6059 82.6756 62.4074 82.2921 62.144C81.976 61.9216 81.706 61.64 81.4973 61.3146C81.3278 61.0439 81.2288 60.735 81.2094 60.4162C81.1985 60.3508 81.2045 60.2837 81.2266 60.2213C81.2488 60.1588 81.2865 60.103 81.3361 60.0591C81.4372 59.9684 81.5688 59.919 81.7047 59.9209H83.11C83.184 59.9136 83.2588 59.9211 83.33 59.9428C83.4011 59.9645 83.4673 60.0001 83.5246 60.0476L83.8357 60.3355C83.9801 60.4662 84.1482 60.5678 84.331 60.635C84.6321 60.7317 84.948 60.7746 85.264 60.7617H85.8284C86.0131 60.7399 86.1947 60.6974 86.3698 60.635C86.5232 60.5955 86.6653 60.5205 86.7845 60.4162C86.8564 60.3686 86.9118 60.2997 86.9427 60.2192C86.9737 60.1387 86.9788 60.0505 86.9573 59.9669Z" fill="#11FFBB"/>
<path d="M95.3662 52.9865C95.9904 52.979 96.6109 53.0844 97.1977 53.2975C97.7182 53.4906 98.1956 53.7842 98.603 54.1614C99.4117 54.9056 99.9026 55.9328 99.9737 57.0296C99.9811 57.1716 99.9811 57.3138 99.9737 57.4558V58.4694C99.9815 58.6076 99.9815 58.746 99.9737 58.8841C99.9345 59.4327 99.7898 59.9685 99.5475 60.4622C99.3251 60.9495 99.0034 61.385 98.603 61.7408C98.1921 62.1105 97.7154 62.3996 97.1977 62.5932C96.0118 63.0076 94.7205 63.0076 93.5347 62.5932C93.0295 62.385 92.5653 62.0886 92.1639 61.7178C91.7704 61.3557 91.4498 60.9217 91.2194 60.4392C90.9862 59.9428 90.8457 59.408 90.8047 58.8611C90.8047 58.7536 90.8047 58.6154 90.8047 58.4464C90.8047 58.2851 90.8047 58.1124 90.8047 57.9396C90.8047 57.7668 90.8047 57.6055 90.8047 57.4327C90.8047 57.26 90.8047 57.1217 90.8047 57.0066C90.8346 56.4579 90.9756 55.921 91.2194 55.4285C91.4485 54.9418 91.7692 54.5038 92.1639 54.1383C92.5773 53.7633 93.0581 53.4702 93.5807 53.2744C94.1542 53.0736 94.7587 52.9761 95.3662 52.9865ZM97.5893 57.1217C97.5668 56.792 97.4766 56.4705 97.3244 56.1772C97.1917 55.9426 97.0111 55.7385 96.7945 55.5782C96.5911 55.4324 96.3597 55.3305 96.1149 55.2787C95.6215 55.1711 95.1108 55.1711 94.6174 55.2787C94.3726 55.3305 94.1412 55.4324 93.9378 55.5782C93.7153 55.732 93.5335 55.9376 93.408 56.1772C93.2558 56.4705 93.1656 56.792 93.143 57.1217C93.1358 57.2445 93.1358 57.3676 93.143 57.4903C93.143 57.6401 93.143 57.7898 93.143 57.9511C93.143 58.1124 93.143 58.2621 93.143 58.4119C93.135 58.5346 93.135 58.6577 93.143 58.7805C93.1672 59.1099 93.2573 59.4311 93.408 59.725C93.5338 59.9612 93.7158 60.163 93.9378 60.3125C94.1406 60.4618 94.3719 60.5676 94.6174 60.6235C95.1108 60.7311 95.6215 60.7311 96.1149 60.6235C96.3604 60.5676 96.5917 60.4618 96.7945 60.3125C97.0108 60.1565 97.1915 59.9562 97.3244 59.725C97.4751 59.4311 97.5652 59.1099 97.5893 58.7805C97.5963 58.6577 97.5963 58.5346 97.5893 58.4119V57.4903C97.5967 57.3599 97.5967 57.2291 97.5893 57.0987V57.1217Z" fill="#11FFBB"/>
<path d="M104.016 57.2829C104.002 57.4977 104.002 57.7131 104.016 57.9279C104.003 58.1428 104.003 58.3582 104.016 58.573C104.042 58.908 104.128 59.2356 104.269 59.5406C104.397 59.7883 104.569 60.0108 104.776 60.1972C104.976 60.3574 105.202 60.4821 105.444 60.5658C105.691 60.6387 105.947 60.6774 106.204 60.6809C106.463 60.6851 106.722 60.6619 106.976 60.6118C107.162 60.5642 107.341 60.4905 107.506 60.393C107.647 60.3081 107.775 60.2033 107.886 60.082C107.994 59.9579 108.094 59.8271 108.186 59.6903C108.263 59.5735 108.347 59.4619 108.439 59.3563C108.483 59.3074 108.536 59.2679 108.595 59.2402C108.655 59.2124 108.719 59.1971 108.785 59.195H110.19C110.257 59.1947 110.322 59.2078 110.384 59.2335C110.445 59.2593 110.501 59.2971 110.547 59.3448C110.597 59.3864 110.636 59.4397 110.66 59.5001C110.684 59.5604 110.693 59.6258 110.685 59.6903C110.653 60.0161 110.559 60.3327 110.409 60.6234C110.213 61.0268 109.939 61.3871 109.603 61.6831C109.198 62.049 108.729 62.3379 108.22 62.5355C107.577 62.7802 106.892 62.8976 106.204 62.8811C105.582 62.889 104.964 62.7755 104.384 62.547C103.861 62.3335 103.384 62.0205 102.979 61.6255C102.58 61.2489 102.262 60.7941 102.046 60.2893C101.816 59.7798 101.675 59.2342 101.631 58.6767C101.612 58.4313 101.612 58.1848 101.631 57.9395C101.613 57.6902 101.613 57.44 101.631 57.1907C101.667 56.6332 101.804 56.0867 102.035 55.5781C102.259 55.0711 102.575 54.6102 102.968 54.2189C103.373 53.8275 103.85 53.5184 104.373 53.3089C104.954 53.0701 105.577 52.9525 106.204 52.9633C106.894 52.9446 107.579 53.0661 108.22 53.3204C108.731 53.5136 109.2 53.8029 109.603 54.1728C109.939 54.4647 110.213 54.8212 110.409 55.221C110.561 55.515 110.655 55.8358 110.685 56.1655C110.69 56.2298 110.68 56.2944 110.656 56.3542C110.632 56.4141 110.595 56.4677 110.547 56.5111C110.45 56.6024 110.323 56.6556 110.19 56.6609H108.785C108.718 56.6588 108.653 56.6423 108.593 56.6124C108.533 56.5826 108.481 56.5402 108.439 56.4881C108.348 56.3863 108.263 56.2785 108.186 56.1655C108.082 56.0158 107.99 55.8891 107.886 55.7624C107.775 55.641 107.647 55.5363 107.506 55.4514C107.342 55.3529 107.163 55.2828 106.976 55.244C106.722 55.1939 106.463 55.1708 106.204 55.1749C105.947 55.1727 105.69 55.2116 105.444 55.2901C105.2 55.3693 104.973 55.4944 104.776 55.6587C104.566 55.8378 104.394 56.0571 104.269 56.3038C104.129 56.6133 104.044 56.9444 104.016 57.2829V57.2829Z" fill="#11FFBB"/>
<path d="M114.671 49.6575C114.802 49.6605 114.926 49.7136 115.018 49.8058C115.11 49.8981 115.163 50.0224 115.166 50.1528V51.5927C115.166 51.6575 115.153 51.7216 115.127 51.781C115.102 51.8405 115.064 51.894 115.017 51.9383C114.926 52.0317 114.802 52.0855 114.671 52.088H113.093C112.959 52.0849 112.832 52.0314 112.736 51.9383C112.648 51.8448 112.598 51.7212 112.598 51.5927V50.1528C112.597 50.089 112.609 50.0255 112.632 49.9662C112.656 49.9069 112.691 49.8529 112.736 49.8073C112.782 49.7591 112.837 49.7209 112.899 49.6951C112.96 49.6693 113.026 49.6565 113.093 49.6575H114.671ZM115.074 62.2016C115.075 62.2682 115.062 62.3343 115.037 62.3958C115.011 62.4572 114.973 62.5127 114.925 62.5587C114.879 62.6034 114.825 62.6386 114.766 62.6623C114.706 62.6861 114.643 62.6978 114.579 62.6969H113.185C113.119 62.7002 113.053 62.6896 112.992 62.6659C112.93 62.6422 112.874 62.6058 112.828 62.5592C112.781 62.5125 112.745 62.4566 112.721 62.395C112.697 62.3334 112.687 62.2675 112.69 62.2016V53.6431C112.689 53.5792 112.701 53.5158 112.724 53.4564C112.748 53.3971 112.783 53.3431 112.828 53.2975C112.874 53.2493 112.93 53.2111 112.991 53.1853C113.052 53.1596 113.119 53.1468 113.185 53.1477H114.579C114.709 53.1507 114.834 53.2038 114.926 53.2961C115.018 53.3883 115.071 53.5126 115.074 53.6431V62.2016Z" fill="#11FFBB"/>
<path d="M117.607 55.4974C117.669 55.2071 117.782 54.9302 117.941 54.6796C118.143 54.3603 118.401 54.0795 118.701 53.8502C119.045 53.5728 119.435 53.3583 119.853 53.2167C120.396 53.0407 120.965 52.9627 121.535 52.9863C122.11 52.9772 122.682 53.0628 123.228 53.2397C123.705 53.3882 124.144 53.6355 124.518 53.9654C124.884 54.2796 125.171 54.6738 125.359 55.1173C125.561 55.6464 125.659 56.2097 125.647 56.776V62.2014C125.648 62.268 125.636 62.3341 125.61 62.3956C125.584 62.457 125.546 62.5125 125.498 62.5585C125.452 62.6037 125.398 62.6393 125.339 62.6631C125.28 62.6869 125.216 62.6983 125.152 62.6967H123.758C123.694 62.6983 123.631 62.6869 123.571 62.6631C123.512 62.6393 123.458 62.6037 123.413 62.5585C123.364 62.5125 123.326 62.457 123.301 62.3956C123.275 62.3341 123.262 62.268 123.263 62.2014V61.6024C122.954 61.9906 122.56 62.302 122.111 62.5124C121.534 62.7763 120.903 62.9025 120.268 62.881C119.788 62.8862 119.31 62.8162 118.851 62.6737C118.467 62.5495 118.114 62.3454 117.814 62.0747C117.531 61.8237 117.307 61.5129 117.158 61.1647C117.002 60.801 116.923 60.4086 116.928 60.0128C116.909 59.6333 116.981 59.2549 117.138 58.9086C117.294 58.5622 117.53 58.2578 117.826 58.0201C118.536 57.5026 119.363 57.17 120.233 57.0525L123.228 56.5341C123.248 56.3294 123.212 56.1231 123.125 55.9367C123.038 55.7503 122.903 55.5907 122.733 55.4744C122.36 55.2572 121.932 55.1494 121.501 55.1634C121.256 55.1474 121.011 55.1909 120.786 55.2901C120.604 55.3786 120.437 55.4953 120.291 55.6357C120.2 55.7161 120.099 55.7857 119.992 55.843C119.889 55.8613 119.783 55.8613 119.681 55.843H117.976C117.863 55.8477 117.752 55.8108 117.665 55.7393C117.638 55.7059 117.618 55.6668 117.608 55.6249C117.599 55.5831 117.598 55.5395 117.607 55.4974ZM120.671 60.6809C121.062 60.6889 121.452 60.6305 121.823 60.5081C122.122 60.4024 122.4 60.2423 122.641 60.0359C122.848 59.8525 123.017 59.6292 123.136 59.3793C123.24 59.1392 123.295 58.8807 123.297 58.619V58.4347L120.798 58.884C120.414 58.9231 120.043 59.0492 119.715 59.2526C119.609 59.3305 119.523 59.4331 119.465 59.5514C119.407 59.6697 119.378 59.8004 119.381 59.9322C119.383 60.0561 119.423 60.1764 119.495 60.2772C119.567 60.378 119.668 60.4546 119.784 60.4966C120.062 60.6234 120.365 60.6864 120.671 60.6809Z" fill="#11FFBB"/>
<path d="M130.486 62.2016C130.483 62.3353 130.429 62.4629 130.336 62.5587C130.243 62.647 130.119 62.6964 129.99 62.697H128.585C128.457 62.6964 128.333 62.647 128.24 62.5587C128.146 62.4629 128.093 62.3353 128.09 62.2016V50.1529C128.092 50.0225 128.146 49.8983 128.24 49.8073C128.284 49.76 128.337 49.7223 128.397 49.6965C128.456 49.6708 128.52 49.6575 128.585 49.6576H129.99C130.055 49.6575 130.119 49.6708 130.179 49.6965C130.238 49.7223 130.292 49.76 130.336 49.8073C130.429 49.8983 130.483 50.0225 130.486 50.1529V62.2016Z" fill="#11FFBB"/>
<path d="M90.7107 80.2979C90.7101 80.4264 90.6607 80.55 90.5725 80.6435C90.4766 80.7366 90.3491 80.7901 90.2154 80.7932H88.8216C88.6912 80.7907 88.567 80.7369 88.4761 80.6435C88.4287 80.5992 88.391 80.5457 88.3652 80.4862C88.3395 80.4268 88.3262 80.3627 88.3263 80.2979V75.6903C88.3556 75.0595 88.1776 74.4365 87.8195 73.9164C87.6248 73.6897 87.3794 73.5121 87.1032 73.398C86.827 73.284 86.5278 73.2366 86.2299 73.2598C85.9416 73.2474 85.6542 73.2999 85.3891 73.4136C85.1239 73.5272 84.8876 73.6991 84.6979 73.9164C84.3055 74.4019 84.0938 75.0085 84.0989 75.6327V80.2403C84.0959 80.3707 84.0428 80.495 83.9506 80.5873C83.8583 80.6795 83.734 80.7327 83.6036 80.7356H82.2443C82.1139 80.7327 81.9896 80.6795 81.8973 80.5873C81.8051 80.495 81.752 80.3707 81.749 80.2403V68.2491C81.749 68.1167 81.8008 67.9895 81.8934 67.8948C81.986 67.8 82.1119 67.7453 82.2443 67.7423H83.6496C83.7821 67.7453 83.908 67.8 84.0006 67.8948C84.0932 67.9895 84.145 68.1167 84.145 68.2491V72.154C84.4714 71.8503 84.8448 71.6013 85.2508 71.4168C85.7275 71.1992 86.2474 71.0929 86.7713 71.1058C87.4313 71.0666 88.0919 71.1727 88.7064 71.4168C89.1571 71.6298 89.5516 71.9454 89.8583 72.3383C90.1799 72.7444 90.408 73.2164 90.5264 73.7206C90.6537 74.2603 90.7156 74.8133 90.7107 75.3678V80.2979Z" fill="#11FFBB"/>
<path d="M92.8074 73.5937C92.867 73.2992 92.9803 73.018 93.1415 72.7644C93.3438 72.4451 93.6012 72.1643 93.9017 71.935C94.2495 71.6638 94.6383 71.4499 95.0536 71.3015C95.6078 71.1238 96.1882 71.042 96.7699 71.0596C97.3434 71.0525 97.9146 71.1341 98.4632 71.3015C98.9395 71.45 99.3791 71.6973 99.7533 72.0272C100.119 72.3405 100.407 72.7349 100.594 73.1791C100.787 73.7218 100.873 74.2968 100.848 74.8723V80.2747C100.847 80.4032 100.798 80.5268 100.709 80.6203C100.614 80.7134 100.486 80.7669 100.352 80.77H98.9585C98.8938 80.7694 98.8299 80.7559 98.7706 80.7301C98.7112 80.7044 98.6576 80.6671 98.6129 80.6203C98.5656 80.576 98.5279 80.5225 98.5021 80.463C98.4764 80.4036 98.4631 80.3395 98.4632 80.2747V79.6642C98.159 80.0567 97.7636 80.3691 97.3113 80.5742C96.7325 80.8476 96.0965 80.9779 95.4568 80.9543C94.9796 80.9572 94.5051 80.8833 94.0515 80.7354C93.6608 80.6187 93.3022 80.4138 93.0033 80.1365C92.7174 79.8876 92.4927 79.5763 92.3467 79.2265C92.1906 78.8627 92.1121 78.4704 92.1163 78.0746C92.0972 77.6966 92.1688 77.3196 92.3251 76.9749C92.4814 76.6303 92.7179 76.328 93.0148 76.0933C93.7208 75.5674 94.5495 75.2304 95.4222 75.1142L98.4171 74.5959C98.4367 74.3911 98.4011 74.1848 98.314 73.9985C98.2269 73.8121 98.0915 73.6525 97.9218 73.5362C97.5685 73.3452 97.1714 73.2499 96.7699 73.2597C96.5256 73.2509 96.2822 73.2941 96.0558 73.3864C95.8762 73.4794 95.7097 73.5956 95.5604 73.732C95.4741 73.8188 95.3726 73.8891 95.261 73.9393C95.1581 73.9579 95.0528 73.9579 94.9499 73.9393H93.2106C93.0964 73.9398 92.9859 73.8989 92.8996 73.8241C92.8666 73.7962 92.8409 73.7605 92.8249 73.7204C92.8088 73.6802 92.8028 73.6368 92.8074 73.5937V73.5937ZM95.8715 78.7657C96.2626 78.7758 96.6524 78.7173 97.0233 78.5929C97.3227 78.4872 97.5999 78.3271 97.8412 78.1207C98.0487 77.9373 98.2172 77.714 98.3365 77.4641C98.4405 77.228 98.4954 76.9733 98.4978 76.7154V76.5311L95.9982 76.9688C95.6122 77.0077 95.241 77.138 94.9154 77.3489C94.8085 77.4236 94.7219 77.5239 94.6636 77.6406C94.6053 77.7572 94.577 77.8866 94.5813 78.017C94.5817 78.1413 94.6207 78.2624 94.6929 78.3635C94.7651 78.4646 94.867 78.5408 94.9845 78.5814C95.2631 78.7071 95.5659 78.77 95.8715 78.7657V78.7657Z" fill="#11FFBB"/>
<path d="M104.983 75.3677C104.937 75.7965 104.937 76.229 104.983 76.6578C105.013 76.9935 105.102 77.3212 105.248 77.6254C105.361 77.8821 105.535 78.1075 105.755 78.2819C105.953 78.4444 106.179 78.5693 106.423 78.6505C106.664 78.729 106.917 78.7679 107.171 78.7657C107.43 78.7705 107.689 78.7473 107.943 78.6966C108.132 78.6561 108.311 78.582 108.473 78.4778C108.616 78.3964 108.745 78.2913 108.853 78.1667C108.965 78.0456 109.065 77.9145 109.153 77.7751C109.233 77.6714 109.314 77.5562 109.418 77.4411C109.46 77.3905 109.513 77.3498 109.572 77.3219C109.632 77.2941 109.697 77.2797 109.763 77.2798H111.157C111.224 77.2788 111.29 77.2916 111.351 77.3174C111.413 77.3432 111.468 77.3813 111.514 77.4295C111.564 77.4712 111.603 77.5245 111.627 77.5849C111.651 77.6452 111.66 77.7106 111.652 77.7751C111.622 78.1012 111.528 78.4181 111.376 78.7081C111.182 79.1093 110.912 79.4692 110.581 79.7679C110.174 80.1316 109.706 80.4202 109.199 80.6203C108.542 80.8737 107.841 80.995 107.137 80.9774C106.542 80.9883 105.952 80.882 105.398 80.6646C104.845 80.4472 104.34 80.1229 103.912 79.7103C103.527 79.3108 103.222 78.8416 103.013 78.328C102.782 77.8185 102.642 77.2729 102.598 76.7154C102.564 76.4863 102.541 76.2556 102.529 76.0242C102.529 75.7478 102.529 75.4944 102.529 75.264C102.565 74.7064 102.701 74.16 102.932 73.6513C103.158 73.1456 103.478 72.688 103.877 72.3036C104.279 71.906 104.757 71.5927 105.282 71.3821C105.872 71.1481 106.503 71.0383 107.137 71.0596C107.829 71.043 108.517 71.1604 109.164 71.4052C109.672 71.6052 110.14 71.8938 110.546 72.2576C110.877 72.5562 111.147 72.9161 111.341 73.3173C111.492 73.608 111.586 73.9246 111.618 74.2503C111.625 74.3149 111.616 74.3803 111.592 74.4406C111.568 74.5009 111.529 74.5543 111.479 74.5959C111.433 74.6441 111.378 74.6823 111.317 74.7081C111.255 74.7338 111.189 74.7466 111.122 74.7456H109.763C109.697 74.7458 109.632 74.7314 109.572 74.7035C109.513 74.6756 109.46 74.635 109.418 74.5844C109.314 74.4692 109.233 74.354 109.153 74.2503C109.065 74.1109 108.965 73.9798 108.853 73.8587C108.742 73.7373 108.614 73.6326 108.473 73.5477C108.309 73.448 108.13 73.3742 107.943 73.3288C107.678 73.2756 107.407 73.2524 107.137 73.2597C106.883 73.2576 106.63 73.2965 106.388 73.3749C106.145 73.4561 105.918 73.581 105.72 73.7435C105.5 73.918 105.326 74.1433 105.213 74.4001C105.08 74.7064 105.002 75.034 104.983 75.3677V75.3677Z" fill="#11FFBB"/>
<path d="M116.041 77.1763V80.344C116.04 80.4725 115.991 80.596 115.902 80.6895C115.807 80.7827 115.679 80.8362 115.545 80.8393H114.152C114.087 80.8387 114.023 80.8251 113.964 80.7994C113.904 80.7737 113.851 80.7363 113.806 80.6895C113.759 80.6453 113.721 80.5918 113.695 80.5323C113.669 80.4729 113.656 80.4088 113.656 80.344V68.2491C113.656 68.1167 113.708 67.9895 113.801 67.8948C113.893 67.8 114.019 67.7453 114.152 67.7423H115.545C115.679 67.7454 115.807 67.7989 115.902 67.8921C115.992 67.9891 116.042 68.1168 116.041 68.2491V74.0086L119.116 71.532C119.2 71.4521 119.293 71.3824 119.393 71.3247C119.526 71.2475 119.677 71.2077 119.83 71.2095H121.696C121.757 71.209 121.817 71.2211 121.872 71.2449C121.928 71.2687 121.978 71.3037 122.019 71.3477C122.06 71.3883 122.092 71.4368 122.114 71.4902C122.136 71.5437 122.147 71.601 122.146 71.6587C122.157 71.7158 122.157 71.7744 122.146 71.8315C122.146 71.8315 122.077 71.9467 121.973 72.0273L117.699 75.483L122.376 79.9869C122.438 80.0379 122.488 80.1005 122.526 80.1712C122.538 80.2243 122.538 80.2793 122.526 80.3324C122.527 80.3902 122.516 80.4475 122.494 80.501C122.473 80.5544 122.44 80.6029 122.399 80.6435C122.361 80.6884 122.313 80.7242 122.259 80.7481C122.206 80.772 122.147 80.7835 122.088 80.7817H120.303C120.142 80.7831 119.983 80.7435 119.842 80.6665C119.733 80.6175 119.635 80.547 119.554 80.4591L116.041 77.1763Z" fill="#11FFBB"/>
<path d="M122.873 76.0242C122.872 75.3658 122.981 74.7118 123.196 74.0891C123.385 73.5076 123.691 72.9707 124.094 72.511C124.498 72.0412 125.002 71.6674 125.568 71.4167C126.156 71.1584 126.793 71.0288 127.435 71.0366C128.347 71.0086 129.245 71.2714 129.999 71.7869C130.752 72.3024 131.323 73.0441 131.627 73.9048C131.846 74.4784 131.955 75.0879 131.95 75.7017V76.5196C131.953 76.5855 131.943 76.6513 131.919 76.7129C131.895 76.7745 131.859 76.8305 131.812 76.8771C131.766 76.9238 131.71 76.9602 131.648 76.9839C131.586 77.0076 131.521 77.0182 131.455 77.0149H125.327C125.321 77.2749 125.38 77.5322 125.499 77.7636C125.615 77.9768 125.776 78.1618 125.972 78.305C126.176 78.4569 126.406 78.5701 126.651 78.639C126.907 78.7082 127.17 78.743 127.435 78.7427C127.757 78.7538 128.08 78.7149 128.391 78.6275C128.608 78.5584 128.814 78.4575 129.001 78.328C129.099 78.2449 129.207 78.1752 129.324 78.1207C129.442 78.0993 129.563 78.0993 129.681 78.1207H131.144C131.21 78.1197 131.276 78.1325 131.338 78.1583C131.399 78.184 131.455 78.2222 131.501 78.2704C131.548 78.3138 131.586 78.3675 131.61 78.4273C131.633 78.4872 131.644 78.5517 131.639 78.616C131.6 78.8571 131.505 79.0858 131.362 79.2841C131.141 79.5896 130.868 79.8546 130.556 80.0674C130.154 80.3537 129.711 80.5788 129.243 80.7355C128.66 80.9302 128.049 81.0237 127.435 81.0119C126.793 81.0142 126.158 80.8848 125.568 80.6318C125.026 80.4049 124.542 80.0584 124.152 79.6181C123.752 79.1603 123.446 78.6279 123.253 78.0516C123.015 77.4017 122.886 76.7165 122.873 76.0242ZM127.377 73.2712C127.067 73.2617 126.758 73.3126 126.467 73.421C126.233 73.5155 126.018 73.6521 125.833 73.8241C125.672 73.9841 125.539 74.1713 125.442 74.377C125.356 74.5634 125.298 74.7613 125.269 74.9645H129.416C129.389 74.7646 129.343 74.5679 129.278 74.377C129.206 74.1712 129.093 73.9828 128.943 73.8241C128.776 73.6474 128.571 73.5098 128.345 73.421C128.035 73.3061 127.707 73.2514 127.377 73.2597V73.2712Z" fill="#11FFBB"/>
<path d="M138.366 73.4439C138.081 73.3878 137.787 73.4025 137.509 73.4867C137.231 73.5709 136.978 73.7219 136.772 73.9266C136.567 74.1313 136.414 74.3834 136.328 74.6607C136.243 74.938 136.226 75.2322 136.281 75.5173V80.2976C136.28 80.4262 136.231 80.5497 136.143 80.6432C136.047 80.7364 135.919 80.7898 135.786 80.7929H134.392C134.327 80.7923 134.263 80.7788 134.204 80.7531C134.144 80.7273 134.091 80.69 134.046 80.6432C133.999 80.5989 133.961 80.5454 133.935 80.486C133.91 80.4265 133.896 80.3624 133.896 80.2976V71.7391C133.896 71.6066 133.948 71.4794 134.041 71.3847C134.133 71.29 134.259 71.2353 134.392 71.2323H135.786C135.919 71.2353 136.047 71.2888 136.143 71.382C136.233 71.479 136.282 71.6068 136.281 71.7391V72.1538C136.586 71.8766 136.932 71.6474 137.306 71.4742C137.76 71.2935 138.247 71.2111 138.734 71.2323H139.552C139.686 71.2353 139.813 71.2888 139.909 71.382C139.999 71.479 140.049 71.6068 140.048 71.7391V72.891C140.048 72.9549 140.037 73.0183 140.013 73.0776C139.989 73.1369 139.954 73.1909 139.909 73.2365C139.863 73.2848 139.808 73.3229 139.746 73.3487C139.685 73.3745 139.619 73.3873 139.552 73.3863L138.366 73.4439Z" fill="#11FFBB"/>
<path d="M146.302 78.0516C146.304 77.9282 146.258 77.8086 146.175 77.7175C146.044 77.6085 145.891 77.5298 145.726 77.4872C145.447 77.3928 145.162 77.3159 144.873 77.2568L143.514 76.9688C143.048 76.8701 142.595 76.7154 142.166 76.5081C141.845 76.3474 141.556 76.1287 141.314 75.863C141.107 75.6217 140.954 75.3389 140.865 75.0336C140.779 74.6986 140.737 74.3542 140.738 74.0085C140.744 73.6335 140.83 73.2643 140.991 72.9257C141.173 72.5623 141.428 72.2406 141.74 71.9811C142.082 71.6924 142.472 71.4662 142.892 71.313C143.406 71.1332 143.949 71.0473 144.493 71.0596C145.033 71.0495 145.572 71.1154 146.094 71.2555C146.501 71.3769 146.889 71.5553 147.246 71.7853C147.549 71.9841 147.808 72.2429 148.006 72.5456C148.179 72.8093 148.289 73.1086 148.329 73.421C148.336 73.4855 148.328 73.5509 148.304 73.6113C148.279 73.6716 148.241 73.725 148.191 73.7666C148.144 73.8142 148.089 73.8521 148.027 73.8778C147.966 73.9035 147.9 73.9166 147.834 73.9163H146.417C146.271 73.9264 146.126 73.8902 146.002 73.8126L145.703 73.5938C145.568 73.4898 145.416 73.4117 145.253 73.3634C144.988 73.2834 144.712 73.2484 144.436 73.2597C144.102 73.255 143.771 73.3096 143.456 73.421C143.332 73.4604 143.223 73.5388 143.147 73.6445C143.07 73.7503 143.029 73.8778 143.03 74.0085C143.026 74.1319 143.063 74.2533 143.134 74.354C143.239 74.4705 143.375 74.5545 143.526 74.5959C143.78 74.6932 144.042 74.7703 144.309 74.8263L145.622 75.1143C146.491 75.2493 147.296 75.6519 147.926 76.2662C148.378 76.7712 148.617 77.4316 148.594 78.1092C148.597 78.4828 148.505 78.8511 148.329 79.1804C148.133 79.551 147.858 79.8736 147.523 80.125C147.14 80.4204 146.707 80.643 146.244 80.7816C145.684 80.9534 145.102 81.0388 144.516 81.035C143.936 81.0422 143.358 80.9646 142.8 80.8046C142.354 80.6682 141.931 80.4663 141.544 80.2056C141.226 79.989 140.959 79.7061 140.761 79.3763C140.588 79.1062 140.485 78.7975 140.462 78.4778C140.454 78.4132 140.463 78.3479 140.487 78.2875C140.511 78.2272 140.55 78.1738 140.6 78.1322C140.646 78.084 140.701 78.0458 140.763 78.0201C140.824 77.9943 140.89 77.9815 140.957 77.9825H142.374C142.523 77.9725 142.67 78.0176 142.788 78.1092L143.099 78.4087C143.242 78.5329 143.406 78.6304 143.583 78.6966C143.884 78.7933 144.2 78.8362 144.516 78.8234H145.092C145.275 78.7995 145.456 78.761 145.634 78.7082C145.784 78.6548 145.924 78.577 146.048 78.4778C146.131 78.4435 146.2 78.3835 146.246 78.3067C146.291 78.2299 146.311 78.1405 146.302 78.0516V78.0516Z" fill="#11FFBB"/>
<path d="M81.7958 91.3097C81.8624 91.0191 81.9794 90.7423 82.1414 90.4919C82.3358 90.1703 82.5899 89.8888 82.8901 89.6625C83.237 89.3901 83.6261 89.1761 84.042 89.029C84.5719 88.8483 85.1295 88.7625 85.6892 88.7756C86.26 88.7654 86.8285 88.8511 87.3709 89.029C87.8508 89.1773 88.2942 89.4245 88.6726 89.7547C89.0341 90.0696 89.318 90.4638 89.5019 90.9066C89.7346 91.449 89.856 92.0327 89.859 92.6229V98.0137C89.8559 98.1474 89.8025 98.2749 89.7093 98.3708C89.6158 98.4591 89.4923 98.5085 89.3637 98.509H87.9008C87.7723 98.5085 87.6487 98.4591 87.5552 98.3708C87.4621 98.2749 87.4086 98.1474 87.4055 98.0137V97.4148C87.1013 97.8073 86.7059 98.1196 86.2536 98.3247C85.6761 98.5886 85.0452 98.7148 84.4106 98.6934C83.9302 98.7008 83.4518 98.6308 82.9938 98.486C82.6064 98.3617 82.2493 98.1577 81.9455 97.887C81.6665 97.632 81.443 97.3222 81.289 96.977C81.1365 96.6125 81.062 96.2202 81.0701 95.8252C81.052 95.4457 81.124 95.0673 81.2801 94.7209C81.4363 94.3746 81.6722 94.0701 81.9686 93.8324C82.6773 93.3132 83.5051 92.9805 84.376 92.8648L87.3594 92.3464C87.379 92.1417 87.3434 91.9354 87.2563 91.749C87.1692 91.5627 87.0338 91.403 86.8641 91.2867C86.5064 91.0845 86.0999 90.9849 85.6892 90.9987C85.4407 90.9831 85.192 91.0266 84.9635 91.1254C84.7813 91.214 84.6142 91.3306 84.4682 91.471C84.3808 91.5565 84.2795 91.6266 84.1687 91.6783C84.0696 91.6958 83.9683 91.6958 83.8692 91.6783H82.1529C82.0406 91.6792 81.9312 91.6427 81.8419 91.5747C81.8149 91.5368 81.7967 91.4933 81.7887 91.4475C81.7808 91.4016 81.7832 91.3545 81.7958 91.3097ZM84.8713 96.4932C85.2625 96.5048 85.6526 96.4463 86.0232 96.3205C86.3237 96.2172 86.6014 96.0569 86.8411 95.8482C87.0521 95.6681 87.2212 95.444 87.3364 95.1916C87.4468 94.9536 87.5019 94.6937 87.4976 94.4314V94.2471L85.0096 94.6963C84.6223 94.738 84.2488 94.8638 83.9153 95.0649C83.8103 95.1434 83.7261 95.2464 83.6699 95.3648C83.6137 95.4832 83.5872 95.6136 83.5927 95.7445C83.5922 95.8674 83.6296 95.9875 83.6996 96.0885C83.7697 96.1894 83.8691 96.2664 83.9844 96.3089C84.2493 96.4266 84.5354 96.4893 84.8253 96.4932H84.8713Z" fill="#11FFBB"/>
<path d="M94.1669 93.095C94.1208 93.5238 94.1208 93.9563 94.1669 94.3851C94.1914 94.7218 94.2814 95.0505 94.4318 95.3527C94.548 95.6045 94.7169 95.8284 94.9272 96.0093C95.1297 96.1719 95.3599 96.2968 95.6068 96.3779C95.8485 96.4563 96.1013 96.4952 96.3555 96.4931C96.6145 96.4978 96.8732 96.4747 97.1273 96.424C97.3133 96.3763 97.4917 96.3026 97.6571 96.2051C97.7981 96.1202 97.9261 96.0155 98.0372 95.8941C98.1488 95.773 98.2491 95.6419 98.3367 95.5025C98.4179 95.3856 98.5064 95.274 98.6017 95.1684C98.6439 95.1178 98.6968 95.0772 98.7565 95.0493C98.8162 95.0214 98.8813 95.007 98.9472 95.0071H100.341C100.408 95.0062 100.474 95.019 100.535 95.0447C100.597 95.0705 100.652 95.1087 100.698 95.1569C100.748 95.1985 100.787 95.2519 100.811 95.3122C100.835 95.3725 100.844 95.4379 100.836 95.5025C100.804 95.8282 100.71 96.1448 100.56 96.4355C100.366 96.8367 100.096 97.1965 99.7651 97.4952C99.354 97.8587 98.8822 98.1473 98.3713 98.3476C97.7281 98.5923 97.0435 98.7097 96.3555 98.6932C95.7325 98.7061 95.1133 98.5924 94.5355 98.3591C94.0134 98.1429 93.5367 97.8302 93.1302 97.4376C92.7219 97.0611 92.3929 96.6068 92.1626 96.1014C91.932 95.592 91.7917 95.0463 91.7479 94.4888C91.7351 94.2432 91.7351 93.9972 91.7479 93.7516C91.7479 93.4867 91.7479 93.2332 91.7479 93.0029C91.7834 92.4453 91.9201 91.8989 92.1511 91.3902C92.3751 90.8832 92.6915 90.4223 93.0841 90.031C93.4893 89.6396 93.9665 89.3306 94.4894 89.121C95.0706 88.8841 95.6934 88.7666 96.3209 88.7754C97.0101 88.7567 97.6959 88.8782 98.3367 89.1325C98.8476 89.3329 99.3194 89.6214 99.7305 89.9849C100.057 90.2826 100.327 90.6379 100.525 91.0331C100.678 91.3271 100.772 91.6479 100.802 91.9777C100.808 92.0421 100.799 92.1072 100.775 92.1674C100.751 92.2275 100.713 92.281 100.664 92.3232C100.618 92.3715 100.562 92.4096 100.501 92.4354C100.439 92.4612 100.373 92.474 100.306 92.473H98.9472C98.8801 92.4734 98.8138 92.458 98.7537 92.428C98.6937 92.398 98.6416 92.3542 98.6017 92.3002C98.5066 92.1985 98.4181 92.0907 98.3367 91.9777C98.2463 91.8366 98.1462 91.7019 98.0372 91.5745C97.9261 91.4532 97.7981 91.3484 97.6571 91.2635C97.4935 91.165 97.3143 91.0949 97.1273 91.0562C96.8732 91.0055 96.6145 90.9823 96.3555 90.9871C96.1013 90.9849 95.8485 91.0238 95.6068 91.1022C95.3599 91.1833 95.1297 91.3082 94.9272 91.4709C94.7256 91.6609 94.5683 91.8929 94.4664 92.1505C94.3095 92.4443 94.208 92.7645 94.1669 93.095Z" fill="#11FFBB"/>
<path d="M102.842 91.3098C102.903 91.0195 103.017 90.7426 103.176 90.492C103.378 90.1727 103.635 89.8919 103.936 89.6626C104.282 89.3891 104.671 89.175 105.088 89.0291C105.618 88.8493 106.175 88.7635 106.735 88.7757C107.309 88.7665 107.882 88.8522 108.428 89.0291C108.904 89.1776 109.344 89.4249 109.718 89.7548C110.112 90.0875 110.413 90.5159 110.594 90.9988C110.797 91.5317 110.895 92.0989 110.882 92.669V98.0599C110.883 98.1265 110.87 98.1926 110.844 98.2541C110.818 98.3155 110.78 98.371 110.732 98.417C110.687 98.4622 110.633 98.4978 110.573 98.5216C110.514 98.5453 110.45 98.5568 110.386 98.5552H108.993C108.929 98.5568 108.865 98.5453 108.806 98.5216C108.746 98.4978 108.692 98.4622 108.647 98.417C108.599 98.371 108.561 98.3155 108.535 98.2541C108.509 98.1926 108.496 98.1265 108.497 98.0599V97.4609C108.192 97.8521 107.797 98.1642 107.345 98.3709C106.768 98.6348 106.137 98.761 105.502 98.7395C105.022 98.7446 104.544 98.6747 104.086 98.5322C103.702 98.408 103.348 98.2038 103.049 97.9332C102.763 97.6844 102.538 97.373 102.392 97.0232C102.236 96.6594 102.158 96.2671 102.162 95.8713C102.144 95.4918 102.216 95.1134 102.372 94.7671C102.528 94.4207 102.764 94.1162 103.06 93.8785C103.77 93.361 104.597 93.0285 105.468 92.911L108.463 92.3926C108.482 92.1878 108.447 91.9815 108.36 91.7952C108.273 91.6088 108.137 91.4492 107.967 91.3329C107.606 91.1138 107.192 90.9982 106.769 90.9988C106.525 90.9828 106.28 91.0263 106.055 91.1255C105.873 91.2141 105.706 91.3307 105.56 91.4711C105.468 91.5515 105.368 91.6211 105.26 91.6784C105.158 91.6967 105.052 91.6967 104.949 91.6784H103.245C103.132 91.6832 103.021 91.6463 102.934 91.5748C102.897 91.5421 102.869 91.5006 102.853 91.4543C102.837 91.4079 102.833 91.3582 102.842 91.3098V91.3098ZM105.906 96.4933C106.297 96.5013 106.686 96.4429 107.057 96.3205C107.357 96.2148 107.634 96.0547 107.875 95.8483C108.083 95.6649 108.251 95.4416 108.371 95.1917C108.476 94.952 108.531 94.6932 108.532 94.4314V94.2471L105.986 94.6964C105.602 94.7375 105.233 94.8634 104.903 95.065C104.797 95.1429 104.711 95.2455 104.653 95.3638C104.595 95.4821 104.566 95.6128 104.569 95.7446C104.571 95.8685 104.611 95.9888 104.683 96.0896C104.755 96.1904 104.856 96.267 104.973 96.309C105.265 96.4427 105.584 96.5059 105.906 96.4933V96.4933Z" fill="#11FFBB"/>
<path d="M116.997 88.7755C117.342 88.7754 117.686 88.8141 118.022 88.8907C118.294 88.9492 118.557 89.0421 118.806 89.1672C119.013 89.2591 119.207 89.3793 119.382 89.5243C119.533 89.6192 119.675 89.7271 119.808 89.8468V85.9304C119.808 85.8656 119.821 85.8015 119.847 85.742C119.873 85.6826 119.91 85.6291 119.958 85.5848C120.002 85.538 120.056 85.5007 120.115 85.4749C120.175 85.4492 120.238 85.4356 120.303 85.4351H121.697C121.831 85.4381 121.958 85.4916 122.054 85.5848C122.142 85.6783 122.192 85.8018 122.192 85.9304V98.0137C122.196 98.0796 122.185 98.1455 122.161 98.2071C122.138 98.2687 122.101 98.3246 122.054 98.3713C122.008 98.4179 121.952 98.4543 121.89 98.478C121.829 98.5017 121.763 98.5123 121.697 98.509H120.269C120.205 98.5106 120.141 98.4991 120.082 98.4754C120.022 98.4516 119.968 98.416 119.923 98.3708C119.875 98.3248 119.837 98.2693 119.811 98.2079C119.785 98.1464 119.772 98.0803 119.773 98.0137V97.599C119.65 97.726 119.519 97.8453 119.382 97.9561C119.204 98.097 119.011 98.2168 118.806 98.3132C118.553 98.4281 118.291 98.5206 118.022 98.5896C117.686 98.6624 117.342 98.6972 116.997 98.6933C116.424 98.7032 115.857 98.581 115.338 98.3362C114.855 98.1082 114.423 97.7827 114.071 97.3801C113.718 96.9742 113.438 96.5105 113.242 96.0094C113.04 95.4901 112.923 94.9417 112.896 94.3852C112.896 94.2009 112.896 93.9821 112.896 93.7402C112.896 93.4983 112.896 93.2794 112.896 93.0951C112.92 92.5393 113.033 91.9909 113.231 91.471C113.429 90.9676 113.709 90.5006 114.06 90.0887C114.415 89.6894 114.846 89.3645 115.327 89.1326C115.85 88.8914 116.421 88.7695 116.997 88.7755ZM115.292 93.2218C115.258 93.5627 115.258 93.9062 115.292 94.247C115.295 94.5694 115.362 94.8881 115.488 95.1846C115.615 95.4812 115.799 95.7498 116.03 95.9748C116.458 96.3245 116.998 96.5084 117.55 96.4932C118.104 96.5052 118.644 96.3171 119.071 95.9633C119.505 95.5768 119.77 95.0347 119.808 94.4543C119.822 94.2242 119.822 93.9934 119.808 93.7632C119.822 93.5292 119.822 93.2946 119.808 93.0606C119.801 92.7709 119.735 92.4857 119.614 92.2226C119.492 91.9594 119.318 91.724 119.102 91.5308C118.886 91.3375 118.633 91.1906 118.358 91.0991C118.083 91.0076 117.793 90.9734 117.504 90.9987C116.951 90.9834 116.412 91.1674 115.984 91.517C115.538 91.9721 115.289 92.5847 115.292 93.2218Z" fill="#11FFBB"/>
<path d="M123.864 93.7404C123.858 93.0825 123.964 92.4283 124.175 91.8052C124.367 91.2215 124.672 90.6813 125.073 90.2156C125.472 89.7715 125.958 89.4147 126.502 89.1674C127.086 88.8976 127.724 88.7637 128.368 88.7758C129.01 88.768 129.646 88.8976 130.234 89.1559C130.769 89.3949 131.251 89.7397 131.651 90.1696C132.054 90.5965 132.363 91.1025 132.561 91.6555C132.778 92.2254 132.888 92.8309 132.883 93.4409V94.2703C132.88 94.4007 132.827 94.525 132.735 94.6173C132.643 94.7095 132.518 94.7627 132.388 94.7656H126.26C126.254 95.0256 126.314 95.283 126.433 95.5143C126.547 95.7248 126.704 95.9091 126.893 96.0557C127.099 96.2018 127.329 96.311 127.573 96.3782C127.83 96.4568 128.098 96.4956 128.368 96.4934C128.69 96.5045 129.013 96.4657 129.324 96.3782C129.541 96.3126 129.744 96.2071 129.923 96.0672C130.029 95.993 130.14 95.9275 130.257 95.8714C130.371 95.8509 130.488 95.8509 130.602 95.8714H132.077C132.143 95.8704 132.21 95.8832 132.271 95.909C132.332 95.9348 132.388 95.9729 132.434 96.0211C132.484 96.0628 132.523 96.1161 132.547 96.1765C132.571 96.2368 132.58 96.3022 132.572 96.3667C132.534 96.6068 132.435 96.833 132.284 97.0233C132.074 97.3379 131.804 97.6079 131.489 97.8181C130.572 98.4485 129.48 98.7749 128.368 98.7511C127.728 98.763 127.092 98.6414 126.502 98.394C125.958 98.1633 125.471 97.8175 125.073 97.3804C124.67 96.9206 124.364 96.3837 124.175 95.8023C123.953 95.138 123.848 94.4405 123.864 93.7404V93.7404ZM128.368 90.9989C128.058 90.9894 127.748 91.0403 127.458 91.1487C127.224 91.2431 127.009 91.3798 126.824 91.5518C126.662 91.7118 126.53 91.8989 126.433 92.1047C126.347 92.2871 126.288 92.4812 126.26 92.6807H130.407C130.38 92.4846 130.333 92.2916 130.268 92.1047C130.193 91.9011 130.079 91.7135 129.934 91.5518C129.765 91.3775 129.561 91.2403 129.335 91.1487C129.025 91.0377 128.697 90.9869 128.368 90.9989Z" fill="#11FFBB"/>
<path d="M137.271 89.8471C137.56 89.4957 137.927 89.2158 138.342 89.0292C138.751 88.8426 139.194 88.7445 139.643 88.7412C140.301 88.7148 140.954 88.866 141.533 89.179C142.009 89.4576 142.406 89.8543 142.684 90.3308C142.841 90.0768 143.04 89.8509 143.272 89.6627C143.498 89.4703 143.745 89.3041 144.009 89.1674C144.271 89.0406 144.545 88.9403 144.827 88.8679C145.098 88.8008 145.377 88.766 145.656 88.7643C146.256 88.7407 146.853 88.8633 147.396 89.1214C147.852 89.3314 148.248 89.6521 148.548 90.0544C148.845 90.4636 149.053 90.9306 149.158 91.4251C149.275 91.9624 149.333 92.5109 149.331 93.0608V98.0024C149.332 98.069 149.319 98.1351 149.293 98.1966C149.268 98.258 149.229 98.3135 149.181 98.3595C149.136 98.4047 149.082 98.4403 149.023 98.4641C148.963 98.4879 148.9 98.4993 148.836 98.4977H147.453C147.389 98.4993 147.326 98.4879 147.266 98.4641C147.207 98.4403 147.153 98.4047 147.108 98.3595C147.06 98.3135 147.021 98.258 146.996 98.1966C146.97 98.1351 146.957 98.069 146.958 98.0024V93.1645C147.021 92.5445 146.849 91.9234 146.474 91.4251C146.299 91.2529 146.089 91.1197 145.859 91.0344C145.629 90.949 145.383 90.9134 145.138 90.9298C144.675 90.9228 144.226 91.0916 143.882 91.4021C143.48 91.862 143.277 92.4628 143.318 93.0723V98.0139C143.319 98.0806 143.306 98.1467 143.28 98.2081C143.255 98.2696 143.216 98.325 143.168 98.371C143.123 98.4163 143.069 98.4519 143.01 98.4756C142.95 98.4994 142.887 98.5108 142.823 98.5092H141.429C141.365 98.5108 141.301 98.4994 141.242 98.4756C141.183 98.4519 141.129 98.4163 141.083 98.371C141.035 98.325 140.997 98.2696 140.971 98.2081C140.945 98.1467 140.933 98.0806 140.934 98.0139V93.1645C140.997 92.5445 140.824 91.9234 140.45 91.4251C140.275 91.2529 140.065 91.1197 139.835 91.0344C139.604 90.949 139.359 90.9134 139.114 90.9298C138.634 90.922 138.17 91.1042 137.824 91.4367C137.623 91.6741 137.473 91.9495 137.382 92.2464C137.291 92.5434 137.261 92.8556 137.294 93.1645V98.0139C137.295 98.0806 137.282 98.1467 137.256 98.2081C137.23 98.2696 137.192 98.325 137.144 98.371C137.099 98.4163 137.045 98.4519 136.985 98.4756C136.926 98.4994 136.862 98.5108 136.798 98.5092H135.405C135.341 98.5108 135.277 98.4994 135.218 98.4756C135.158 98.4519 135.104 98.4163 135.059 98.371C135.011 98.325 134.973 98.2696 134.947 98.2081C134.921 98.1467 134.908 98.0806 134.909 98.0139V89.4554C134.909 89.3906 134.922 89.3265 134.948 89.2671C134.974 89.2076 135.012 89.1541 135.059 89.1098C135.104 89.063 135.157 89.0257 135.217 89C135.276 88.9742 135.34 88.9607 135.405 88.9601H136.798C136.863 88.9607 136.927 88.9742 136.986 89C137.046 89.0257 137.099 89.063 137.144 89.1098C137.191 89.1541 137.229 89.2076 137.255 89.2671C137.28 89.3265 137.294 89.3906 137.294 89.4554L137.271 89.8471Z" fill="#11FFBB"/>
<path d="M154.019 98.0023L150.379 89.582C150.372 89.54 150.372 89.4972 150.379 89.4553C150.379 89.3905 150.392 89.3264 150.418 89.2669C150.444 89.2075 150.482 89.154 150.529 89.1097C150.574 89.0629 150.627 89.0255 150.687 88.9998C150.746 88.9741 150.81 88.9606 150.875 88.96H152.245C152.389 88.9621 152.528 89.0151 152.637 89.1097C152.735 89.1885 152.81 89.2918 152.856 89.4092L155.298 95.0765L157.74 89.4092C157.789 89.2941 157.864 89.1917 157.959 89.1097C158.067 89.0151 158.206 88.9621 158.35 88.96H159.721C159.855 88.963 159.982 89.0165 160.078 89.1097C160.166 89.2032 160.216 89.3267 160.216 89.4553C160.223 89.4972 160.223 89.54 160.216 89.582L155.056 101.562C155.006 101.677 154.932 101.779 154.837 101.861C154.727 101.952 154.588 102.001 154.445 101.999H153.075C153.009 102.003 152.943 101.992 152.881 101.968C152.82 101.945 152.764 101.908 152.717 101.862C152.67 101.815 152.634 101.759 152.61 101.697C152.587 101.636 152.576 101.57 152.579 101.504C152.573 101.462 152.573 101.419 152.579 101.377L154.019 98.0023Z" fill="#11FFBB"/>
</g>
<defs>
<clipPath id="clip0_360_123">
<rect width="160" height="102" fill="white"/>
</clipPath>
</defs>
</svg>
