<svg width="272" height="35" viewBox="0 0 272 35" fill="none" xmlns="http://www.w3.org/2000/svg">
<path fill-rule="evenodd" clip-rule="evenodd" d="M70.9513 22.2695L72.2682 15.9246L73.5846 22.2695H70.9513ZM74.9015 29.9424H78.5586L74.0233 6.48108H70.3663L65.8311 29.9424H69.4887L70.22 25.9584H74.1702L74.9015 29.9424Z" fill="black"/>
<path fill-rule="evenodd" clip-rule="evenodd" d="M162.826 22.2695L164.142 15.9246L165.459 22.2695H162.826ZM166.921 29.9424H170.579L166.044 6.48108H162.387L157.852 29.9424H161.509L162.241 25.9584H166.19L166.921 29.9424Z" fill="black"/>
<path fill-rule="evenodd" clip-rule="evenodd" d="M96.9913 22.2695L98.3077 15.9246L99.6246 22.2695H96.9913ZM101.088 29.9424H104.745L100.063 6.48108H96.4063L91.8711 29.9424H95.5282L96.2601 25.9584H100.21L101.088 29.9424Z" fill="black"/>
<path fill-rule="evenodd" clip-rule="evenodd" d="M152.144 29.9424H155.801V6.48108H152.144V29.9424Z" fill="black"/>
<path fill-rule="evenodd" clip-rule="evenodd" d="M239.775 29.9424H243.433V6.48108H239.775V29.9424Z" fill="black"/>
<path fill-rule="evenodd" clip-rule="evenodd" d="M131.371 10.1699V6.48108H120.106V26.4011V26.8437V29.9424H131.371V26.4011H123.764V18.7282H128.738V15.0393H123.764V10.1699H131.371Z" fill="black"/>
<path fill-rule="evenodd" clip-rule="evenodd" d="M113.231 26.2646H110.013V10.0335H113.231C113.963 10.0335 114.548 10.6237 114.548 11.3615V24.9367C114.548 25.6744 113.963 26.2646 113.231 26.2646ZM113.231 6.49219H106.355V29.9537H113.231C116.011 29.9537 118.205 27.7402 118.205 24.9367V11.5091C118.205 8.70555 116.011 6.49219 113.231 6.49219Z" fill="black"/>
<path fill-rule="evenodd" clip-rule="evenodd" d="M195.74 7.82021V6.49219H185.792V7.82021V28.6255V29.9537H195.74V28.6255H187.255V17.7064H193.107V16.3784H187.255V7.82021H195.74Z" fill="black"/>
<path fill-rule="evenodd" clip-rule="evenodd" d="M232.168 26.2646H228.949V10.0335H232.168C232.899 10.0335 233.484 10.6237 233.484 11.3615V24.9367C233.631 25.6744 233.046 26.2646 232.168 26.2646ZM232.168 6.49219H225.292V9.59088V10.0335V26.2646V26.7073V29.806H232.168C234.947 29.806 237.142 27.5927 237.142 24.7891V11.5091C237.288 8.70555 234.947 6.49219 232.168 6.49219Z" fill="black"/>
<path fill-rule="evenodd" clip-rule="evenodd" d="M146 6.49219L141.465 23.3135L136.784 6.49219H133.126V29.9537H136.784V19.9198L139.563 29.9537H143.22L146 19.9198V29.9537H149.657V6.49219H146Z" fill="black"/>
<path fill-rule="evenodd" clip-rule="evenodd" d="M182.575 24.9367C182.575 26.8549 180.965 28.478 178.917 28.478H175.114V7.82021H178.917C180.965 7.82021 182.575 9.4433 182.575 11.3615V24.9367ZM178.917 6.49219H173.65V7.82021V28.478V29.806H178.917C181.697 29.806 183.891 27.5927 183.891 24.7891V11.5091C184.038 8.70555 181.697 6.49219 178.917 6.49219Z" fill="black"/>
<path fill-rule="evenodd" clip-rule="evenodd" d="M91.2872 14.1651V12.3944C91.2872 9.14819 88.654 6.49219 85.2894 6.49219C81.9243 6.49219 79.291 9.14819 79.291 12.3944V24.0513C79.291 27.2976 81.9243 29.9537 85.2894 29.9537C88.654 29.9537 91.2872 27.2976 91.2872 24.0513V22.2807H87.6301V24.0513C87.6301 25.2318 86.6057 26.2646 85.2894 26.2646C83.9725 26.2646 82.9487 25.2318 82.9487 24.0513V12.3944C82.9487 11.214 83.9725 10.1811 85.2894 10.1811C86.6057 10.1811 87.6301 11.214 87.6301 12.3944V14.1651H91.2872Z" fill="black"/>
<path fill-rule="evenodd" clip-rule="evenodd" d="M209.491 14.1651V12.3944C209.491 9.14819 206.857 6.49219 203.493 6.49219C200.128 6.49219 197.495 9.14819 197.495 12.3944V24.0513C197.495 27.2976 200.128 29.9537 203.493 29.9537C206.857 29.9537 209.491 27.2976 209.491 24.0513V22.2807H205.834V24.0513C205.834 25.2318 204.809 26.2646 203.493 26.2646C202.176 26.2646 201.152 25.2318 201.152 24.0513V12.3944C201.152 11.214 202.176 10.1811 203.493 10.1811C204.809 10.1811 205.834 11.214 205.834 12.3944V14.1651H209.491Z" fill="black"/>
<path fill-rule="evenodd" clip-rule="evenodd" d="M268.196 24.0513C268.196 25.2318 267.172 26.2646 265.856 26.2646C264.539 26.2646 263.662 25.3793 263.662 24.0513V12.3944C263.662 11.214 264.685 10.1811 266.002 10.1811C267.319 10.1811 268.343 11.214 268.343 12.3944L268.196 24.0513ZM265.856 6.49219C262.637 6.49219 260.004 9.14819 260.004 12.3944V24.0513C260.004 27.2976 262.637 29.9537 266.002 29.9537C269.367 29.9537 272 27.2976 272 24.0513V12.3944C271.854 9.14819 269.221 6.49219 265.856 6.49219Z" fill="black"/>
<path fill-rule="evenodd" clip-rule="evenodd" d="M218.71 10.7713C219.148 11.214 219.295 11.8042 219.295 12.3944V24.0513C219.295 25.2318 218.27 26.2646 216.954 26.2646C215.637 26.2646 214.613 25.2318 214.613 24.0513V12.3944C214.613 11.214 215.637 10.1811 216.954 10.1811V6.49219C213.589 6.49219 210.956 9.14819 210.956 12.3944V24.0513C210.956 27.2976 213.589 29.9537 216.954 29.9537C220.318 29.9537 222.952 27.2976 222.952 24.0513V12.3944C222.952 10.9189 222.367 9.4433 221.343 8.41044L218.71 10.7713Z" fill="black"/>
<path fill-rule="evenodd" clip-rule="evenodd" d="M258.061 14.1651V12.3944C258.061 9.14819 255.427 6.49219 252.063 6.49219C248.698 6.49219 246.064 9.14819 246.064 12.3944V24.0513C246.064 27.2976 248.698 29.9537 252.063 29.9537H254.842H258.061V21.1002V17.5589H251.623V21.1002H254.404V26.4122H252.063C250.746 26.4122 249.722 25.3793 249.722 24.1989V12.3944C249.722 11.214 250.746 10.1811 252.063 10.1811C253.379 10.1811 254.404 11.214 254.404 12.3944V14.1651H258.061Z" fill="black"/>
<path fill-rule="evenodd" clip-rule="evenodd" d="M27.6495 20.5102L19.6033 12.5422L22.9681 9.29597L31.014 17.264L27.6495 20.5102ZM17.5552 10.624L14.1904 7.23019L17.5552 3.98403L20.92 7.23019L17.5552 10.624ZM7.46099 20.5102L4.0962 17.264L12.1423 9.29597L15.5071 12.5422L7.46099 20.5102ZM17.5552 0L0 17.1164L7.46099 24.3466L17.5552 14.4604L27.6495 24.3466L35.1105 17.1164L17.5552 0Z" fill="#E31D1A"/>
<path fill-rule="evenodd" clip-rule="evenodd" d="M47.9831 15.1983L44.618 11.952L52.6646 3.98403L56.0292 7.23019L47.9831 15.1983ZM56.0292 27.1502L52.6646 30.3967L44.618 22.4285L47.9831 19.1822L56.0292 27.1502ZM42.5704 20.5102L39.2052 17.264L42.5704 14.0178L45.9349 17.264L42.5704 20.5102ZM60.1256 7.23019L52.6646 0L35.1094 17.1164L52.6646 34.3803L60.1256 27.1502L50.0313 17.264L60.1256 7.23019Z" fill="#E31D1A"/>
</svg>
