<svg width="167" height="30" viewBox="0 0 167 30" fill="none" xmlns="http://www.w3.org/2000/svg">
<g clip-path="url(#clip0_360_197)">
<path d="M98.8632 6.46667C99.963 6.46667 100.953 6.62664 101.833 6.94659C102.713 7.26654 103.542 7.75646 104.322 8.41635L102.283 11.2359C101.283 10.476 100.273 10.0961 99.2531 10.0961C98.1933 10.0961 97.3934 10.486 96.8535 11.2659C96.3136 12.0458 96.0436 13.3056 96.0436 15.0453C96.0436 16.725 96.3136 17.9148 96.8535 18.6147C97.3934 19.3146 98.1733 19.6645 99.1931 19.6645C99.733 19.6645 100.223 19.5845 100.663 19.4246C101.103 19.2446 101.633 18.9646 102.253 18.5847L104.322 21.5242C102.743 22.784 100.953 23.4139 98.9532 23.4139C97.3334 23.4139 95.9337 23.074 94.7539 22.3941C93.574 21.6942 92.6642 20.7243 92.0243 19.4845C91.3844 18.2248 91.0645 16.755 91.0645 15.0753C91.0645 13.3955 91.3844 11.9058 92.0243 10.606C92.6642 9.3062 93.574 8.29637 94.7539 7.57649C95.9337 6.83661 97.3034 6.46667 98.8632 6.46667Z" fill="#121E28"/>
<path d="M112.63 6.46667C115.07 6.46667 116.98 7.21654 118.36 8.7163C119.739 10.1961 120.429 12.2757 120.429 14.9553C120.429 16.655 120.109 18.1448 119.469 19.4246C118.849 20.6844 117.95 21.6642 116.77 22.3641C115.61 23.064 114.23 23.4139 112.63 23.4139C110.211 23.4139 108.301 22.674 106.901 21.1943C105.522 19.6945 104.832 17.6049 104.832 14.9253C104.832 13.2256 105.142 11.7458 105.762 10.486C106.401 9.20622 107.301 8.21638 108.461 7.5165C109.641 6.81661 111.031 6.46667 112.63 6.46667ZM112.63 9.9461C111.671 9.9461 110.951 10.356 110.471 11.1759C109.991 11.9758 109.751 13.2256 109.751 14.9253C109.751 16.665 109.981 17.9348 110.441 18.7347C110.921 19.5345 111.651 19.9345 112.63 19.9345C113.59 19.9345 114.31 19.5345 114.79 18.7347C115.27 17.9148 115.51 16.655 115.51 14.9553C115.51 13.2156 115.27 11.9458 114.79 11.1459C114.33 10.346 113.61 9.9461 112.63 9.9461Z" fill="#121E28"/>
<path d="M137.526 0.647613V22.904H133.327L133.087 21.0443C131.967 22.624 130.457 23.4139 128.557 23.4139C126.578 23.4139 125.068 22.654 124.028 21.1343C123.008 19.6145 122.498 17.5349 122.498 14.8953C122.498 13.2756 122.768 11.8258 123.308 10.546C123.848 9.26621 124.608 8.26637 125.588 7.54649C126.588 6.82661 127.728 6.46667 129.007 6.46667C130.527 6.46667 131.787 6.96658 132.787 7.96642V0.137695L137.526 0.647613ZM130.027 19.9345C131.127 19.9345 132.047 19.3346 132.787 18.1348V11.2659C132.407 10.806 132.017 10.466 131.617 10.2461C131.237 10.0261 130.797 9.91611 130.297 9.91611C129.417 9.91611 128.717 10.326 128.197 11.1459C127.678 11.9658 127.418 13.2256 127.418 14.9253C127.418 16.785 127.638 18.0848 128.077 18.8247C128.537 19.5645 129.187 19.9345 130.027 19.9345Z" fill="#121E28"/>
<path d="M155.121 14.6253C155.121 15.2852 155.091 15.8551 155.031 16.3351H145.163C145.323 17.6748 145.703 18.6147 146.303 19.1546C146.903 19.6945 147.733 19.9645 148.792 19.9645C149.432 19.9645 150.052 19.8545 150.652 19.6345C151.252 19.3946 151.902 19.0346 152.602 18.5547L154.551 21.1943C152.692 22.674 150.622 23.4139 148.342 23.4139C145.763 23.4139 143.783 22.654 142.403 21.1343C141.024 19.6145 140.334 17.5749 140.334 15.0153C140.334 13.3955 140.624 11.9458 141.204 10.666C141.784 9.36619 142.633 8.34636 143.753 7.60648C144.873 6.8466 146.213 6.46667 147.773 6.46667C150.072 6.46667 151.872 7.18655 153.172 8.62632C154.471 10.0661 155.121 12.0658 155.121 14.6253ZM150.472 13.2756C150.432 10.836 149.572 9.61615 147.893 9.61615C147.073 9.61615 146.433 9.91611 145.973 10.516C145.533 11.1159 145.263 12.1057 145.163 13.4855H150.472V13.2756Z" fill="#121E28"/>
<path d="M161.239 -0.0571412C162.934 1.6386 164.279 3.65174 165.197 5.86733C166.115 8.08292 166.587 10.4576 166.587 12.8557C166.587 15.2539 166.115 17.6285 165.197 19.8441C164.279 22.0597 162.934 24.0728 161.239 25.7686L158.656 23.186C160.013 21.8294 161.089 20.2189 161.823 18.4464C162.557 16.6739 162.935 14.7742 162.935 12.8557C162.935 10.9372 162.557 9.03748 161.823 7.265C161.089 5.49253 160.013 3.88202 158.656 2.52543L161.239 -0.0571412Z" fill="#3DD7AC"/>
<path d="M86.5808 25.7385C84.885 24.0428 83.5399 22.0297 82.6222 19.8141C81.7044 17.5985 81.2321 15.2238 81.2321 12.8257C81.2321 10.4275 81.7044 8.05289 82.6222 5.8373C83.5399 3.62171 84.885 1.60857 86.5808 -0.0871711L89.1633 2.4954C87.8068 3.85199 86.7306 5.4625 85.9965 7.23497C85.2623 9.00745 84.8844 10.9072 84.8844 12.8257C84.8844 14.7442 85.2623 16.6439 85.9965 18.4164C86.7306 20.1889 87.8068 21.7994 89.1633 23.156L86.5808 25.7385Z" fill="#3DD7AC"/>
<path d="M7.28881 6.4668C8.42863 6.4668 9.49845 6.63677 10.4983 6.97671C11.4981 7.31666 12.378 7.79658 13.1379 8.41648L11.3981 11.086C10.0984 10.2662 8.78857 9.85625 7.46879 9.85625C6.84889 9.85625 6.36896 9.96623 6.02902 10.1862C5.70907 10.3862 5.5491 10.6761 5.5491 11.0561C5.5491 11.356 5.61909 11.606 5.75906 11.8059C5.91904 11.9859 6.22899 12.1759 6.68891 12.3758C7.14884 12.5758 7.85872 12.8158 8.81856 13.0957C10.4783 13.5756 11.7081 14.2055 12.508 14.9854C13.3278 15.7453 13.7378 16.8051 13.7378 18.1649C13.7378 19.2447 13.4278 20.1846 12.8079 20.9844C12.188 21.7643 11.3382 22.3642 10.2583 22.7841C9.17851 23.2041 7.9787 23.414 6.65892 23.414C5.31913 23.414 4.06934 23.2041 2.90953 22.7841C1.76971 22.3642 0.79987 21.7843 0 21.0444L2.30962 18.4648C3.64941 19.5047 5.05918 20.0246 6.53894 20.0246C7.25882 20.0246 7.81873 19.8946 8.21866 19.6347C8.63859 19.3747 8.84856 19.0048 8.84856 18.5248C8.84856 18.1449 8.76857 17.8449 8.6086 17.625C8.44862 17.405 8.13868 17.2051 7.67875 17.0251C7.21883 16.8251 6.48894 16.5852 5.48911 16.3052C3.90936 15.8453 2.72956 15.2054 1.94968 14.3855C1.16981 13.5656 0.779873 12.5458 0.779873 11.326C0.779873 10.4062 1.03983 9.58629 1.55975 8.86641C2.09966 8.12653 2.85953 7.54662 3.83938 7.12669C4.83921 6.68676 5.98903 6.4668 7.28881 6.4668Z" fill="#3DD7AC"/>
<path d="M29.6171 22.9041H25.5078L25.2978 20.8945C24.138 22.5742 22.5283 23.414 20.4686 23.414C19.0089 23.414 17.899 22.9741 17.1392 22.0943C16.3993 21.2144 16.0293 19.9846 16.0293 18.4049V6.97671H20.7686V17.805C20.7686 18.5848 20.8886 19.1347 21.1285 19.4547C21.3885 19.7546 21.7784 19.9046 22.2983 19.9046C23.2982 19.9046 24.158 19.2847 24.8779 18.0449V6.97671H29.6171V22.9041Z" fill="#3DD7AC"/>
<path d="M42.343 6.4668C44.3427 6.4668 45.8325 7.20668 46.8123 8.68644C47.7921 10.1662 48.2821 12.2359 48.2821 14.8954C48.2821 16.5352 48.0221 18.0049 47.5022 19.3047C47.0023 20.5845 46.2724 21.5943 45.3125 22.3342C44.3527 23.0541 43.2329 23.414 41.9531 23.414C40.3534 23.414 39.0636 22.8641 38.0837 21.7643V29.0531L33.3445 29.563V6.97671H37.5138L37.7538 8.74643C38.3737 7.96655 39.0836 7.39665 39.8834 7.0367C40.6833 6.65677 41.5032 6.4668 42.343 6.4668ZM40.5133 19.9346C42.413 19.9346 43.3629 18.2749 43.3629 14.9554C43.3629 13.0757 43.1529 11.7759 42.733 11.0561C42.313 10.3162 41.6831 9.94623 40.8433 9.94623C40.3034 9.94623 39.7934 10.1062 39.3135 10.4262C38.8536 10.7461 38.4437 11.206 38.0837 11.8059V18.5248C38.7236 19.4647 39.5335 19.9346 40.5133 19.9346Z" fill="#3DD7AC"/>
<path d="M65.1297 14.6255C65.1297 15.2854 65.0997 15.8553 65.0397 16.3352H55.1713C55.3313 17.675 55.7112 18.6148 56.3111 19.1547C56.911 19.6946 57.7409 19.9646 58.8007 19.9646C59.4406 19.9646 60.0605 19.8546 60.6604 19.6347C61.2603 19.3947 61.9102 19.0348 62.6101 18.5548L64.5598 21.1944C62.7001 22.6742 60.6304 23.414 58.3508 23.414C55.7712 23.414 53.7916 22.6542 52.4118 21.1344C51.032 19.6147 50.3421 17.575 50.3421 15.0154C50.3421 13.3957 50.6321 11.9459 51.212 10.6661C51.7919 9.36633 52.6417 8.34649 53.7616 7.60661C54.8814 6.84673 56.2212 6.4668 57.7809 6.4668C60.0805 6.4668 61.8802 7.18668 63.18 8.62645C64.4798 10.0662 65.1297 12.0659 65.1297 14.6255ZM60.4805 13.2757C60.4405 10.8361 59.5806 9.61628 57.9009 9.61628C57.081 9.61628 56.4411 9.91624 55.9812 10.5161C55.5413 11.116 55.2713 12.1059 55.1713 13.4857H60.4805V13.2757Z" fill="#3DD7AC"/>
<path d="M76.4306 6.52679C77.0105 6.52679 77.5404 6.59678 78.0203 6.73675L77.2705 11.326C76.6706 11.186 76.1906 11.116 75.8307 11.116C74.8909 11.116 74.171 11.446 73.6711 12.1059C73.1911 12.7458 72.8112 13.7156 72.5312 15.0154V22.9041H67.792V6.97671H71.9313L72.3213 10.0662C72.6812 8.96639 73.2211 8.10653 73.941 7.48663C74.6809 6.84674 75.5108 6.52679 76.4306 6.52679Z" fill="#3DD7AC"/>
</g>
<defs>
<clipPath id="clip0_360_197">
<rect width="167" height="30" fill="white"/>
</clipPath>
</defs>
</svg>
