<svg width="129" height="64" viewBox="0 0 129 64" fill="none" xmlns="http://www.w3.org/2000/svg">
<g clip-path="url(#clip0_266_315)">
<path d="M13.4336 23.4273L14.803 23.0849V1.53784L13.4336 1.19547V0.342285H23.5251V1.19547L22.3241 1.53784V11.3522H28.1389V1.53784L26.9433 1.19547V0.342285H37.0294V1.19547L35.6654 1.53784V23.0849L37.0294 23.4273V24.2805H26.9433V23.4273L28.1389 23.0849V12.3793H22.3241V23.0849L23.5251 23.4273V24.2805H13.4336V23.4273Z" fill="#6930C3"/>
<path d="M43.3933 24.7913C40.6762 24.7913 38.0568 23.4273 38.0568 20.2809C38.0208 19.5112 38.1768 18.7446 38.5107 18.0502C38.8447 17.3558 39.346 16.7554 39.9697 16.3029L47.768 14.1564V10.0535C47.768 8.61881 47.5615 8.2058 46.6811 8.2058C46.3907 8.1974 46.1013 8.24349 45.8279 8.34166L45.2845 13.4717H38.8774V9.98825L46.9474 7.17871C51.36 7.17871 54.9521 7.35261 54.9521 12.1402V19.5635C54.9575 20.4936 55.0595 21.4206 55.2565 22.3296L56.49 22.2318L56.5933 23.085L48.9853 24.7153L47.9962 22.0796L43.3933 24.7913ZM47.6647 21.2699L47.768 21.1938V14.977L46.3985 15.4606C45.6486 16.1779 45.3388 17.2376 45.3388 18.6723C45.3388 20.4874 45.8823 21.5797 46.7083 21.5797C47.0483 21.5598 47.3776 21.4531 47.6647 21.2699V21.2699Z" fill="#6930C3"/>
<path d="M57.1035 16.8953C57.1035 11.4881 61.4129 8.20036 66.4071 7.17871C68.3944 7.24378 70.3147 7.91294 71.912 9.09703V13.7488H66.369L65.4126 8.31448C65.3348 8.25368 65.2396 8.21939 65.1409 8.21667C64.5268 8.21667 63.0867 9.34157 63.0867 12.8684C63.0867 17.0366 65.38 19.8407 68.7656 19.8407C69.8624 19.8908 70.9546 19.6686 71.9447 19.194L72.1838 19.6722C69.6894 22.1666 68.4232 23.2969 65.5158 24.7642C60.6956 24.7913 57.1035 21.6123 57.1035 16.8953Z" fill="#6930C3"/>
<path d="M73.7923 23.4274L75.1618 23.085V1.74442L73.8249 1.80963L73.7217 0.853188L81.145 0H81.9981V14.7053L89.7312 8.89055L87.4922 8.54819V7.695H94.0134V8.54819L91.6223 8.89055L83.6393 14.4988L88.465 13.3739L94.0732 23.085L94.8558 23.4274V24.2805H86.4054L82.0253 15.2867V23.085L83.3948 23.4274V24.2805H73.7923V23.4274Z" fill="#6930C3"/>
<path d="M13.5858 63.9293V52.8433H0.744502L0 51.8542L14.7487 28.541H27.4162V29.78L1.43466 51.5554H13.5858V46.5558L23.5089 40.665V51.626H29.6442V52.865H23.5089V63.9511L13.5858 63.9293Z" fill="#6930C3"/>
<path d="M30.7529 62.7283L32.0246 62.4131V42.3876L30.7529 42.0725V41.3008H48.4253V47.9198H47.6265L44.5615 42.0725H39.0185V51.9575H41.5564L43.3062 47.7622H44.0996V57.0005H43.3062L41.5564 52.7726H39.0185V62.4349L41.0836 62.75V63.5435H30.7584L30.7529 62.7283Z" fill="#6930C3"/>
<path d="M52.8322 64C49.3705 64 48.5771 62.5382 48.5771 59.2015V49.8273L47.4902 49.8925V49.0937L54.457 47.822H55.2504V59.2341C55.2504 60.0275 55.6309 60.4731 56.4243 60.4731C56.8998 60.4369 57.359 60.2838 57.7611 60.0275L57.9513 59.9351V49.8273L56.8644 49.8925V49.0937L63.5432 47.822H64.3095V59.0385C64.271 59.9065 64.3663 60.7753 64.592 61.6143H65.5757L65.6735 62.4077L58.7447 63.8044L58.1089 60.7557L52.8322 64Z" fill="#6930C3"/>
<path d="M71.9886 63.9998C69.6681 63.9998 68.0487 62.413 68.0487 59.6143V49.5717H66.2988V48.7783H68.0487V46.9959L74.4068 43.6592V48.7783H77.8685V49.5717H74.4068V59.0437C74.3899 59.2557 74.4179 59.4688 74.489 59.6691C74.5601 59.8695 74.6726 60.0526 74.8193 60.2065C74.966 60.3604 75.1435 60.4816 75.3403 60.5621C75.537 60.6427 75.7486 60.6808 75.9611 60.674C76.7155 60.6459 77.4558 60.4608 78.1348 60.1306L78.45 60.8588L71.9886 63.9998Z" fill="#6930C3"/>
<path d="M84.4439 64C80.9768 64 80.1834 62.5382 80.1834 59.2015V49.8273L79.0693 49.8925V49.0937L86.0633 47.822H86.8567V59.2341C86.8567 60.0275 87.2371 60.4731 88.036 60.4731C88.5096 60.436 88.9668 60.283 89.3674 60.0275L89.5576 59.9351V49.8273L88.4707 49.8925V49.0937L95.1549 47.822H95.9157V59.0385C95.88 59.9064 95.9753 60.7748 96.1983 61.6143H97.1874L97.2798 62.4077L90.351 63.8044L89.7206 60.7557L84.4439 64Z" fill="#6930C3"/>
<path d="M98.6057 62.7284L99.8773 62.4132V49.6969L98.6383 49.7621L98.5459 48.9687L104.964 47.822H105.757L106.17 53.6367L108.344 47.822H111.404V53.8976H106.605L106.225 54.691V62.3806L108.578 62.7284V63.5218H98.6057V62.7284Z" fill="#6930C3"/>
<path d="M126.951 55.0062H118.022C118.658 57.5169 120.37 59.1363 122.978 59.1363C124.164 59.1946 125.343 58.9198 126.38 58.3429L126.82 58.9461C124.995 61.1017 122.717 62.8275 120.147 64C115.571 64 112.202 61.0437 112.202 56.6582C112.202 51.7347 116.082 48.5068 120.756 47.6318C123.391 47.6318 126.951 49.1263 126.951 53.3868V55.0062ZM120.43 54.2128V51.8271C120.43 49.5067 120.017 48.8111 119.191 48.8111C118.234 48.8111 117.729 49.7947 117.729 52.6151C117.723 53.1467 117.765 53.6777 117.854 54.2019L120.43 54.2128Z" fill="#6930C3"/>
<path d="M34.0302 39.301C32.7694 39.301 31.8836 38.4369 31.8836 36.9153V31.4429H30.9326V31.0136H31.8836V30.0463L35.3235 28.2258V31.0136H37.2093V31.4429H35.3235V36.6001C35.3132 36.7181 35.3284 36.837 35.3681 36.9486C35.4077 37.0603 35.471 37.1621 35.5534 37.2471C35.6359 37.3322 35.7357 37.3985 35.8461 37.4416C35.9564 37.4846 36.0748 37.5035 36.193 37.4968C36.6023 37.4823 37.004 37.3824 37.3723 37.2033L37.5462 37.6L34.0302 39.301Z" fill="#6930C3"/>
<path d="M37.7474 38.6107L38.443 38.4368V27.6389L37.7638 27.6715L37.7148 27.1715L41.47 26.7422H41.8993V32.2417L44.861 30.3886C46.5728 30.3886 47.0945 30.932 47.0945 32.9156V38.4368L47.7846 38.6107V39.0401H43.0242V38.6107L43.4589 38.4368V32.8449C43.4589 32.5026 43.3013 32.2417 42.9916 32.2417C42.6928 32.2479 42.4029 32.3446 42.1601 32.5189L41.8993 32.671V38.4368L42.334 38.6107V39.0401H37.7474V38.6107Z" fill="#6930C3"/>
<path d="M56.0659 34.4046H51.175C51.5228 35.774 52.4575 36.6544 53.8922 36.6544C54.5385 36.6866 55.1808 36.536 55.7453 36.2196L55.9844 36.5511C54.9884 37.7205 53.7497 38.6588 52.3543 39.3009C49.8599 39.3009 48.0068 37.6706 48.0068 35.3067C48.0068 32.6221 50.1208 30.856 52.6641 30.4158C54.0987 30.4158 56.0388 31.2309 56.0388 33.5514L56.0659 34.4046ZM52.5173 33.9698V32.671C52.5173 31.4103 52.2945 31.0407 51.8435 31.0407C51.3924 31.0407 51.0501 31.5841 51.0501 33.1166C51.0468 33.406 51.0686 33.6951 51.1153 33.9807L52.5173 33.9698Z" fill="#6930C3"/>
<path d="M128.223 31.8669L119.343 28.4106L65.0491 31.8669L60.707 36.9371L120.974 40.3281L128.223 31.8669Z" fill="#80FFDB"/>
</g>
<defs>
<clipPath id="clip0_266_315">
<rect width="128.223" height="64" fill="white"/>
</clipPath>
</defs>
</svg>
